{
.appVersion = "1057";
classes = (
{
code = "sterling fi Ebreve ae ebreve less asciitilde hyphen uni040D caron ij comma asciicircum E quotesingle periodcentered Odieresis six three tcommaaccent uni018F slash A ordmasculine C B AE greater degree H K J M O uni0306 P S IJ T Tcommaaccent Y X fl uni0326 a c b e i h OE j l o n p s r u t oe y x k uni0439";
name = default;
},
{
code = "sterling.calt0 fi.calt0 Ebreve.calt0 ae.calt0 ebreve.calt0 less.calt0 asciitilde.calt0 hyphen.calt0 uni040D.calt0 caron.calt0 ij.calt0 comma.calt0 asciicircum.calt0 E.calt0 quotesingle.calt0 periodcentered.calt0 Odieresis.calt0 six.calt0 three.calt0 tcommaaccent.calt0 uni018F.calt0 slash.calt0 A.calt0 ordmasculine.calt0 C.calt0 B.calt0 AE.calt0 greater.calt0 degree.calt0 H.calt0 K.calt0 J.calt0 M.calt0 O.calt0 uni0306.calt0 P.calt0 S.calt0 IJ.calt0 T.calt0 Tcommaaccent.calt0 Y.calt0 X.calt0 fl.calt0 uni0326.calt0 a.calt0 c.calt0 b.calt0 e.calt0 i.calt0 h.calt0 OE.calt0 j.calt0 l.calt0 o.calt0 n.calt0 p.calt0 s.calt0 r.calt0 u.calt0 t.calt0 oe.calt0 y.calt0 x.calt0 k.calt0 uni0439.calt0";
name = calt0;
},
{
code = "sterling.calt1 fi.calt1 Ebreve.calt1 ae.calt1 ebreve.calt1 less.calt1 asciitilde.calt1 hyphen.calt1 uni040D.calt1 caron.calt1 ij.calt1 comma.calt1 asciicircum.calt1 E.calt1 quotesingle.calt1 periodcentered.calt1 Odieresis.calt1 six.calt1 three.calt1 tcommaaccent.calt1 uni018F.calt1 slash.calt1 A.calt1 ordmasculine.calt1 C.calt1 B.calt1 AE.calt1 greater.calt1 degree.calt1 H.calt1 K.calt1 J.calt1 M.calt1 O.calt1 uni0306.calt1 P.calt1 S.calt1 IJ.calt1 T.calt1 Tcommaaccent.calt1 Y.calt1 X.calt1 fl.calt1 uni0326.calt1 a.calt1 c.calt1 b.calt1 e.calt1 i.calt1 h.calt1 OE.calt1 j.calt1 l.calt1 o.calt1 n.calt1 p.calt1 s.calt1 r.calt1 u.calt1 t.calt1 oe.calt1 y.calt1 x.calt1 k.calt1 uni0439.calt1";
name = calt1;
},
{

glyphs = (
{
glyphname = .notdef;
lastChange = "2019-02-04 10:45:10 +0000";
layers = (
{
layerId = "84CDBA37-3524-4FC2-9356-5581E3F2D06C";
paths = (
{
closed = 1;
nodes = (
"568 780 LINE",
"32 780 LINE",
"32 0 LINE",
"568 0 LINE"
);
},
{
closed = 1;
nodes = (
"468 680 LINE",
"468 100 LINE",
"132 100 LINE",
"132 680 LINE"
);
}
);
width = 600;
}
);
note = .notdef;
},
{
glyphname = a;
lastChange = "2019-02-04 10:45:10 +0000";
layers = (
{
layerId = "84CDBA37-3524-4FC2-9356-5581E3F2D06C";
paths = (
{
closed = 1;
nodes = (
"572 107 LINE",
"515 107 LINE",
"515 333 LINE SMOOTH",
"515 464 OFFCURVE",
"431 528 OFFCURVE",
"290 528 CURVE SMOOTH",
"174 528 OFFCURVE",
"101 486 OFFCURVE",
"66 427 CURVE",
"147 355 LINE",
"175 394 OFFCURVE",
"210 420 OFFCURVE",
"273 420 CURVE SMOOTH",
"341 420 OFFCURVE",
"367 388 OFFCURVE",
"367 327 CURVE SMOOTH",
"367 301 LINE",
"284 301 LINE SMOOTH",
"132 301 OFFCURVE",
"52 250 OFFCURVE",
"52 142 CURVE SMOOTH",
"52 45 OFFCURVE",
"118 -12 OFFCURVE",
"218 -12 CURVE SMOOTH",
"298 -12 OFFCURVE",
"356 23 OFFCURVE",
"375 91 CURVE",
"380 91 LINE",
"387 32 OFFCURVE",
"426 0 OFFCURVE",
"487 0 CURVE SMOOTH",
"572 0 LINE"
);
},
{
closed = 1;
nodes = (
"227 85 OFFCURVE",
"197 104 OFFCURVE",
"197 140 CURVE SMOOTH",
"197 160 LINE SMOOTH",
"197 201 OFFCURVE",
"227 221 OFFCURVE",
"288 221 CURVE SMOOTH",
"367 221 LINE",
"367 159 LINE SMOOTH",
"367 111 OFFCURVE",
"326 85 OFFCURVE",
"274 85 CURVE SMOOTH"
);
}
);
width = 600;
}
);
note = a;
unicode = 0061;
},
{
glyphname = a.alt01;
lastChange = "2019-02-04 10:45:10 +0000";
layers = (
{
layerId = "84CDBA37-3524-4FC2-9356-5581E3F2D06C";
paths = (
{
closed = 1;
nodes = (
"541 0 LINE",
"541 516 LINE",
"393 516 LINE",
"393 422 LINE",
"386 422 LINE",
"373 453 OFFCURVE",
"355 479 OFFCURVE",
"331 498 CURVE SMOOTH",
"306 517 OFFCURVE",
"274 528 OFFCURVE",
"233 528 CURVE SMOOTH",
"176 528 OFFCURVE",
"128 507 OFFCURVE",
"94 463 CURVE SMOOTH",
"60 419 OFFCURVE",
"39 351 OFFCURVE",
"39 258 CURVE SMOOTH",
"39 165 OFFCURVE",
"60 97 OFFCURVE",
"94 53 CURVE SMOOTH",
"128 9 OFFCURVE",
"176 -12 OFFCURVE",
"233 -12 CURVE SMOOTH",
"316 -12 OFFCURVE",
"359 31 OFFCURVE",
"386 94 CURVE",
"393 94 LINE",
"393 0 LINE"
);
},
{
closed = 1;
nodes = (
"230 103 OFFCURVE",
"193 146 OFFCURVE",
"193 218 CURVE SMOOTH",
"193 298 LINE SMOOTH",
"193 370 OFFCURVE",
"230 413 OFFCURVE",
"297 413 CURVE SMOOTH",
"349 413 OFFCURVE",
"393 389 OFFCURVE",
"393 334 CURVE SMOOTH",
"393 182 LINE SMOOTH",
"393 127 OFFCURVE",
"349 103 OFFCURVE",
"297 103 CURVE SMOOTH"
);
}
);
width = 600;
}
);
note = a.alt01;
},
{
glyphname = b;
lastChange = "2019-02-04 10:45:10 +0000";
layers = (
{
layerId = "84CDBA37-3524-4FC2-9356-5581E3F2D06C";
paths = (
{
closed = 1;
nodes = (
"207 0 LINE",
"207 94 LINE",
"214 94 LINE",
"239 31 OFFCURVE",
"284 -12 OFFCURVE",
"367 -12 CURVE SMOOTH",
"424 -12 OFFCURVE",
"473 9 OFFCURVE",
"507 53 CURVE SMOOTH",
"541 97 OFFCURVE",
"561 165 OFFCURVE",
"561 258 CURVE SMOOTH",
"561 351 OFFCURVE",
"541 419 OFFCURVE",
"507 463 CURVE SMOOTH",
"473 507 OFFCURVE",
"424 528 OFFCURVE",
"367 528 CURVE SMOOTH",
"284 528 OFFCURVE",
"239 483 OFFCURVE",
"214 422 CURVE",
"207 422 LINE",
"207 740 LINE",
"59 740 LINE",
"59 0 LINE"
);
},
{
closed = 1;
nodes = (
"251 103 OFFCURVE",
"207 127 OFFCURVE",
"207 182 CURVE SMOOTH",
"207 334 LINE SMOOTH",
"207 389 OFFCURVE",
"251 413 OFFCURVE",
"303 413 CURVE SMOOTH",
"370 413 OFFCURVE",
"407 370 OFFCURVE",
"407 298 CURVE SMOOTH",
"407 218 LINE SMOOTH",
"407 146 OFFCURVE",
"370 103 OFFCURVE",
"303 103 CURVE SMOOTH"
);
}
);
width = 600;
}
);
note = b;
unicode = 0062;
},
{
glyphname = c;
lastChange = "2019-02-04 10:45:10 +0000";
layers = (
{
layerId = "84CDBA37-3524-4FC2-9356-5581E3F2D06C";
paths = (
{
closed = 1;
nodes = (
"437 -12 OFFCURVE",
"506 38 OFFCURVE",
"543 114 CURVE",
"431 178 LINE",
"408 135 OFFCURVE",
"379 106 OFFCURVE",
"322 106 CURVE SMOOTH",
"251 106 OFFCURVE",
"214 148 OFFCURVE",
"214 216 CURVE SMOOTH",
"214 300 LINE SMOOTH",
"214 368 OFFCURVE",
"252 410 OFFCURVE",
"320 410 CURVE SMOOTH",
"376 410 OFFCURVE",
"402 380 OFFCURVE",
"421 340 CURVE",
"535 402 LINE",
"499 478 OFFCURVE",
"433 528 OFFCURVE",
"320 528 CURVE SMOOTH",
"240 528 OFFCURVE",
"174 503 OFFCURVE",
"130 456 CURVE SMOOTH",
"85 409 OFFCURVE",
"60 342 OFFCURVE",
"60 258 CURVE SMOOTH",
"60 174 OFFCURVE",
"85 107 OFFCURVE",
"130 60 CURVE SMOOTH",
"174 13 OFFCURVE",
"240 -12 OFFCURVE",
"321 -12 CURVE SMOOTH"
);
}
);
width = 600;
}
);
note = c;
unicode = 0063;
},
{
glyphname = d;
lastChange = "2019-02-04 10:45:10 +0000";
layers = (
{
layerId = "84CDBA37-3524-4FC2-9356-5581E3F2D06C";
paths = (
{
closed = 1;
nodes = (
"541 0 LINE",
"541 740 LINE",
"393 740 LINE",
"393 422 LINE",
"386 422 LINE",
"373 453 OFFCURVE",
"355 479 OFFCURVE",
"331 498 CURVE SMOOTH",
"306 517 OFFCURVE",
"274 528 OFFCURVE",
"233 528 CURVE SMOOTH",
"176 528 OFFCURVE",
"128 507 OFFCURVE",
"94 463 CURVE SMOOTH",
"60 419 OFFCURVE",
"39 351 OFFCURVE",
"39 258 CURVE SMOOTH",
"39 165 OFFCURVE",
"60 97 OFFCURVE",
"94 53 CURVE SMOOTH",
"128 9 OFFCURVE",
"176 -12 OFFCURVE",
"233 -12 CURVE SMOOTH",
"316 -12 OFFCURVE",
"359 31 OFFCURVE",
"386 94 CURVE",
"393 94 LINE",
"393 0 LINE"
);
},
{
closed = 1;
nodes = (
"230 103 OFFCURVE",
"193 146 OFFCURVE",
"193 218 CURVE SMOOTH",
"193 298 LINE SMOOTH",
"193 370 OFFCURVE",
"230 413 OFFCURVE",
"297 413 CURVE SMOOTH",
"349 413 OFFCURVE",
"393 389 OFFCURVE",
"393 334 CURVE SMOOTH",
"393 182 LINE SMOOTH",
"393 127 OFFCURVE",
"349 103 OFFCURVE",
"297 103 CURVE SMOOTH"
);
}
);
width = 600;
}
);
note = d;
unicode = 0064;
},
{
glyphname = e;
lastChange = "2019-02-04 10:45:10 +0000";
layers = (
{
layerId = "84CDBA37-3524-4FC2-9356-5581E3F2D06C";
paths = (
{
closed = 1;
nodes = (
"425 -12 OFFCURVE",
"495 30 OFFCURVE",
"535 79 CURVE",
"455 166 LINE",
"423 127 OFFCURVE",
"380 102 OFFCURVE",
"319 102 CURVE SMOOTH",
"239 102 OFFCURVE",
"197 146 OFFCURVE",
"197 213 CURVE SMOOTH",
"197 222 LINE",
"550 222 LINE",
"550 266 LINE SMOOTH",
"550 346 OFFCURVE",
"526 412 OFFCURVE",
"483 457 CURVE SMOOTH",
"440 502 OFFCURVE",
"378 528 OFFCURVE",
"301 528 CURVE SMOOTH",
"224 528 OFFCURVE",
"161 503 OFFCURVE",
"118 456 CURVE SMOOTH",
"74 408 OFFCURVE",
"50 340 OFFCURVE",
"50 256 CURVE SMOOTH",
"50 91 OFFCURVE",
"141 -12 OFFCURVE",
"314 -12 CURVE SMOOTH"
);
},
{
closed = 1;
nodes = (
"366 422 OFFCURVE",
"405 381 OFFCURVE",
"405 313 CURVE SMOOTH",
"405 305 LINE",
"197 305 LINE",
"197 313 LINE SMOOTH",
"197 380 OFFCURVE",
"238 422 OFFCURVE",
"302 422 CURVE SMOOTH"
);
}
);
width = 600;
}
);
note = e;
unicode = 0065;
},
{
glyphname = f;
lastChange = "2019-02-04 10:45:10 +0000";
layers = (
{
layerId = "84CDBA37-3524-4FC2-9356-5581E3F2D06C";
paths = (
{
closed = 1;
nodes = (
"533 0 LINE",
"533 115 LINE",
"371 115 LINE",
"371 401 LINE",
"556 401 LINE",
"556 516 LINE",
"371 516 LINE",
"371 625 LINE",
"556 625 LINE",
"556 740 LINE",
"381 740 LINE SMOOTH",
"273 740 OFFCURVE",
"223 679 OFFCURVE",
"223 591 CURVE SMOOTH",
"223 516 LINE",
"61 516 LINE",
"61 401 LINE",
"223 401 LINE",
"223 115 LINE",
"71 115 LINE",
"71 0 LINE"
);
}
);
width = 600;
}
);
note = f;
unicode = 0066;
},
{
glyphname = g;
lastChange = "2019-02-04 10:45:10 +0000";
layers = (
{
layerId = "84CDBA37-3524-4FC2-9356-5581E3F2D06C";
paths = (
{
closed = 1;
nodes = (
"583 -8 OFFCURVE",
"569 28 OFFCURVE",
"536 55 CURVE SMOOTH",
"503 82 OFFCURVE",
"451 97 OFFCURVE",
"378 97 CURVE SMOOTH",
"260 97 LINE SMOOTH",
"240 97 OFFCURVE",
"221 98 OFFCURVE",
"207 103 CURVE",
"193 107 OFFCURVE",
"184 116 OFFCURVE",
"184 132 CURVE SMOOTH",
"184 151 OFFCURVE",
"195 162 OFFCURVE",
"210 170 CURVE",
"235 163 OFFCURVE",
"263 160 OFFCURVE",
"294 160 CURVE SMOOTH",
"362 160 OFFCURVE",
"418 176 OFFCURVE",
"458 208 CURVE SMOOTH",
"498 239 OFFCURVE",
"520 284 OFFCURVE",
"520 344 CURVE SMOOTH",
"520 417 OFFCURVE",
"487 469 OFFCURVE",
"431 498 CURVE",
"431 507 LINE",
"555 507 LINE",
"555 615 LINE",
"464 615 LINE SMOOTH",
"415 615 OFFCURVE",
"385 585 OFFCURVE",
"385 545 CURVE SMOOTH",
"385 517 LINE",
"357 524 OFFCURVE",
"327 528 OFFCURVE",
"294 528 CURVE SMOOTH",
"226 528 OFFCURVE",
"171 512 OFFCURVE",
"132 481 CURVE SMOOTH",
"92 450 OFFCURVE",
"70 404 OFFCURVE",
"70 344 CURVE SMOOTH",
"70 268 OFFCURVE",
"106 214 OFFCURVE",
"167 185 CURVE",
"167 179 LINE",
"111 166 OFFCURVE",
"74 146 OFFCURVE",
"74 95 CURVE SMOOTH",
"74 50 OFFCURVE",
"102 27 OFFCURVE",
"146 14 CURVE",
"146 8 LINE",
"83 -8 OFFCURVE",
"47 -34 OFFCURVE",
"47 -93 CURVE SMOOTH",
"47 -128 OFFCURVE",
"61 -158 OFFCURVE",
"99 -179 CURVE SMOOTH",
"137 -200 OFFCURVE",
"198 -212 OFFCURVE",
"297 -212 CURVE SMOOTH",
"494 -212 OFFCURVE",
"583 -161 OFFCURVE",
"583 -52 CURVE SMOOTH"
);
},
{
closed = 1;
nodes = (
"443 -98 OFFCURVE",
"414 -117 OFFCURVE",
"346 -117 CURVE SMOOTH",
"259 -117 LINE SMOOTH",
"194 -117 OFFCURVE",
"169 -94 OFFCURVE",
"169 -62 CURVE SMOOTH",
"169 -45 OFFCURVE",
"176 -31 OFFCURVE",
"189 -20 CURVE",
"366 -20 LINE SMOOTH",
"396 -20 OFFCURVE",
"416 -24 OFFCURVE",
"427 -31 CURVE",
"438 -39 OFFCURVE",
"443 -50 OFFCURVE",
"443 -63 CURVE SMOOTH"
);
},
{
closed = 1;
nodes = (
"235 254 OFFCURVE",
"210 287 OFFCURVE",
"210 332 CURVE SMOOTH",
"210 356 LINE SMOOTH",
"210 401 OFFCURVE",
"235 434 OFFCURVE",
"294 434 CURVE SMOOTH",
"354 434 OFFCURVE",
"380 401 OFFCURVE",
"380 356 CURVE SMOOTH",
"380 332 LINE SMOOTH",
"380 287 OFFCURVE",
"354 254 OFFCURVE",
"294 254 CURVE SMOOTH"
);
}
);
width = 600;
}
);
note = g;
unicode = 0067;
},
{
glyphname = g.alt01;
lastChange = "2019-02-04 10:45:10 +0000";
layers = (
{
layerId = "84CDBA37-3524-4FC2-9356-5581E3F2D06C";
paths = (
{
closed = 1;
nodes = (
"393 516 LINE",
"393 422 LINE",
"386 422 LINE",
"373 453 OFFCURVE",
"355 479 OFFCURVE",
"331 498 CURVE SMOOTH",
"306 517 OFFCURVE",
"274 528 OFFCURVE",
"233 528 CURVE SMOOTH",
"176 528 OFFCURVE",
"128 507 OFFCURVE",
"94 464 CURVE SMOOTH",
"60 421 OFFCURVE",
"39 358 OFFCURVE",
"39 271 CURVE SMOOTH",
"39 184 OFFCURVE",
"60 121 OFFCURVE",
"94 78 CURVE SMOOTH",
"128 35 OFFCURVE",
"176 14 OFFCURVE",
"233 14 CURVE SMOOTH",
"316 14 OFFCURVE",
"359 58 OFFCURVE",
"386 121 CURVE",
"393 121 LINE",
"393 18 LINE SMOOTH",
"393 -54 OFFCURVE",
"356 -96 OFFCURVE",
"276 -96 CURVE SMOOTH",
"225 -96 OFFCURVE",
"183 -78 OFFCURVE",
"149 -43 CURVE",
"70 -137 LINE",
"111 -180 OFFCURVE",
"176 -212 OFFCURVE",
"280 -212 CURVE SMOOTH",
"455 -212 OFFCURVE",
"541 -122 OFFCURVE",
"541 31 CURVE SMOOTH",
"541 516 LINE"
);
},
{
closed = 1;
nodes = (
"230 129 OFFCURVE",
"193 173 OFFCURVE",
"193 245 CURVE SMOOTH",
"193 298 LINE SMOOTH",
"193 370 OFFCURVE",
"230 413 OFFCURVE",
"297 413 CURVE SMOOTH",
"349 413 OFFCURVE",
"393 389 OFFCURVE",
"393 334 CURVE SMOOTH",
"393 208 LINE SMOOTH",
"393 153 OFFCURVE",
"349 129 OFFCURVE",
"297 129 CURVE SMOOTH"
);
}
);
width = 600;
}
);
note = g.alt01;
},
{
glyphname = g.alt02;
lastChange = "2019-02-04 10:45:10 +0000";
layers = (
{
layerId = "84CDBA37-3524-4FC2-9356-5581E3F2D06C";
paths = (
{
closed = 1;
nodes = (
"494 -212 OFFCURVE",
"583 -161 OFFCURVE",
"583 -52 CURVE SMOOTH",
"583 -8 OFFCURVE",
"569 28 OFFCURVE",
"536 55 CURVE SMOOTH",
"503 82 OFFCURVE",
"451 97 OFFCURVE",
"378 97 CURVE SMOOTH",
"260 97 LINE SMOOTH",
"240 97 OFFCURVE",
"221 98 OFFCURVE",
"207 103 CURVE",
"193 107 OFFCURVE",
"184 116 OFFCURVE",
"184 132 CURVE SMOOTH",
"184 151 OFFCURVE",
"195 162 OFFCURVE",
"210 170 CURVE",
"235 163 OFFCURVE",
"263 160 OFFCURVE",
"294 160 CURVE SMOOTH",
"362 160 OFFCURVE",
"418 176 OFFCURVE",
"458 208 CURVE SMOOTH",
"498 239 OFFCURVE",
"520 283 OFFCURVE",
"520 342 CURVE SMOOTH",
"520 373 OFFCURVE",
"514 397 OFFCURVE",
"498 418 CURVE",
"581 418 LINE",
"581 516 LINE",
"387 516 LINE",
"360 524 OFFCURVE",
"329 528 OFFCURVE",
"296 528 CURVE SMOOTH",
"159 528 OFFCURVE",
"70 465 OFFCURVE",
"70 345 CURVE SMOOTH",
"70 269 OFFCURVE",
"106 216 OFFCURVE",
"167 185 CURVE",
"167 179 LINE",
"111 166 OFFCURVE",
"74 146 OFFCURVE",
"74 95 CURVE SMOOTH",
"74 50 OFFCURVE",
"102 27 OFFCURVE",
"146 14 CURVE",
"146 8 LINE",
"83 -8 OFFCURVE",
"47 -34 OFFCURVE",
"47 -93 CURVE SMOOTH",
"47 -128 OFFCURVE",
"61 -158 OFFCURVE",
"99 -179 CURVE SMOOTH",
"137 -200 OFFCURVE",
"198 -212 OFFCURVE",
"297 -212 CURVE SMOOTH"
);
},
{
closed = 1;
nodes = (
"235 254 OFFCURVE",
"210 287 OFFCURVE",
"210 332 CURVE SMOOTH",
"210 356 LINE SMOOTH",
"210 401 OFFCURVE",
"235 434 OFFCURVE",
"294 434 CURVE SMOOTH",
"354 434 OFFCURVE",
"380 401 OFFCURVE",
"380 356 CURVE SMOOTH",
"380 332 LINE SMOOTH",
"380 287 OFFCURVE",
"354 254 OFFCURVE",
"294 254 CURVE SMOOTH"
);
},
{
closed = 1;
nodes = (
"443 -98 OFFCURVE",
"414 -117 OFFCURVE",
"346 -117 CURVE SMOOTH",
"259 -117 LINE SMOOTH",
"194 -117 OFFCURVE",
"169 -94 OFFCURVE",
"169 -62 CURVE SMOOTH",
"169 -45 OFFCURVE",
"176 -31 OFFCURVE",
"189 -20 CURVE",
"366 -20 LINE SMOOTH",
"396 -20 OFFCURVE",
"416 -24 OFFCURVE",
"427 -31 CURVE",
"438 -39 OFFCURVE",
"443 -50 OFFCURVE",
"443 -63 CURVE SMOOTH"
);
}
);
width = 600;
}
);
note = g.alt02;
},
{
glyphname = h;
lastChange = "2019-02-04 10:45:10 +0000";
layers = (
{
layerId = "84CDBA37-3524-4FC2-9356-5581E3F2D06C";
paths = (
{
closed = 1;
nodes = (
"213 0 LINE",
"213 339 LINE SMOOTH",
"213 364 OFFCURVE",
"224 383 OFFCURVE",
"241 396 CURVE",
"258 408 OFFCURVE",
"281 414 OFFCURVE",
"304 414 CURVE SMOOTH",
"362 414 OFFCURVE",
"391 381 OFFCURVE",
"391 314 CURVE SMOOTH",
"391 0 LINE",
"539 0 LINE",
"539 334 LINE SMOOTH",
"539 397 OFFCURVE",
"521 445 OFFCURVE",
"492 478 CURVE SMOOTH",
"463 511 OFFCURVE",
"420 528 OFFCURVE",
"371 528 CURVE SMOOTH",
"330 528 OFFCURVE",
"297 516 OFFCURVE",
"273 497 CURVE SMOOTH",
"248 477 OFFCURVE",
"231 451 OFFCURVE",
"219 422 CURVE",
"213 422 LINE",
"213 740 LINE",
"65 740 LINE",
"65 0 LINE"
);
}
);
width = 600;
}
);
note = h;
unicode = 0068;
},
{
glyphname = i;
lastChange = "2019-02-04 10:45:10 +0000";
layers = (
{
layerId = "84CDBA37-3524-4FC2-9356-5581E3F2D06C";
paths = (
{
closed = 1;
nodes = (
"399 582 OFFCURVE",
"421 613 OFFCURVE",
"421 652 CURVE SMOOTH",
"421 681 LINE SMOOTH",
"421 721 OFFCURVE",
"399 751 OFFCURVE",
"332 751 CURVE SMOOTH",
"265 751 OFFCURVE",
"243 721 OFFCURVE",
"243 681 CURVE SMOOTH",
"243 652 LINE SMOOTH",
"243 613 OFFCURVE",
"265 582 OFFCURVE",
"332 582 CURVE SMOOTH"
);
},
{
closed = 1;
nodes = (
"558 0 LINE",
"558 115 LINE",
"406 115 LINE",
"406 516 LINE",
"94 516 LINE",
"94 401 LINE",
"258 401 LINE",
"258 115 LINE",
"94 115 LINE",
"94 0 LINE"
);
}
);
width = 600;
}
);
note = i;
unicode = 0069;
},
{
glyphname = j;
lastChange = "2019-02-04 10:45:10 +0000";
layers = (
{
layerId = "84CDBA37-3524-4FC2-9356-5581E3F2D06C";
paths = (
{
closed = 1;
nodes = (
"281 -200 LINE SMOOTH",
"386 -200 OFFCURVE",
"438 -138 OFFCURVE",
"438 -51 CURVE SMOOTH",
"438 516 LINE",
"90 516 LINE",
"90 401 LINE",
"290 401 LINE",
"290 -85 LINE",
"92 -85 LINE",
"92 -200 LINE"
);
},
{
closed = 1;
nodes = (
"429 582 OFFCURVE",
"453 613 OFFCURVE",
"453 652 CURVE SMOOTH",
"453 681 LINE SMOOTH",
"453 721 OFFCURVE",
"429 751 OFFCURVE",
"364 751 CURVE SMOOTH",
"297 751 OFFCURVE",
"275 721 OFFCURVE",
"275 681 CURVE SMOOTH",
"275 652 LINE SMOOTH",
"275 613 OFFCURVE",
"297 582 OFFCURVE",
"364 582 CURVE SMOOTH"
);
}
);
width = 600;
}
);
note = j;
unicode = 006A;
},
{
glyphname = k;
lastChange = "2019-02-04 10:45:10 +0000";
layers = (
{
layerId = "84CDBA37-3524-4FC2-9356-5581E3F2D06C";
paths = (
{
closed = 1;
nodes = (
"213 0 LINE",
"213 179 LINE",
"262 228 LINE",
"412 0 LINE",
"588 0 LINE",
"367 312 LINE",
"567 516 LINE",
"397 516 LINE",
"289 401 LINE",
"220 320 LINE",
"213 320 LINE",
"213 740 LINE",
"65 740 LINE",
"65 0 LINE"
);
}
);
width = 600;
}
);
note = k;
unicode = 006B;
},
{
glyphname = l;
lastChange = "2019-02-04 10:45:10 +0000";
layers = (
{
layerId = "84CDBA37-3524-4FC2-9356-5581E3F2D06C";
paths = (
{
closed = 1;
nodes = (
"532 0 LINE",
"532 115 LINE",
"374 115 LINE",
"374 740 LINE",
"68 740 LINE",
"68 625 LINE",
"226 625 LINE",
"226 115 LINE",
"68 115 LINE",
"68 0 LINE"
);
}
);
width = 600;
}
);
note = l;
unicode = 006C;
},
{
glyphname = m;
lastChange = "2019-02-04 10:45:10 +0000";
layers = (
{
layerId = "84CDBA37-3524-4FC2-9356-5581E3F2D06C";
paths = (
{
closed = 1;
nodes = (
"149 368 LINE SMOOTH",
"149 403 OFFCURVE",
"170 419 OFFCURVE",
"197 419 CURVE SMOOTH",
"224 419 OFFCURVE",
"240 402 OFFCURVE",
"240 354 CURVE SMOOTH",
"240 0 LINE",
"360 0 LINE",
"360 368 LINE SMOOTH",
"360 403 OFFCURVE",
"381 419 OFFCURVE",
"406 419 CURVE SMOOTH",
"433 419 OFFCURVE",
"451 402 OFFCURVE",
"451 354 CURVE SMOOTH",
"451 0 LINE",
"570 0 LINE",
"570 369 LINE SMOOTH",
"570 475 OFFCURVE",
"534 528 OFFCURVE",
"462 528 CURVE SMOOTH",
"430 528 OFFCURVE",
"406 518 OFFCURVE",
"389 502 CURVE SMOOTH",
"372 486 OFFCURVE",
"360 464 OFFCURVE",
"352 440 CURVE",
"346 440 LINE",
"335 499 OFFCURVE",
"304 528 OFFCURVE",
"254 528 CURVE SMOOTH",
"199 528 OFFCURVE",
"172 488 OFFCURVE",
"156 440 CURVE",
"149 440 LINE",
"149 516 LINE",
"30 516 LINE",
"30 0 LINE",
"149 0 LINE"
);
}
);
width = 600;
}
);
note = m;
unicode = 006D;
},
{
glyphname = n;
lastChange = "2019-02-04 10:45:10 +0000";
layers = (
{
layerId = "84CDBA37-3524-4FC2-9356-5581E3F2D06C";
paths = (
{
closed = 1;
nodes = (
"213 339 LINE SMOOTH",
"213 364 OFFCURVE",
"224 383 OFFCURVE",
"241 396 CURVE",
"258 408 OFFCURVE",
"281 414 OFFCURVE",
"304 414 CURVE SMOOTH",
"362 414 OFFCURVE",
"391 381 OFFCURVE",
"391 314 CURVE SMOOTH",
"391 0 LINE",
"539 0 LINE",
"539 334 LINE SMOOTH",
"539 397 OFFCURVE",
"521 445 OFFCURVE",
"492 478 CURVE SMOOTH",
"463 511 OFFCURVE",
"420 528 OFFCURVE",
"371 528 CURVE SMOOTH",
"330 528 OFFCURVE",
"297 516 OFFCURVE",
"273 497 CURVE SMOOTH",
"248 477 OFFCURVE",
"231 451 OFFCURVE",
"219 422 CURVE",
"213 422 LINE",
"213 516 LINE",
"65 516 LINE",
"65 0 LINE",
"213 0 LINE"
);
}
);
width = 600;
}
);
note = n;
unicode = 006E;
},
{
glyphname = o;
lastChange = "2019-02-04 10:45:10 +0000";
layers = (
{
layerId = "84CDBA37-3524-4FC2-9356-5581E3F2D06C";
paths = (
{
closed = 1;
nodes = (
"380 -12 OFFCURVE",
"445 13 OFFCURVE",
"490 60 CURVE SMOOTH",
"534 107 OFFCURVE",
"559 174 OFFCURVE",
"559 258 CURVE SMOOTH",
"559 342 OFFCURVE",
"534 409 OFFCURVE",
"490 456 CURVE SMOOTH",
"445 503 OFFCURVE",
"380 528 OFFCURVE",
"300 528 CURVE SMOOTH",
"220 528 OFFCURVE",
"155 503 OFFCURVE",
"111 456 CURVE SMOOTH",
"66 409 OFFCURVE",
"41 342 OFFCURVE",
"41 258 CURVE SMOOTH",
"41 174 OFFCURVE",
"66 107 OFFCURVE",
"111 60 CURVE SMOOTH",
"155 13 OFFCURVE",
"220 -12 OFFCURVE",
"300 -12 CURVE SMOOTH"
);
},
{
closed = 1;
nodes = (
"233 98 OFFCURVE",
"194 141 OFFCURVE",
"194 217 CURVE SMOOTH",
"194 299 LINE SMOOTH",
"194 375 OFFCURVE",
"233 418 OFFCURVE",
"300 418 CURVE SMOOTH",
"367 418 OFFCURVE",
"406 375 OFFCURVE",
"406 299 CURVE SMOOTH",
"406 217 LINE SMOOTH",
"406 141 OFFCURVE",
"367 98 OFFCURVE",
"300 98 CURVE SMOOTH"
);
}
);
width = 600;
}
);
note = o;
unicode = 006F;
},
{
glyphname = p;
lastChange = "2019-02-04 10:45:10 +0000";
layers = (
{
layerId = "84CDBA37-3524-4FC2-9356-5581E3F2D06C";
paths = (
{
closed = 1;
nodes = (
"207 -200 LINE",
"207 94 LINE",
"214 94 LINE",
"239 31 OFFCURVE",
"284 -12 OFFCURVE",
"367 -12 CURVE SMOOTH",
"424 -12 OFFCURVE",
"473 9 OFFCURVE",
"507 53 CURVE SMOOTH",
"541 97 OFFCURVE",
"561 165 OFFCURVE",
"561 258 CURVE SMOOTH",
"561 351 OFFCURVE",
"541 419 OFFCURVE",
"507 463 CURVE SMOOTH",
"473 507 OFFCURVE",
"424 528 OFFCURVE",
"367 528 CURVE SMOOTH",
"284 528 OFFCURVE",
"239 483 OFFCURVE",
"214 422 CURVE",
"207 422 LINE",
"207 516 LINE",
"59 516 LINE",
"59 -200 LINE"
);
},
{
closed = 1;
nodes = (
"251 103 OFFCURVE",
"207 127 OFFCURVE",
"207 182 CURVE SMOOTH",
"207 334 LINE SMOOTH",
"207 389 OFFCURVE",
"251 413 OFFCURVE",
"303 413 CURVE SMOOTH",
"370 413 OFFCURVE",
"407 370 OFFCURVE",
"407 298 CURVE SMOOTH",
"407 218 LINE SMOOTH",
"407 146 OFFCURVE",
"370 103 OFFCURVE",
"303 103 CURVE SMOOTH"
);
}
);
width = 600;
}
);
note = p;
unicode = 0070;
},
{
glyphname = q;
lastChange = "2019-02-04 10:45:10 +0000";
layers = (
{
layerId = "84CDBA37-3524-4FC2-9356-5581E3F2D06C";
paths = (
{
closed = 1;
nodes = (
"541 -200 LINE",
"541 516 LINE",
"393 516 LINE",
"393 422 LINE",
"386 422 LINE",
"373 453 OFFCURVE",
"355 479 OFFCURVE",
"331 498 CURVE SMOOTH",
"306 517 OFFCURVE",
"274 528 OFFCURVE",
"233 528 CURVE SMOOTH",
"176 528 OFFCURVE",
"128 507 OFFCURVE",
"94 463 CURVE SMOOTH",
"60 419 OFFCURVE",
"39 351 OFFCURVE",
"39 258 CURVE SMOOTH",
"39 165 OFFCURVE",
"60 97 OFFCURVE",
"94 53 CURVE SMOOTH",
"128 9 OFFCURVE",
"176 -12 OFFCURVE",
"233 -12 CURVE SMOOTH",
"316 -12 OFFCURVE",
"359 31 OFFCURVE",
"386 94 CURVE",
"393 94 LINE",
"393 -200 LINE"
);
},
{
closed = 1;
nodes = (
"230 103 OFFCURVE",
"193 146 OFFCURVE",
"193 218 CURVE SMOOTH",
"193 298 LINE SMOOTH",
"193 370 OFFCURVE",
"230 413 OFFCURVE",
"297 413 CURVE SMOOTH",
"349 413 OFFCURVE",
"393 389 OFFCURVE",
"393 334 CURVE SMOOTH",
"393 182 LINE SMOOTH",
"393 127 OFFCURVE",
"349 103 OFFCURVE",
"297 103 CURVE SMOOTH"
);
}
);
width = 600;
}
);
note = q;
unicode = 0071;
},
{
glyphname = r;
lastChange = "2019-02-04 10:45:10 +0000";
layers = (
{
layerId = "84CDBA37-3524-4FC2-9356-5581E3F2D06C";
paths = (
{
closed = 1;
nodes = (
"511 0 LINE",
"511 115 LINE",
"341 115 LINE",
"341 268 LINE SMOOTH",
"341 331 OFFCURVE",
"379 380 OFFCURVE",
"452 380 CURVE SMOOTH",
"562 380 LINE",
"562 516 LINE",
"513 516 LINE SMOOTH",
"462 516 OFFCURVE",
"426 499 OFFCURVE",
"400 472 CURVE SMOOTH",
"374 444 OFFCURVE",
"357 407 OFFCURVE",
"348 370 CURVE",
"341 370 LINE",
"341 516 LINE",
"74 516 LINE",
"74 401 LINE",
"193 401 LINE",
"193 115 LINE",
"74 115 LINE",
"74 0 LINE"
);
}
);
width = 600;
}
);
note = r;
unicode = 0072;
},
{
glyphname = s;
lastChange = "2019-02-04 10:45:10 +0000";
layers = (
{
layerId = "84CDBA37-3524-4FC2-9356-5581E3F2D06C";
paths = (
{
closed = 1;
nodes = (
"447 -12 OFFCURVE",
"534 55 OFFCURVE",
"534 163 CURVE SMOOTH",
"534 212 OFFCURVE",
"516 246 OFFCURVE",
"486 270 CURVE SMOOTH",
"456 294 OFFCURVE",
"415 307 OFFCURVE",
"368 314 CURVE SMOOTH",
"286 327 LINE SMOOTH",
"246 334 OFFCURVE",
"222 341 OFFCURVE",
"222 372 CURVE SMOOTH",
"222 407 OFFCURVE",
"251 424 OFFCURVE",
"308 424 CURVE SMOOTH",
"376 424 OFFCURVE",
"423 398 OFFCURVE",
"454 365 CURVE",
"528 449 LINE",
"485 500 OFFCURVE",
"414 528 OFFCURVE",
"313 528 CURVE SMOOTH",
"164 528 OFFCURVE",
"77 463 OFFCURVE",
"77 355 CURVE SMOOTH",
"77 306 OFFCURVE",
"96 272 OFFCURVE",
"125 248 CURVE SMOOTH",
"154 224 OFFCURVE",
"195 211 OFFCURVE",
"242 204 CURVE SMOOTH",
"325 191 LINE SMOOTH",
"365 184 OFFCURVE",
"389 176 OFFCURVE",
"389 147 CURVE SMOOTH",
"389 110 OFFCURVE",
"354 92 OFFCURVE",
"295 92 CURVE SMOOTH",
"226 92 OFFCURVE",
"172 118 OFFCURVE",
"132 162 CURVE",
"49 85 LINE",
"92 25 OFFCURVE",
"179 -12 OFFCURVE",
"294 -12 CURVE SMOOTH"
);
}
);
width = 600;
}
);
note = s;
unicode = 0073;
},
{
glyphname = t;
lastChange = "2019-02-04 10:45:10 +0000";
layers = (
{
layerId = "84CDBA37-3524-4FC2-9356-5581E3F2D06C";
paths = (
{
closed = 1;
nodes = (
"531 115 LINE",
"330 115 LINE",
"330 401 LINE",
"531 401 LINE",
"531 516 LINE",
"330 516 LINE",
"330 698 LINE",
"194 698 LINE",
"194 577 LINE SMOOTH",
"194 530 OFFCURVE",
"177 516 OFFCURVE",
"133 516 CURVE SMOOTH",
"42 516 LINE",
"42 401 LINE",
"182 401 LINE",
"182 149 LINE SMOOTH",
"182 62 OFFCURVE",
"233 0 OFFCURVE",
"340 0 CURVE SMOOTH",
"531 0 LINE"
);
}
);
width = 600;
}
);
note = t;
unicode = 0074;
},
{
glyphname = u;
lastChange = "2019-02-04 10:45:10 +0000";
layers = (
{
layerId = "84CDBA37-3524-4FC2-9356-5581E3F2D06C";
paths = (
{
closed = 1;
nodes = (
"535 0 LINE",
"535 516 LINE",
"387 516 LINE",
"387 177 LINE SMOOTH",
"387 152 OFFCURVE",
"375 133 OFFCURVE",
"359 121 CURVE SMOOTH",
"342 108 OFFCURVE",
"319 102 OFFCURVE",
"296 102 CURVE SMOOTH",
"238 102 OFFCURVE",
"209 135 OFFCURVE",
"209 202 CURVE SMOOTH",
"209 516 LINE",
"61 516 LINE",
"61 182 LINE SMOOTH",
"61 119 OFFCURVE",
"79 71 OFFCURVE",
"108 38 CURVE SMOOTH",
"137 5 OFFCURVE",
"180 -12 OFFCURVE",
"229 -12 CURVE SMOOTH",
"312 -12 OFFCURVE",
"358 35 OFFCURVE",
"381 94 CURVE",
"387 94 LINE",
"387 0 LINE"
);
}
);
width = 600;
}
);
note = u;
unicode = 0075;
},
{
glyphname = v;
lastChange = "2019-02-04 10:45:10 +0000";
layers = (
{
layerId = "84CDBA37-3524-4FC2-9356-5581E3F2D06C";
paths = (
{
closed = 1;
nodes = (
"573 516 LINE",
"423 516 LINE",
"356 295 LINE",
"307 123 LINE",
"299 123 LINE",
"250 295 LINE",
"183 516 LINE",
"27 516 LINE",
"212 0 LINE",
"388 0 LINE"
);
}
);
width = 600;
}
);
note = v;
unicode = 0076;
},
{
glyphname = w;
lastChange = "2019-02-04 10:45:10 +0000";
layers = (
{
layerId = "84CDBA37-3524-4FC2-9356-5581E3F2D06C";
paths = (
{
closed = 1;
nodes = (
"244 0 LINE",
"295 356 LINE",
"305 356 LINE",
"356 0 LINE",
"532 0 LINE",
"593 516 LINE",
"476 516 LINE",
"438 98 LINE",
"428 98 LINE",
"368 516 LINE",
"238 516 LINE",
"177 98 LINE",
"167 98 LINE",
"130 516 LINE",
"7 516 LINE",
"68 0 LINE"
);
}
);
width = 600;
}
);
note = w;
unicode = 0077;
},
{
glyphname = x;
lastChange = "2019-02-04 10:45:10 +0000";
layers = (
{
layerId = "84CDBA37-3524-4FC2-9356-5581E3F2D06C";
paths = (
{
closed = 1;
nodes = (
"245 97 LINE",
"289 166 LINE",
"297 166 LINE",
"342 97 LINE",
"407 0 LINE",
"577 0 LINE",
"384 270 LINE",
"564 516 LINE",
"409 516 LINE",
"353 433 LINE",
"310 366 LINE",
"302 366 LINE",
"260 433 LINE",
"205 516 LINE",
"36 516 LINE",
"216 262 LINE",
"23 0 LINE",
"179 0 LINE"
);
}
);
width = 600;
}
);
note = x;
unicode = 0078;
},
{
glyphname = y;
lastChange = "2019-02-04 10:45:10 +0000";
layers = (
{
layerId = "84CDBA37-3524-4FC2-9356-5581E3F2D06C";
paths = (
{
closed = 1;
nodes = (
"308 149 LINE",
"300 149 LINE",
"253 299 LINE",
"178 516 LINE",
"19 516 LINE",
"227 3 LINE",
"195 -85 LINE",
"71 -85 LINE",
"71 -200 LINE",
"173 -200 LINE SMOOTH",
"261 -200 OFFCURVE",
"307 -159 OFFCURVE",
"338 -83 CURVE SMOOTH",
"581 516 LINE",
"430 516 LINE",
"353 299 LINE"
);
}
);
width = 600;
}
);
note = y;
unicode = 0079;
},
{
glyphname = z;
lastChange = "2019-02-04 10:45:10 +0000";
layers = (
{
layerId = "84CDBA37-3524-4FC2-9356-5581E3F2D06C";
paths = (
{
closed = 1;
nodes = (
"534 115 LINE",
"237 115 LINE",
"524 393 LINE",
"524 516 LINE",
"76 516 LINE",
"76 401 LINE",
"353 401 LINE",
"66 123 LINE",
"66 0 LINE",
"534 0 LINE"
);
}
);
width = 600;
}
);
note = z;
unicode = 007A;
},
{
glyphname = A;
lastChange = "2019-02-04 10:45:10 +0000";
layers = (
{
layerId = "84CDBA37-3524-4FC2-9356-5581E3F2D06C";
paths = (
{
closed = 1;
nodes = (
"406 698 LINE",
"194 698 LINE",
"5 0 LINE",
"157 0 LINE",
"200 168 LINE",
"391 168 LINE",
"435 0 LINE",
"595 0 LINE"
);
},
{
closed = 1;
nodes = (
"224 289 LINE",
"292 553 LINE",
"300 553 LINE",
"368 289 LINE"
);
}
);
width = 600;
}
);
note = A;
unicode = 0041;
},
{
glyphname = B;
lastChange = "2019-02-04 10:45:10 +0000";
layers = (
{
layerId = "84CDBA37-3524-4FC2-9356-5581E3F2D06C";
paths = (
{
closed = 1;
nodes = (
"345 0 LINE SMOOTH",
"478 0 OFFCURVE",
"556 75 OFFCURVE",
"556 192 CURVE SMOOTH",
"556 287 OFFCURVE",
"507 338 OFFCURVE",
"420 359 CURVE",
"420 365 LINE",
"493 386 OFFCURVE",
"534 432 OFFCURVE",
"534 512 CURVE SMOOTH",
"534 627 OFFCURVE",
"459 698 OFFCURVE",
"322 698 CURVE SMOOTH",
"77 698 LINE",
"77 0 LINE"
);
},
{
closed = 1;
nodes = (
"223 302 LINE",
"299 302 LINE SMOOTH",
"371 302 OFFCURVE",
"403 282 OFFCURVE",
"403 218 CURVE SMOOTH",
"403 189 LINE SMOOTH",
"403 125 OFFCURVE",
"371 105 OFFCURVE",
"299 105 CURVE SMOOTH",
"223 105 LINE"
);
},
{
closed = 1;
nodes = (
"223 593 LINE",
"280 593 LINE SMOOTH",
"351 593 OFFCURVE",
"381 574 OFFCURVE",
"381 513 CURVE SMOOTH",
"381 483 LINE SMOOTH",
"381 422 OFFCURVE",
"351 402 OFFCURVE",
"280 402 CURVE SMOOTH",
"223 402 LINE"
);
}
);
width = 600;
}
);
note = B;
unicode = 0042;
},
{
glyphname = C;
lastChange = "2019-02-04 10:45:10 +0000";
layers = (
{
layerId = "84CDBA37-3524-4FC2-9356-5581E3F2D06C";
paths = (
{
closed = 1;
nodes = (
"388 -12 OFFCURVE",
"443 7 OFFCURVE",
"483 43 CURVE SMOOTH",
"523 78 OFFCURVE",
"548 128 OFFCURVE",
"563 189 CURVE",
"423 223 LINE",
"408 156 OFFCURVE",
"382 109 OFFCURVE",
"313 109 CURVE SMOOTH",
"232 109 OFFCURVE",
"201 176 OFFCURVE",
"201 288 CURVE SMOOTH",
"201 410 LINE SMOOTH",
"201 522 OFFCURVE",
"232 589 OFFCURVE",
"313 589 CURVE SMOOTH",
"348 589 OFFCURVE",
"372 577 OFFCURVE",
"389 557 CURVE SMOOTH",
"405 537 OFFCURVE",
"415 508 OFFCURVE",
"423 475 CURVE",
"563 509 LINE",
"548 570 OFFCURVE",
"523 620 OFFCURVE",
"483 655 CURVE SMOOTH",
"443 690 OFFCURVE",
"388 710 OFFCURVE",
"316 710 CURVE SMOOTH",
"129 710 OFFCURVE",
"41 578 OFFCURVE",
"41 349 CURVE SMOOTH",
"41 120 OFFCURVE",
"129 -12 OFFCURVE",
"316 -12 CURVE SMOOTH"
);
}
);
width = 600;
}
);
note = C;
unicode = 0043;
},
{
glyphname = D;
lastChange = "2019-02-04 10:45:10 +0000";
layers = (
{
layerId = "84CDBA37-3524-4FC2-9356-5581E3F2D06C";
paths = (
{
closed = 1;
nodes = (
"289 0 LINE SMOOTH",
"477 0 OFFCURVE",
"566 124 OFFCURVE",
"566 349 CURVE SMOOTH",
"566 574 OFFCURVE",
"477 698 OFFCURVE",
"289 698 CURVE SMOOTH",
"64 698 LINE",
"64 0 LINE"
);
},
{
closed = 1;
nodes = (
"212 580 LINE",
"279 580 LINE SMOOTH",
"368 580 OFFCURVE",
"408 521 OFFCURVE",
"408 413 CURVE SMOOTH",
"408 286 LINE SMOOTH",
"408 177 OFFCURVE",
"368 118 OFFCURVE",
"279 118 CURVE SMOOTH",
"212 118 LINE"
);
}
);
width = 600;
}
);
note = D;
unicode = 0044;
},
{
glyphname = E;
lastChange = "2019-02-04 10:45:10 +0000";
layers = (
{
layerId = "84CDBA37-3524-4FC2-9356-5581E3F2D06C";
paths = (
{
closed = 1;
nodes = (
"526 123 LINE",
"230 123 LINE",
"230 292 LINE",
"516 292 LINE",
"516 415 LINE",
"230 415 LINE",
"230 575 LINE",
"526 575 LINE",
"526 698 LINE",
"80 698 LINE",
"80 0 LINE",
"526 0 LINE"
);
}
);
width = 600;
}
);
note = E;
unicode = 0045;
},
{
glyphname = F;
lastChange = "2019-02-04 10:45:10 +0000";
layers = (
{
layerId = "84CDBA37-3524-4FC2-9356-5581E3F2D06C";
paths = (
{
closed = 1;
nodes = (
"230 292 LINE",
"510 292 LINE",
"510 415 LINE",
"230 415 LINE",
"230 575 LINE",
"543 575 LINE",
"543 698 LINE",
"80 698 LINE",
"80 0 LINE",
"230 0 LINE"
);
}
);
width = 600;
}
);
note = F;
unicode = 0046;
},
{
glyphname = G;
lastChange = "2019-02-04 10:45:10 +0000";
layers = (
{
layerId = "84CDBA37-3524-4FC2-9356-5581E3F2D06C";
paths = (
{
closed = 1;
nodes = (
"545 0 LINE",
"545 373 LINE",
"292 373 LINE",
"292 267 LINE",
"411 267 LINE",
"411 216 LINE SMOOTH",
"411 153 OFFCURVE",
"378 109 OFFCURVE",
"310 109 CURVE SMOOTH",
"223 109 OFFCURVE",
"194 183 OFFCURVE",
"194 296 CURVE SMOOTH",
"194 410 LINE SMOOTH",
"194 523 OFFCURVE",
"222 589 OFFCURVE",
"298 589 CURVE SMOOTH",
"333 589 OFFCURVE",
"356 575 OFFCURVE",
"372 554 CURVE SMOOTH",
"388 533 OFFCURVE",
"397 504 OFFCURVE",
"405 475 CURVE",
"545 509 LINE",
"530 569 OFFCURVE",
"506 619 OFFCURVE",
"467 655 CURVE SMOOTH",
"427 690 OFFCURVE",
"373 710 OFFCURVE",
"301 710 CURVE SMOOTH",
"120 710 OFFCURVE",
"35 580 OFFCURVE",
"35 343 CURVE SMOOTH",
"35 232 OFFCURVE",
"53 143 OFFCURVE",
"89 82 CURVE SMOOTH",
"125 21 OFFCURVE",
"178 -12 OFFCURVE",
"246 -12 CURVE SMOOTH",
"289 -12 OFFCURVE",
"323 1 OFFCURVE",
"348 22 CURVE SMOOTH",
"373 42 OFFCURVE",
"390 70 OFFCURVE",
"402 99 CURVE",
"411 99 LINE",
"411 0 LINE"
);
}
);
width = 600;
}
);
note = G;
unicode = 0047;
},
{
glyphname = H;
lastChange = "2019-02-04 10:45:10 +0000";
layers = (
{
layerId = "84CDBA37-3524-4FC2-9356-5581E3F2D06C";
paths = (
{
closed = 1;
nodes = (
"539 0 LINE",
"539 698 LINE",
"388 698 LINE",
"388 415 LINE",
"212 415 LINE",
"212 698 LINE",
"61 698 LINE",
"61 0 LINE",
"212 0 LINE",
"212 292 LINE",
"388 292 LINE",
"388 0 LINE"
);
}
);
width = 600;
}
);
note = H;
unicode = 0048;
},
{
glyphname = I;
lastChange = "2019-02-04 10:45:10 +0000";
layers = (
{
layerId = "84CDBA37-3524-4FC2-9356-5581E3F2D06C";
paths = (
{
closed = 1;
nodes = (
"525 111 LINE",
"375 111 LINE",
"375 587 LINE",
"525 587 LINE",
"525 698 LINE",
"75 698 LINE",
"75 587 LINE",
"225 587 LINE",
"225 111 LINE",
"75 111 LINE",
"75 0 LINE",
"525 0 LINE"
);
}
);
width = 600;
}
);
note = I;
unicode = 0049;
},
{
glyphname = J;
lastChange = "2019-02-04 10:45:10 +0000";
layers = (
{
layerId = "84CDBA37-3524-4FC2-9356-5581E3F2D06C";
paths = (
{
closed = 1;
nodes = (
"129 575 LINE",
"359 575 LINE",
"359 210 LINE SMOOTH",
"359 142 OFFCURVE",
"329 110 OFFCURVE",
"278 110 CURVE SMOOTH",
"218 110 OFFCURVE",
"191 151 OFFCURVE",
"180 211 CURVE",
"38 182 LINE",
"59 66 OFFCURVE",
"135 -12 OFFCURVE",
"278 -12 CURVE SMOOTH",
"349 -12 OFFCURVE",
"407 8 OFFCURVE",
"448 44 CURVE SMOOTH",
"488 80 OFFCURVE",
"511 132 OFFCURVE",
"511 195 CURVE SMOOTH",
"511 698 LINE",
"129 698 LINE"
);
}
);
width = 600;
}
);
note = J;
unicode = 004A;
},
{
glyphname = K;
lastChange = "2019-02-04 10:45:10 +0000";
layers = (
{
layerId = "84CDBA37-3524-4FC2-9356-5581E3F2D06C";
paths = (
{
closed = 1;
nodes = (
"603 0 LINE",
"384 403 LINE",
"593 698 LINE",
"425 698 LINE",
"302 522 LINE",
"226 406 LINE",
"218 406 LINE",
"218 698 LINE",
"68 698 LINE",
"68 0 LINE",
"218 0 LINE",
"218 204 LINE",
"280 291 LINE",
"434 0 LINE"
);
}
);
width = 600;
}
);
note = K;
unicode = 004B;
},
{
glyphname = L;
lastChange = "2019-02-04 10:45:10 +0000";
layers = (
{
layerId = "84CDBA37-3524-4FC2-9356-5581E3F2D06C";
paths = (
{
closed = 1;
nodes = (
"543 123 LINE",
"243 123 LINE",
"243 698 LINE",
"92 698 LINE",
"92 0 LINE",
"543 0 LINE"
);
}
);
width = 600;
}
);
note = L;
unicode = 004C;
},
{
glyphname = M;
lastChange = "2019-02-04 10:45:10 +0000";
layers = (
{
layerId = "84CDBA37-3524-4FC2-9356-5581E3F2D06C";
paths = (
{
closed = 1;
nodes = (
"561 0 LINE",
"561 698 LINE",
"396 698 LINE",
"310 463 LINE",
"302 463 LINE",
"216 698 LINE",
"39 698 LINE",
"39 0 LINE",
"169 0 LINE",
"169 311 LINE",
"161 506 LINE",
"170 506 LINE",
"300 147 LINE",
"430 506 LINE",
"439 506 LINE",
"431 311 LINE",
"431 0 LINE"
);
}
);
width = 600;
}
);
note = M;
unicode = 004D;
},
{
glyphname = N;
lastChange = "2019-02-04 10:45:10 +0000";
layers = (
{
layerId = "84CDBA37-3524-4FC2-9356-5581E3F2D06C";
paths = (
{
closed = 1;
nodes = (
"539 0 LINE",
"539 698 LINE",
"411 698 LINE",
"411 234 LINE",
"400 234 LINE",
"241 698 LINE",
"61 698 LINE",
"61 0 LINE",
"189 0 LINE",
"189 464 LINE",
"200 464 LINE",
"359 0 LINE"
);
}
);
width = 600;
}
);
note = N;
unicode = 004E;
},
{
glyphname = O;
lastChange = "2019-02-04 10:45:10 +0000";
layers = (
{
layerId = "84CDBA37-3524-4FC2-9356-5581E3F2D06C";
paths = (
{
closed = 1;
nodes = (
"487 -12 OFFCURVE",
"573 121 OFFCURVE",
"573 349 CURVE SMOOTH",
"573 577 OFFCURVE",
"487 710 OFFCURVE",
"300 710 CURVE SMOOTH",
"113 710 OFFCURVE",
"27 577 OFFCURVE",
"27 349 CURVE SMOOTH",
"27 121 OFFCURVE",
"113 -12 OFFCURVE",
"300 -12 CURVE SMOOTH"
);
},
{
closed = 1;
nodes = (
"215 109 OFFCURVE",
"187 176 OFFCURVE",
"187 288 CURVE SMOOTH",
"187 410 LINE SMOOTH",
"187 522 OFFCURVE",
"215 589 OFFCURVE",
"300 589 CURVE SMOOTH",
"385 589 OFFCURVE",
"413 522 OFFCURVE",
"413 410 CURVE SMOOTH",
"413 289 LINE SMOOTH",
"413 176 OFFCURVE",
"385 109 OFFCURVE",
"300 109 CURVE SMOOTH"
);
}
);
width = 600;
}
);
note = O;
unicode = 004F;
},
{
glyphname = P;
lastChange = "2019-02-04 10:45:10 +0000";
layers = (
{
layerId = "84CDBA37-3524-4FC2-9356-5581E3F2D06C";
paths = (
{
closed = 1;
nodes = (
"227 254 LINE",
"346 254 LINE SMOOTH",
"414 254 OFFCURVE",
"468 275 OFFCURVE",
"505 314 CURVE SMOOTH",
"541 353 OFFCURVE",
"560 408 OFFCURVE",
"560 476 CURVE SMOOTH",
"560 544 OFFCURVE",
"541 599 OFFCURVE",
"505 638 CURVE SMOOTH",
"468 677 OFFCURVE",
"414 698 OFFCURVE",
"346 698 CURVE SMOOTH",
"76 698 LINE",
"76 0 LINE",
"227 0 LINE"
);
},
{
closed = 1;
nodes = (
"308 577 LINE SMOOTH",
"379 577 OFFCURVE",
"402 552 OFFCURVE",
"402 491 CURVE SMOOTH",
"402 461 LINE SMOOTH",
"402 400 OFFCURVE",
"379 375 OFFCURVE",
"308 375 CURVE SMOOTH",
"227 375 LINE",
"227 577 LINE"
);
}
);
width = 600;
}
);
note = P;
unicode = 0050;
},
{
glyphname = Q;
lastChange = "2019-02-04 10:45:10 +0000";
layers = (
{
layerId = "84CDBA37-3524-4FC2-9356-5581E3F2D06C";
paths = (
{
closed = 1;
nodes = (
"365 -84 LINE",
"365 -6 LINE",
"508 22 OFFCURVE",
"573 148 OFFCURVE",
"573 349 CURVE SMOOTH",
"573 577 OFFCURVE",
"487 710 OFFCURVE",
"300 710 CURVE SMOOTH",
"113 710 OFFCURVE",
"27 577 OFFCURVE",
"27 349 CURVE SMOOTH",
"27 148 OFFCURVE",
"92 22 OFFCURVE",
"235 -6 CURVE",
"235 -47 LINE SMOOTH",
"235 -135 OFFCURVE",
"276 -191 OFFCURVE",
"384 -191 CURVE SMOOTH",
"526 -191 LINE",
"526 -84 LINE"
);
},
{
closed = 1;
nodes = (
"215 109 OFFCURVE",
"187 176 OFFCURVE",
"187 288 CURVE SMOOTH",
"187 410 LINE SMOOTH",
"187 522 OFFCURVE",
"215 589 OFFCURVE",
"300 589 CURVE SMOOTH",
"385 589 OFFCURVE",
"413 522 OFFCURVE",
"413 410 CURVE SMOOTH",
"413 289 LINE SMOOTH",
"413 176 OFFCURVE",
"385 109 OFFCURVE",
"300 109 CURVE SMOOTH"
);
}
);
width = 600;
}
);
note = Q;
unicode = 0051;
},
{
glyphname = R;
lastChange = "2019-02-04 10:45:10 +0000";
layers = (
{
layerId = "84CDBA37-3524-4FC2-9356-5581E3F2D06C";
paths = (
{
closed = 1;
nodes = (
"293 259 LINE",
"410 0 LINE",
"574 0 LINE",
"437 279 LINE",
"516 302 OFFCURVE",
"560 377 OFFCURVE",
"560 476 CURVE SMOOTH",
"560 544 OFFCURVE",
"541 599 OFFCURVE",
"505 638 CURVE SMOOTH",
"468 677 OFFCURVE",
"414 698 OFFCURVE",
"346 698 CURVE SMOOTH",
"76 698 LINE",
"76 0 LINE",
"224 0 LINE",
"224 259 LINE"
);
},
{
closed = 1;
nodes = (
"224 577 LINE",
"310 577 LINE SMOOTH",
"381 577 OFFCURVE",
"404 552 OFFCURVE",
"404 491 CURVE SMOOTH",
"404 461 LINE SMOOTH",
"404 400 OFFCURVE",
"381 375 OFFCURVE",
"310 375 CURVE SMOOTH",
"224 375 LINE"
);
}
);
width = 600;
}
);
note = R;
unicode = 0052;
},
{
glyphname = S;
lastChange = "2019-02-04 10:45:10 +0000";
layers = (
{
layerId = "84CDBA37-3524-4FC2-9356-5581E3F2D06C";
paths = (
{
closed = 1;
nodes = (
"377 -12 OFFCURVE",
"443 12 OFFCURVE",
"488 53 CURVE SMOOTH",
"533 93 OFFCURVE",
"556 150 OFFCURVE",
"556 215 CURVE SMOOTH",
"556 326 OFFCURVE",
"492 391 OFFCURVE",
"379 411 CURVE SMOOTH",
"306 424 LINE SMOOTH",
"238 436 OFFCURVE",
"210 457 OFFCURVE",
"210 505 CURVE SMOOTH",
"210 560 OFFCURVE",
"244 588 OFFCURVE",
"311 588 CURVE SMOOTH",
"375 588 OFFCURVE",
"426 563 OFFCURVE",
"463 522 CURVE",
"548 617 LINE",
"499 674 OFFCURVE",
"418 710 OFFCURVE",
"310 710 CURVE SMOOTH",
"151 710 OFFCURVE",
"59 633 OFFCURVE",
"59 498 CURVE SMOOTH",
"59 395 OFFCURVE",
"112 319 OFFCURVE",
"237 298 CURVE SMOOTH",
"310 286 LINE SMOOTH",
"378 275 OFFCURVE",
"404 252 OFFCURVE",
"404 203 CURVE SMOOTH",
"404 143 OFFCURVE",
"366 110 OFFCURVE",
"294 110 CURVE SMOOTH",
"231 110 OFFCURVE",
"169 136 OFFCURVE",
"118 192 CURVE",
"31 96 LINE",
"84 29 OFFCURVE",
"172 -12 OFFCURVE",
"289 -12 CURVE SMOOTH"
);
}
);
width = 600;
}
);
note = S;
unicode = 0053;
},
{
glyphname = T;
lastChange = "2019-02-04 10:45:10 +0000";
layers = (
{
layerId = "84CDBA37-3524-4FC2-9356-5581E3F2D06C";
paths = (
{
closed = 1;
nodes = (
"576 698 LINE",
"24 698 LINE",
"24 575 LINE",
"225 575 LINE",
"225 0 LINE",
"375 0 LINE",
"375 575 LINE",
"576 575 LINE"
);
}
);
width = 600;
}
);
note = T;
unicode = 0054;
},
{
glyphname = U;
lastChange = "2019-02-04 10:45:10 +0000";
layers = (
{
layerId = "84CDBA37-3524-4FC2-9356-5581E3F2D06C";
paths = (
{
closed = 1;
nodes = (
"55 276 LINE SMOOTH",
"55 180 OFFCURVE",
"65 108 OFFCURVE",
"101 60 CURVE SMOOTH",
"137 12 OFFCURVE",
"199 -12 OFFCURVE",
"300 -12 CURVE SMOOTH",
"401 -12 OFFCURVE",
"463 12 OFFCURVE",
"499 60 CURVE SMOOTH",
"535 108 OFFCURVE",
"545 180 OFFCURVE",
"545 276 CURVE SMOOTH",
"545 698 LINE",
"395 698 LINE",
"395 256 LINE SMOOTH",
"395 212 OFFCURVE",
"393 174 OFFCURVE",
"381 149 CURVE SMOOTH",
"368 124 OFFCURVE",
"344 109 OFFCURVE",
"300 109 CURVE SMOOTH",
"256 109 OFFCURVE",
"232 124 OFFCURVE",
"220 149 CURVE SMOOTH",
"207 174 OFFCURVE",
"205 212 OFFCURVE",
"205 256 CURVE SMOOTH",
"205 698 LINE",
"55 698 LINE"
);
}
);
width = 600;
}
);
note = U;
unicode = 0055;
},
{
glyphname = V;
lastChange = "2019-02-04 10:45:10 +0000";
layers = (
{
layerId = "84CDBA37-3524-4FC2-9356-5581E3F2D06C";
paths = (
{
closed = 1;
nodes = (
"591 698 LINE",
"432 698 LINE",
"349 343 LINE",
"307 142 LINE",
"299 142 LINE",
"258 343 LINE",
"176 698 LINE",
"9 698 LINE",
"194 0 LINE",
"406 0 LINE"
);
}
);
width = 600;
}
);
note = V;
unicode = 0056;
},
{
glyphname = W;
lastChange = "2019-02-04 10:45:10 +0000";
layers = (
{
layerId = "84CDBA37-3524-4FC2-9356-5581E3F2D06C";
paths = (
{
closed = 1;
nodes = (
"295 385 LINE",
"305 385 LINE",
"356 0 LINE",
"546 0 LINE",
"589 698 LINE",
"465 698 LINE",
"445 276 LINE",
"439 148 LINE",
"430 148 LINE",
"370 546 LINE",
"235 546 LINE",
"175 148 LINE",
"166 148 LINE",
"160 280 LINE",
"140 698 LINE",
"11 698 LINE",
"54 0 LINE",
"244 0 LINE"
);
}
);
width = 600;
}
);
note = W;
unicode = 0057;
},
{
glyphname = X;
lastChange = "2019-02-04 10:45:10 +0000";
layers = (
{
layerId = "84CDBA37-3524-4FC2-9356-5581E3F2D06C";
paths = (
{
closed = 1;
nodes = (
"578 698 LINE",
"421 698 LINE",
"361 587 LINE",
"309 475 LINE",
"301 475 LINE",
"250 587 LINE",
"193 698 LINE",
"22 698 LINE",
"205 361 LINE",
"9 0 LINE",
"166 0 LINE",
"240 139 LINE",
"290 249 LINE",
"299 249 LINE",
"348 139 LINE",
"420 0 LINE",
"591 0 LINE",
"395 359 LINE"
);
}
);
width = 600;
}
);
note = X;
unicode = 0058;
},
{
glyphname = Y;
lastChange = "2019-02-04 10:45:10 +0000";
layers = (
{
layerId = "84CDBA37-3524-4FC2-9356-5581E3F2D06C";
paths = (
{
closed = 1;
nodes = (
"375 247 LINE",
"596 698 LINE",
"435 698 LINE",
"361 536 LINE",
"307 399 LINE",
"299 399 LINE",
"245 536 LINE",
"171 698 LINE",
"4 698 LINE",
"225 247 LINE",
"225 0 LINE",
"375 0 LINE"
);
}
);
width = 600;
}
);
note = Y;
unicode = 0059;
},
{
glyphname = Z;
lastChange = "2019-02-04 10:45:10 +0000";
layers = (
{
layerId = "84CDBA37-3524-4FC2-9356-5581E3F2D06C";
paths = (
{
closed = 1;
nodes = (
"216 123 LINE",
"541 567 LINE",
"541 698 LINE",
"58 698 LINE",
"58 575 LINE",
"373 575 LINE",
"48 131 LINE",
"48 0 LINE",
"551 0 LINE",
"551 123 LINE"
);
}
);
width = 600;
}
);
note = Z;
unicode = 005A;
},
{
glyphname = zero;
lastChange = "2019-02-04 10:45:10 +0000";
layers = (
{
layerId = "84CDBA37-3524-4FC2-9356-5581E3F2D06C";
paths = (
{
closed = 1;
nodes = (
"487 -12 OFFCURVE",
"573 121 OFFCURVE",
"573 349 CURVE SMOOTH",
"573 577 OFFCURVE",
"487 710 OFFCURVE",
"300 710 CURVE SMOOTH",
"113 710 OFFCURVE",
"27 577 OFFCURVE",
"27 349 CURVE SMOOTH",
"27 121 OFFCURVE",
"113 -12 OFFCURVE",
"300 -12 CURVE SMOOTH"
);
},
{
closed = 1;
nodes = (
"211 106 OFFCURVE",
"180 172 OFFCURVE",
"180 284 CURVE SMOOTH",
"180 414 LINE SMOOTH",
"180 526 OFFCURVE",
"211 592 OFFCURVE",
"300 592 CURVE SMOOTH",
"389 592 OFFCURVE",
"420 526 OFFCURVE",
"420 414 CURVE SMOOTH",
"420 284 LINE SMOOTH",
"420 172 OFFCURVE",
"389 106 OFFCURVE",
"300 106 CURVE SMOOTH"
);
},
{
closed = 1;
nodes = (
"347 290 OFFCURVE",
"362 311 OFFCURVE",
"362 338 CURVE SMOOTH",
"362 360 LINE SMOOTH",
"362 387 OFFCURVE",
"347 408 OFFCURVE",
"300 408 CURVE SMOOTH",
"253 408 OFFCURVE",
"238 387 OFFCURVE",
"238 360 CURVE SMOOTH",
"238 338 LINE SMOOTH",
"238 311 OFFCURVE",
"253 290 OFFCURVE",
"300 290 CURVE SMOOTH"
);
}
);
width = 600;
}
);
note = zero;
unicode = 0030;
},
{
glyphname = zero.alt01;
lastChange = "2019-02-04 10:45:10 +0000";
layers = (
{
layerId = "84CDBA37-3524-4FC2-9356-5581E3F2D06C";
paths = (
{
closed = 1;
nodes = (
"487 -12 OFFCURVE",
"573 121 OFFCURVE",
"573 349 CURVE SMOOTH",
"573 577 OFFCURVE",
"487 710 OFFCURVE",
"300 710 CURVE SMOOTH",
"113 710 OFFCURVE",
"27 577 OFFCURVE",
"27 349 CURVE SMOOTH",
"27 121 OFFCURVE",
"113 -12 OFFCURVE",
"300 -12 CURVE SMOOTH"
);
},
{
closed = 1;
nodes = (
"351 597 OFFCURVE",
"386 576 OFFCURVE",
"405 533 CURVE",
"175 282 LINE",
"174 285 OFFCURVE",
"174 288 OFFCURVE",
"174 292 CURVE SMOOTH",
"174 414 LINE SMOOTH",
"174 530 OFFCURVE",
"207 597 OFFCURVE",
"300 597 CURVE SMOOTH"
);
},
{
closed = 1;
nodes = (
"249 101 OFFCURVE",
"214 122 OFFCURVE",
"195 165 CURVE",
"425 416 LINE",
"426 413 OFFCURVE",
"426 410 OFFCURVE",
"426 406 CURVE SMOOTH",
"426 284 LINE SMOOTH",
"426 168 OFFCURVE",
"393 101 OFFCURVE",
"300 101 CURVE SMOOTH"
);
}
);
width = 600;
}
);
note = zero.alt01;
},
{
glyphname = one;
lastChange = "2019-02-04 10:45:10 +0000";
layers = (
{
layerId = "84CDBA37-3524-4FC2-9356-5581E3F2D06C";
paths = (
{
closed = 1;
nodes = (
"580 121 LINE",
"432 121 LINE",
"432 698 LINE",
"202 698 LINE",
"35 478 LINE",
"131 403 LINE",
"273 589 LINE",
"282 589 LINE",
"282 121 LINE",
"94 121 LINE",
"94 0 LINE",
"580 0 LINE"
);
}
);
width = 600;
}
);
note = one;
unicode = 0031;
},
{
glyphname = two;
lastChange = "2019-02-04 10:45:10 +0000";
layers = (
{
layerId = "84CDBA37-3524-4FC2-9356-5581E3F2D06C";
paths = (
{
closed = 1;
nodes = (
"219 126 LINE",
"352 229 LINE SMOOTH",
"404 269 OFFCURVE",
"452 308 OFFCURVE",
"486 351 CURVE SMOOTH",
"520 394 OFFCURVE",
"540 441 OFFCURVE",
"540 500 CURVE SMOOTH",
"540 560 OFFCURVE",
"518 613 OFFCURVE",
"477 650 CURVE SMOOTH",
"436 687 OFFCURVE",
"375 710 OFFCURVE",
"299 710 CURVE SMOOTH",
"224 710 OFFCURVE",
"168 689 OFFCURVE",
"125 657 CURVE SMOOTH",
"81 625 OFFCURVE",
"54 580 OFFCURVE",
"38 532 CURVE",
"169 482 LINE",
"184 535 OFFCURVE",
"217 580 OFFCURVE",
"284 580 CURVE SMOOTH",
"343 580 OFFCURVE",
"380 550 OFFCURVE",
"380 491 CURVE SMOOTH",
"380 481 LINE SMOOTH",
"380 428 OFFCURVE",
"349 385 OFFCURVE",
"273 320 CURVE SMOOTH",
"53 137 LINE",
"53 0 LINE",
"555 0 LINE",
"555 126 LINE"
);
}
);
width = 600;
}
);
note = two;
unicode = 0032;
},
{
glyphname = three;
lastChange = "2019-02-04 10:45:10 +0000";
layers = (
{
layerId = "84CDBA37-3524-4FC2-9356-5581E3F2D06C";
paths = (
{
closed = 1;
nodes = (
"207 297 LINE",
"272 297 LINE SMOOTH",
"351 297 OFFCURVE",
"397 268 OFFCURVE",
"397 211 CURVE SMOOTH",
"397 204 LINE SMOOTH",
"397 145 OFFCURVE",
"357 110 OFFCURVE",
"285 110 CURVE SMOOTH",
"208 110 OFFCURVE",
"166 151 OFFCURVE",
"135 208 CURVE",
"24 122 LINE",
"47 87 OFFCURVE",
"76 53 OFFCURVE",
"117 29 CURVE SMOOTH",
"158 4 OFFCURVE",
"211 -12 OFFCURVE",
"282 -12 CURVE SMOOTH",
"365 -12 OFFCURVE",
"433 8 OFFCURVE",
"481 44 CURVE SMOOTH",
"528 80 OFFCURVE",
"555 131 OFFCURVE",
"555 194 CURVE SMOOTH",
"555 290 OFFCURVE",
"491 347 OFFCURVE",
"406 362 CURVE",
"406 368 LINE",
"443 375 OFFCURVE",
"477 391 OFFCURVE",
"502 418 CURVE SMOOTH",
"526 445 OFFCURVE",
"542 481 OFFCURVE",
"542 525 CURVE SMOOTH",
"542 581 OFFCURVE",
"517 627 OFFCURVE",
"474 660 CURVE SMOOTH",
"430 692 OFFCURVE",
"368 710 OFFCURVE",
"292 710 CURVE SMOOTH",
"231 710 OFFCURVE",
"183 698 OFFCURVE",
"144 678 CURVE SMOOTH",
"105 657 OFFCURVE",
"74 628 OFFCURVE",
"47 593 CURVE",
"142 505 LINE",
"177 558 OFFCURVE",
"229 588 OFFCURVE",
"286 588 CURVE SMOOTH",
"349 588 OFFCURVE",
"384 556 OFFCURVE",
"384 505 CURVE SMOOTH",
"384 498 LINE SMOOTH",
"384 455 OFFCURVE",
"350 422 OFFCURVE",
"273 422 CURVE SMOOTH",
"207 422 LINE"
);
}
);
width = 600;
}
);
note = three;
unicode = 0033;
},
{
glyphname = four;
lastChange = "2019-02-04 10:45:10 +0000";
layers = (
{
layerId = "84CDBA37-3524-4FC2-9356-5581E3F2D06C";
paths = (
{
closed = 1;
nodes = (
"483 134 LINE",
"573 134 LINE",
"573 250 LINE",
"483 250 LINE",
"483 698 LINE",
"303 698 LINE",
"25 262 LINE",
"25 134 LINE",
"339 134 LINE",
"339 0 LINE",
"483 0 LINE"
);
},
{
closed = 1;
nodes = (
"339 543 LINE",
"339 250 LINE",
"146 250 LINE",
"330 543 LINE"
);
}
);
width = 600;
}
);
note = four;
unicode = 0034;
},
{
glyphname = five;
lastChange = "2019-02-04 10:45:10 +0000";
layers = (
{
layerId = "84CDBA37-3524-4FC2-9356-5581E3F2D06C";
paths = (
{
closed = 1;
nodes = (
"92 698 LINE",
"66 303 LINE",
"189 286 LINE",
"208 307 OFFCURVE",
"244 335 OFFCURVE",
"300 335 CURVE SMOOTH",
"368 335 OFFCURVE",
"409 295 OFFCURVE",
"409 230 CURVE SMOOTH",
"409 222 LINE SMOOTH",
"409 154 OFFCURVE",
"371 110 OFFCURVE",
"296 110 CURVE SMOOTH",
"259 110 OFFCURVE",
"231 121 OFFCURVE",
"208 139 CURVE SMOOTH",
"184 157 OFFCURVE",
"167 181 OFFCURVE",
"151 208 CURVE",
"42 122 LINE",
"63 87 OFFCURVE",
"93 53 OFFCURVE",
"134 29 CURVE SMOOTH",
"174 4 OFFCURVE",
"227 -12 OFFCURVE",
"295 -12 CURVE SMOOTH",
"382 -12 OFFCURVE",
"451 14 OFFCURVE",
"497 58 CURVE SMOOTH",
"543 102 OFFCURVE",
"567 163 OFFCURVE",
"567 234 CURVE SMOOTH",
"567 303 OFFCURVE",
"543 360 OFFCURVE",
"504 398 CURVE SMOOTH",
"464 436 OFFCURVE",
"411 456 OFFCURVE",
"354 456 CURVE SMOOTH",
"311 456 OFFCURVE",
"278 445 OFFCURVE",
"253 426 CURVE SMOOTH",
"228 406 OFFCURVE",
"210 378 OFFCURVE",
"195 346 CURVE",
"186 346 LINE",
"202 567 LINE",
"525 567 LINE",
"525 698 LINE"
);
}
);
width = 600;
}
);
note = five;
unicode = 0035;
},
{
glyphname = six;
lastChange = "2019-02-04 10:45:10 +0000";
layers = (
{
layerId = "84CDBA37-3524-4FC2-9356-5581E3F2D06C";
paths = (
{
closed = 1;
nodes = (
"384 -12 OFFCURVE",
"451 13 OFFCURVE",
"497 57 CURVE SMOOTH",
"543 100 OFFCURVE",
"569 161 OFFCURVE",
"569 232 CURVE SMOOTH",
"569 299 OFFCURVE",
"546 353 OFFCURVE",
"510 391 CURVE SMOOTH",
"473 429 OFFCURVE",
"421 450 OFFCURVE",
"362 450 CURVE SMOOTH",
"317 450 OFFCURVE",
"283 437 OFFCURVE",
"258 418 CURVE SMOOTH",
"233 398 OFFCURVE",
"216 372 OFFCURVE",
"204 345 CURVE",
"195 348 LINE",
"210 416 OFFCURVE",
"242 473 OFFCURVE",
"294 529 CURVE SMOOTH",
"345 584 OFFCURVE",
"413 638 OFFCURVE",
"500 698 CURVE",
"293 698 LINE",
"233 658 OFFCURVE",
"169 599 OFFCURVE",
"121 525 CURVE SMOOTH",
"72 451 OFFCURVE",
"38 362 OFFCURVE",
"38 265 CURVE SMOOTH",
"38 181 OFFCURVE",
"63 112 OFFCURVE",
"108 64 CURVE SMOOTH",
"153 15 OFFCURVE",
"220 -12 OFFCURVE",
"304 -12 CURVE SMOOTH"
);
},
{
closed = 1;
nodes = (
"231 105 OFFCURVE",
"194 145 OFFCURVE",
"194 214 CURVE SMOOTH",
"194 228 LINE SMOOTH",
"194 297 OFFCURVE",
"235 335 OFFCURVE",
"303 335 CURVE SMOOTH",
"374 335 OFFCURVE",
"413 297 OFFCURVE",
"413 228 CURVE SMOOTH",
"413 214 LINE SMOOTH",
"413 145 OFFCURVE",
"375 105 OFFCURVE",
"303 105 CURVE SMOOTH"
);
}
);
width = 600;
}
);
note = six;
unicode = 0036;
},
{
glyphname = seven;
lastChange = "2019-02-04 10:45:10 +0000";
layers = (
{
layerId = "84CDBA37-3524-4FC2-9356-5581E3F2D06C";
paths = (
{
closed = 1;
nodes = (
"553 568 LINE",
"553 698 LINE",
"51 698 LINE",
"51 449 LINE",
"178 449 LINE",
"178 576 LINE",
"404 576 LINE",
"164 0 LINE",
"322 0 LINE"
);
}
);
width = 600;
}
);
note = seven;
unicode = 0037;
},
{
glyphname = eight;
lastChange = "2019-02-04 10:45:10 +0000";
layers = (
{
layerId = "84CDBA37-3524-4FC2-9356-5581E3F2D06C";
paths = (
{
closed = 1;
nodes = (
"384 -12 OFFCURVE",
"450 10 OFFCURVE",
"495 46 CURVE SMOOTH",
"540 82 OFFCURVE",
"564 133 OFFCURVE",
"564 192 CURVE SMOOTH",
"564 283 OFFCURVE",
"506 337 OFFCURVE",
"425 360 CURVE",
"425 368 LINE",
"494 393 OFFCURVE",
"543 445 OFFCURVE",
"543 526 CURVE SMOOTH",
"543 579 OFFCURVE",
"521 626 OFFCURVE",
"480 659 CURVE SMOOTH",
"439 691 OFFCURVE",
"377 710 OFFCURVE",
"300 710 CURVE SMOOTH",
"221 710 OFFCURVE",
"161 691 OFFCURVE",
"120 659 CURVE SMOOTH",
"79 626 OFFCURVE",
"57 579 OFFCURVE",
"57 526 CURVE SMOOTH",
"57 445 OFFCURVE",
"106 393 OFFCURVE",
"175 368 CURVE",
"175 360 LINE",
"94 337 OFFCURVE",
"36 283 OFFCURVE",
"36 192 CURVE SMOOTH",
"36 133 OFFCURVE",
"60 82 OFFCURVE",
"105 46 CURVE SMOOTH",
"150 10 OFFCURVE",
"216 -12 OFFCURVE",
"300 -12 CURVE SMOOTH"
);
},
{
closed = 1;
nodes = (
"231 103 OFFCURVE",
"193 137 OFFCURVE",
"193 192 CURVE SMOOTH",
"193 212 LINE SMOOTH",
"193 268 OFFCURVE",
"229 301 OFFCURVE",
"300 301 CURVE SMOOTH",
"371 301 OFFCURVE",
"407 268 OFFCURVE",
"407 212 CURVE SMOOTH",
"407 192 LINE SMOOTH",
"407 137 OFFCURVE",
"369 103 OFFCURVE",
"300 103 CURVE SMOOTH"
);
},
{
closed = 1;
nodes = (
"233 411 OFFCURVE",
"198 444 OFFCURVE",
"198 496 CURVE SMOOTH",
"198 511 LINE SMOOTH",
"198 563 OFFCURVE",
"235 595 OFFCURVE",
"300 595 CURVE SMOOTH",
"365 595 OFFCURVE",
"402 563 OFFCURVE",
"402 511 CURVE SMOOTH",
"402 496 LINE SMOOTH",
"402 444 OFFCURVE",
"367 411 OFFCURVE",
"300 411 CURVE SMOOTH"
);
}
);
width = 600;
}
);
note = eight;
unicode = 0038;
},
{
glyphname = nine;
lastChange = "2019-02-04 10:45:10 +0000";
layers = (
{
layerId = "84CDBA37-3524-4FC2-9356-5581E3F2D06C";
paths = (
{
closed = 1;
nodes = (
"562 517 OFFCURVE",
"537 586 OFFCURVE",
"492 635 CURVE SMOOTH",
"447 683 OFFCURVE",
"380 710 OFFCURVE",
"296 710 CURVE SMOOTH",
"216 710 OFFCURVE",
"150 685 OFFCURVE",
"104 642 CURVE SMOOTH",
"58 598 OFFCURVE",
"31 537 OFFCURVE",
"31 466 CURVE SMOOTH",
"31 399 OFFCURVE",
"54 346 OFFCURVE",
"91 308 CURVE SMOOTH",
"127 270 OFFCURVE",
"179 248 OFFCURVE",
"238 248 CURVE SMOOTH",
"283 248 OFFCURVE",
"317 261 OFFCURVE",
"342 281 CURVE SMOOTH",
"366 300 OFFCURVE",
"384 326 OFFCURVE",
"396 353 CURVE",
"405 350 LINE",
"390 282 OFFCURVE",
"358 225 OFFCURVE",
"307 170 CURVE SMOOTH",
"255 114 OFFCURVE",
"187 60 OFFCURVE",
"100 0 CURVE",
"307 0 LINE",
"367 40 OFFCURVE",
"431 100 OFFCURVE",
"480 174 CURVE SMOOTH",
"528 248 OFFCURVE",
"562 334 OFFCURVE",
"562 433 CURVE SMOOTH"
);
},
{
closed = 1;
nodes = (
"226 363 OFFCURVE",
"187 401 OFFCURVE",
"187 470 CURVE SMOOTH",
"187 484 LINE SMOOTH",
"187 553 OFFCURVE",
"225 593 OFFCURVE",
"297 593 CURVE SMOOTH",
"369 593 OFFCURVE",
"406 553 OFFCURVE",
"406 484 CURVE SMOOTH",
"406 470 LINE SMOOTH",
"406 401 OFFCURVE",
"365 363 OFFCURVE",
"297 363 CURVE SMOOTH"
);
}
);
width = 600;
}
);
note = nine;
unicode = 0039;
},
{
glyphname = ampersand;
lastChange = "2019-02-04 10:45:10 +0000";
layers = (
{
layerId = "84CDBA37-3524-4FC2-9356-5581E3F2D06C";
paths = (
{
closed = 1;
nodes = (
"290 -12 OFFCURVE",
"345 29 OFFCURVE",
"354 97 CURVE",
"361 97 LINE",
"441 0 LINE",
"599 0 LINE",
"469 158 LINE",
"490 205 OFFCURVE",
"503 249 OFFCURVE",
"510 292 CURVE",
"580 292 LINE",
"580 402 LINE",
"402 402 LINE",
"402 379 OFFCURVE",
"402 351 OFFCURVE",
"400 323 CURVE SMOOTH",
"398 294 OFFCURVE",
"395 266 OFFCURVE",
"391 243 CURVE",
"385 243 LINE",
"337 317 LINE",
"280 389 LINE SMOOTH",
"248 429 OFFCURVE",
"228 455 OFFCURVE",
"215 476 CURVE SMOOTH",
"202 496 OFFCURVE",
"197 511 OFFCURVE",
"197 530 CURVE SMOOTH",
"197 535 LINE SMOOTH",
"197 574 OFFCURVE",
"224 600 OFFCURVE",
"264 600 CURVE SMOOTH",
"304 600 OFFCURVE",
"336 574 OFFCURVE",
"351 531 CURVE",
"453 586 LINE",
"442 618 OFFCURVE",
"420 649 OFFCURVE",
"388 672 CURVE SMOOTH",
"355 695 OFFCURVE",
"311 710 OFFCURVE",
"262 710 CURVE SMOOTH",
"206 710 OFFCURVE",
"158 691 OFFCURVE",
"123 660 CURVE SMOOTH",
"87 628 OFFCURVE",
"67 583 OFFCURVE",
"67 534 CURVE SMOOTH",
"67 483 OFFCURVE",
"89 441 OFFCURVE",
"132 381 CURVE",
"55 336 OFFCURVE",
"14 274 OFFCURVE",
"14 190 CURVE SMOOTH",
"14 135 OFFCURVE",
"31 85 OFFCURVE",
"64 49 CURVE SMOOTH",
"96 12 OFFCURVE",
"144 -12 OFFCURVE",
"207 -12 CURVE SMOOTH"
);
},
{
closed = 1;
nodes = (
"187 101 OFFCURVE",
"150 134 OFFCURVE",
"150 198 CURVE SMOOTH",
"150 200 LINE SMOOTH",
"150 239 OFFCURVE",
"157 272 OFFCURVE",
"192 305 CURVE",
"321 141 LINE",
"302 110 OFFCURVE",
"275 101 OFFCURVE",
"244 101 CURVE SMOOTH"
);
}
);
width = 600;
}
);
note = ampersand;
unicode = 0026;
},
{
glyphname = at;
lastChange = "2019-02-04 10:45:10 +0000";
layers = (
{
layerId = "84CDBA37-3524-4FC2-9356-5581E3F2D06C";
paths = (
{
closed = 1;
nodes = (
"341 -17 LINE SMOOTH",
"272 -17 OFFCURVE",
"225 6 OFFCURVE",
"194 48 CURVE SMOOTH",
"163 90 OFFCURVE",
"150 152 OFFCURVE",
"150 229 CURVE SMOOTH",
"150 358 LINE SMOOTH",
"150 458 OFFCURVE",
"164 523 OFFCURVE",
"192 562 CURVE SMOOTH",
"219 601 OFFCURVE",
"258 615 OFFCURVE",
"307 615 CURVE SMOOTH",
"348 615 OFFCURVE",
"383 605 OFFCURVE",
"408 581 CURVE SMOOTH",
"432 557 OFFCURVE",
"446 519 OFFCURVE",
"446 463 CURVE SMOOTH",
"446 436 LINE",
"439 436 LINE",
"424 485 OFFCURVE",
"392 509 OFFCURVE",
"345 509 CURVE SMOOTH",
"266 509 OFFCURVE",
"221 443 OFFCURVE",
"221 294 CURVE SMOOTH",
"221 145 OFFCURVE",
"266 79 OFFCURVE",
"345 79 CURVE SMOOTH",
"392 79 OFFCURVE",
"424 103 OFFCURVE",
"439 152 CURVE",
"446 152 LINE",
"446 91 LINE",
"553 91 LINE",
"553 463 LINE SMOOTH",
"553 532 OFFCURVE",
"533 594 OFFCURVE",
"492 639 CURVE SMOOTH",
"451 683 OFFCURVE",
"388 710 OFFCURVE",
"301 710 CURVE SMOOTH",
"217 710 OFFCURVE",
"151 685 OFFCURVE",
"107 622 CURVE SMOOTH",
"62 558 OFFCURVE",
"38 457 OFFCURVE",
"38 305 CURVE SMOOTH",
"38 165 OFFCURVE",
"58 60 OFFCURVE",
"106 -9 CURVE SMOOTH",
"154 -78 OFFCURVE",
"230 -113 OFFCURVE",
"341 -113 CURVE SMOOTH",
"446 -113 LINE",
"446 -17 LINE"
);
},
{
closed = 1;
nodes = (
"353 165 OFFCURVE",
"333 186 OFFCURVE",
"333 261 CURVE SMOOTH",
"333 327 LINE SMOOTH",
"333 402 OFFCURVE",
"353 423 OFFCURVE",
"389 423 CURVE SMOOTH",
"426 423 OFFCURVE",
"446 400 OFFCURVE",
"446 364 CURVE SMOOTH",
"446 224 LINE SMOOTH",
"446 188 OFFCURVE",
"426 165 OFFCURVE",
"389 165 CURVE SMOOTH"
);
}
);
width = 600;
}
);
note = at;
unicode = 0040;
},
{
glyphname = hyphen;
lastChange = "2019-02-04 10:45:10 +0000";
layers = (
{
layerId = "84CDBA37-3524-4FC2-9356-5581E3F2D06C";
paths = (
{
closed = 1;
nodes = (
"460 376 LINE",
"140 376 LINE",
"140 234 LINE",
"460 234 LINE"
);
}
);
width = 600;
}
);
note = hyphen;
unicode = 002D;
},
{
glyphname = endash;
lastChange = "2019-02-04 10:45:10 +0000";
layers = (
{
layerId = "84CDBA37-3524-4FC2-9356-5581E3F2D06C";
paths = (
{
closed = 1;
nodes = (
"540 365 LINE",
"60 365 LINE",
"60 244 LINE",
"540 244 LINE"
);
}
);
width = 600;
}
);
note = endash;
unicode = 2013;
},
{
glyphname = emdash;
lastChange = "2019-02-04 10:45:10 +0000";
layers = (
{
layerId = "84CDBA37-3524-4FC2-9356-5581E3F2D06C";
paths = (
{
closed = 1;
nodes = (
"600 365 LINE",
"0 365 LINE",
"0 244 LINE",
"600 244 LINE"
);
}
);
width = 600;
}
);
note = emdash;
unicode = 2014;
},
{
glyphname = underscore;
lastChange = "2019-02-04 10:45:10 +0000";
layers = (
{
layerId = "84CDBA37-3524-4FC2-9356-5581E3F2D06C";
paths = (
{
closed = 1;
nodes = (
"540 -71 LINE",
"60 -71 LINE",
"60 -192 LINE",
"540 -192 LINE"
);
}
);
width = 600;
}
);
note = underscore;
unicode = 005F;
},
{
glyphname = period;
lastChange = "2019-02-04 10:45:10 +0000";
layers = (
{
layerId = "84CDBA37-3524-4FC2-9356-5581E3F2D06C";
paths = (
{
closed = 1;
nodes = (
"375 -12 OFFCURVE",
"405 26 OFFCURVE",
"405 71 CURVE SMOOTH",
"405 106 LINE SMOOTH",
"405 151 OFFCURVE",
"375 189 OFFCURVE",
"300 189 CURVE SMOOTH",
"225 189 OFFCURVE",
"195 151 OFFCURVE",
"195 106 CURVE SMOOTH",
"195 71 LINE SMOOTH",
"195 26 OFFCURVE",
"225 -12 OFFCURVE",
"300 -12 CURVE SMOOTH"
);
}
);
width = 600;
}
);
note = period;
unicode = 002E;
},
{
glyphname = ellipsis;
lastChange = "2019-02-04 10:45:10 +0000";
layers = (
{
layerId = "84CDBA37-3524-4FC2-9356-5581E3F2D06C";
paths = (
{
closed = 1;
nodes = (
"150 -7 OFFCURVE",
"174 18 OFFCURVE",
"174 47 CURVE SMOOTH",
"174 93 LINE SMOOTH",
"174 122 OFFCURVE",
"150 147 OFFCURVE",
"102 147 CURVE SMOOTH",
"51 147 OFFCURVE",
"29 122 OFFCURVE",
"29 93 CURVE SMOOTH",
"29 47 LINE SMOOTH",
"29 18 OFFCURVE",
"51 -7 OFFCURVE",
"102 -7 CURVE SMOOTH"
);
},
{
closed = 1;
nodes = (
"349 -7 OFFCURVE",
"373 18 OFFCURVE",
"373 47 CURVE SMOOTH",
"373 93 LINE SMOOTH",
"373 122 OFFCURVE",
"349 147 OFFCURVE",
"300 147 CURVE SMOOTH",
"251 147 OFFCURVE",
"227 122 OFFCURVE",
"227 93 CURVE SMOOTH",
"227 47 LINE SMOOTH",
"227 18 OFFCURVE",
"251 -7 OFFCURVE",
"300 -7 CURVE SMOOTH"
);
},
{
closed = 1;
nodes = (
"547 -7 OFFCURVE",
"571 18 OFFCURVE",
"571 47 CURVE SMOOTH",
"571 93 LINE SMOOTH",
"571 122 OFFCURVE",
"547 147 OFFCURVE",
"498 147 CURVE SMOOTH",
"450 147 OFFCURVE",
"426 122 OFFCURVE",
"426 93 CURVE SMOOTH",
"426 47 LINE SMOOTH",
"426 18 OFFCURVE",
"450 -7 OFFCURVE",
"498 -7 CURVE SMOOTH"
);
}
);
width = 600;
}
);
note = ellipsis;
unicode = 2026;
},
{
glyphname = comma;
lastChange = "2019-02-04 10:45:10 +0000";
layers = (
{
layerId = "84CDBA37-3524-4FC2-9356-5581E3F2D06C";
paths = (
{
closed = 1;
nodes = (
"280 -151 LINE",
"417 174 LINE",
"227 174 LINE",
"170 -151 LINE"
);
}
);
width = 600;
}
);
note = comma;
unicode = 002C;
},
{
glyphname = quotesingle;
lastChange = "2019-02-04 10:45:10 +0000";
layers = (
{
layerId = "84CDBA37-3524-4FC2-9356-5581E3F2D06C";
paths = (
{
closed = 1;
nodes = (
"366 740 LINE",
"234 740 LINE",
"234 414 LINE",
"366 414 LINE"
);
}
);
width = 600;
}
);
note = quotesingle;
unicode = 0027;
},
{
glyphname = quoteleft;
lastChange = "2019-02-04 10:45:10 +0000";
layers = (
{
layerId = "84CDBA37-3524-4FC2-9356-5581E3F2D06C";
paths = (
{
closed = 1;
nodes = (
"352 414 LINE",
"409 740 LINE",
"300 740 LINE",
"162 414 LINE"
);
}
);
width = 600;
}
);
note = quoteleft;
unicode = 2018;
},
{
glyphname = quoteright;
lastChange = "2019-02-04 10:45:10 +0000";
layers = (
{
layerId = "84CDBA37-3524-4FC2-9356-5581E3F2D06C";
paths = (
{
closed = 1;
nodes = (
"300 414 LINE",
"438 740 LINE",
"248 740 LINE",
"191 414 LINE"
);
}
);
width = 600;
}
);
note = quoteright;
unicode = 2019;
},
{
glyphname = quotesinglbase;
lastChange = "2019-02-04 10:45:10 +0000";
layers = (
{
layerId = "84CDBA37-3524-4FC2-9356-5581E3F2D06C";
paths = (
{
closed = 1;
nodes = (
"280 -151 LINE",
"417 174 LINE",
"227 174 LINE",
"170 -151 LINE"
);
}
);
width = 600;
}
);
note = quotesinglbase;
unicode = 201A;
},
{
glyphname = guilsinglleft;
lastChange = "2019-02-04 10:45:10 +0000";
layers = (
{
layerId = "84CDBA37-3524-4FC2-9356-5581E3F2D06C";
paths = (
{
closed = 1;
nodes = (
"288 272 LINE",
"418 410 LINE",
"373 506 LINE",
"173 338 LINE",
"173 206 LINE",
"373 38 LINE",
"418 133 LINE"
);
}
);
width = 600;
}
);
note = guilsinglleft;
unicode = 2039;
},
{
glyphname = guilsinglright;
lastChange = "2019-02-04 10:45:10 +0000";
layers = (
{
layerId = "84CDBA37-3524-4FC2-9356-5581E3F2D06C";
paths = (
{
closed = 1;
nodes = (
"427 206 LINE",
"427 338 LINE",
"227 506 LINE",
"182 410 LINE",
"312 272 LINE",
"182 133 LINE",
"227 38 LINE"
);
}
);
width = 600;
}
);
note = guilsinglright;
unicode = 203A;
},
{
glyphname = exclamdown;
lastChange = "2019-02-04 10:45:10 +0000";
layers = (
{
layerId = "84CDBA37-3524-4FC2-9356-5581E3F2D06C";
paths = (
{
closed = 1;
nodes = (
"381 21 LINE",
"324 273 LINE",
"276 273 LINE",
"219 21 LINE",
"219 -182 LINE",
"381 -182 LINE"
);
},
{
closed = 1;
nodes = (
"371 341 OFFCURVE",
"398 375 OFFCURVE",
"398 418 CURVE SMOOTH",
"398 450 LINE SMOOTH",
"398 493 OFFCURVE",
"372 528 OFFCURVE",
"300 528 CURVE SMOOTH",
"228 528 OFFCURVE",
"202 493 OFFCURVE",
"202 450 CURVE SMOOTH",
"202 418 LINE SMOOTH",
"202 375 OFFCURVE",
"229 341 OFFCURVE",
"300 341 CURVE SMOOTH"
);
}
);
width = 600;
}
);
note = exclamdown;
unicode = 00A1;
},
{
glyphname = exclam;
lastChange = "2019-02-04 10:45:10 +0000";
layers = (
{
layerId = "84CDBA37-3524-4FC2-9356-5581E3F2D06C";
paths = (
{
closed = 1;
nodes = (
"381 495 LINE",
"381 698 LINE",
"219 698 LINE",
"219 495 LINE",
"276 243 LINE",
"324 243 LINE"
);
},
{
closed = 1;
nodes = (
"372 -12 OFFCURVE",
"398 23 OFFCURVE",
"398 66 CURVE SMOOTH",
"398 98 LINE SMOOTH",
"398 139 OFFCURVE",
"371 175 OFFCURVE",
"300 175 CURVE SMOOTH",
"229 175 OFFCURVE",
"202 139 OFFCURVE",
"202 98 CURVE SMOOTH",
"202 66 LINE SMOOTH",
"202 23 OFFCURVE",
"228 -12 OFFCURVE",
"300 -12 CURVE SMOOTH"
);
}
);
width = 600;
}
);
note = exclam;
unicode = 0021;
},
{
glyphname = questiondown;
lastChange = "2019-02-04 10:45:10 +0000";
layers = (
{
layerId = "84CDBA37-3524-4FC2-9356-5581E3F2D06C";
paths = (
{
closed = 1;
nodes = (
"378 -194 OFFCURVE",
"430 -174 OFFCURVE",
"467 -144 CURVE SMOOTH",
"504 -114 OFFCURVE",
"527 -74 OFFCURVE",
"539 -34 CURVE",
"417 17 LINE",
"404 -34 OFFCURVE",
"369 -68 OFFCURVE",
"314 -68 CURVE SMOOTH",
"266 -68 OFFCURVE",
"229 -46 OFFCURVE",
"229 10 CURVE SMOOTH",
"229 24 LINE SMOOTH",
"229 100 OFFCURVE",
"292 126 OFFCURVE",
"392 130 CURVE",
"392 283 LINE",
"252 283 LINE",
"252 211 LINE",
"204 203 OFFCURVE",
"159 182 OFFCURVE",
"127 148 CURVE SMOOTH",
"94 114 OFFCURVE",
"73 67 OFFCURVE",
"73 11 CURVE SMOOTH",
"73 -49 OFFCURVE",
"97 -101 OFFCURVE",
"138 -137 CURVE SMOOTH",
"179 -173 OFFCURVE",
"238 -194 OFFCURVE",
"309 -194 CURVE SMOOTH"
);
},
{
closed = 1;
nodes = (
"391 341 OFFCURVE",
"418 375 OFFCURVE",
"418 418 CURVE SMOOTH",
"418 450 LINE SMOOTH",
"418 493 OFFCURVE",
"391 528 OFFCURVE",
"320 528 CURVE SMOOTH",
"248 528 OFFCURVE",
"221 493 OFFCURVE",
"221 450 CURVE SMOOTH",
"221 418 LINE SMOOTH",
"221 375 OFFCURVE",
"249 341 OFFCURVE",
"320 341 CURVE SMOOTH"
);
}
);
width = 600;
}
);
note = questiondown;
unicode = 00BF;
},
{
glyphname = question;
lastChange = "2019-02-04 10:45:10 +0000";
layers = (
{
layerId = "84CDBA37-3524-4FC2-9356-5581E3F2D06C";
paths = (
{
closed = 1;
nodes = (
"348 305 LINE",
"396 313 OFFCURVE",
"441 335 OFFCURVE",
"474 369 CURVE SMOOTH",
"506 403 OFFCURVE",
"527 449 OFFCURVE",
"527 505 CURVE SMOOTH",
"527 565 OFFCURVE",
"503 617 OFFCURVE",
"462 653 CURVE SMOOTH",
"421 689 OFFCURVE",
"362 710 OFFCURVE",
"291 710 CURVE SMOOTH",
"222 710 OFFCURVE",
"170 690 OFFCURVE",
"133 660 CURVE SMOOTH",
"96 630 OFFCURVE",
"73 590 OFFCURVE",
"61 550 CURVE",
"183 499 LINE",
"196 550 OFFCURVE",
"231 584 OFFCURVE",
"286 584 CURVE SMOOTH",
"334 584 OFFCURVE",
"371 562 OFFCURVE",
"371 506 CURVE SMOOTH",
"371 492 LINE SMOOTH",
"371 416 OFFCURVE",
"308 390 OFFCURVE",
"208 386 CURVE",
"208 233 LINE",
"348 233 LINE"
);
},
{
closed = 1;
nodes = (
"352 -12 OFFCURVE",
"379 23 OFFCURVE",
"379 66 CURVE SMOOTH",
"379 98 LINE SMOOTH",
"379 139 OFFCURVE",
"351 175 OFFCURVE",
"280 175 CURVE SMOOTH",
"209 175 OFFCURVE",
"182 141 OFFCURVE",
"182 98 CURVE SMOOTH",
"182 66 LINE SMOOTH",
"182 23 OFFCURVE",
"209 -12 OFFCURVE",
"280 -12 CURVE SMOOTH"
);
}
);
width = 600;
}
);
note = question;
unicode = 003F;
},
{
glyphname = parenleft;
lastChange = "2019-02-04 10:45:10 +0000";
layers = (
{
layerId = "84CDBA37-3524-4FC2-9356-5581E3F2D06C";
paths = (
{
closed = 1;
nodes = (
"174 214 OFFCURVE",
"198 122 OFFCURVE",
"236 45 CURVE SMOOTH",
"274 -32 OFFCURVE",
"326 -97 OFFCURVE",
"382 -138 CURVE",
"530 -138 LINE",
"467 -95 OFFCURVE",
"410 -38 OFFCURVE",
"368 30 CURVE SMOOTH",
"326 98 OFFCURVE",
"298 176 OFFCURVE",
"298 260 CURVE SMOOTH",
"298 362 LINE SMOOTH",
"298 446 OFFCURVE",
"326 524 OFFCURVE",
"368 592 CURVE SMOOTH",
"410 660 OFFCURVE",
"467 717 OFFCURVE",
"530 760 CURVE",
"382 760 LINE",
"326 717 OFFCURVE",
"274 654 OFFCURVE",
"236 577 CURVE SMOOTH",
"198 500 OFFCURVE",
"174 408 OFFCURVE",
"174 311 CURVE SMOOTH"
);
}
);
width = 600;
}
);
note = parenleft;
unicode = 0028;
},
{
glyphname = parenright;
lastChange = "2019-02-04 10:45:10 +0000";
layers = (
{
layerId = "84CDBA37-3524-4FC2-9356-5581E3F2D06C";
paths = (
{
closed = 1;
nodes = (
"426 408 OFFCURVE",
"403 500 OFFCURVE",
"365 577 CURVE SMOOTH",
"327 654 OFFCURVE",
"274 717 OFFCURVE",
"218 760 CURVE",
"70 760 LINE",
"131 717 OFFCURVE",
"191 660 OFFCURVE",
"233 592 CURVE SMOOTH",
"275 524 OFFCURVE",
"302 446 OFFCURVE",
"302 362 CURVE SMOOTH",
"302 260 LINE SMOOTH",
"302 176 OFFCURVE",
"275 98 OFFCURVE",
"233 30 CURVE SMOOTH",
"191 -38 OFFCURVE",
"131 -95 OFFCURVE",
"70 -138 CURVE",
"218 -138 LINE",
"274 -97 OFFCURVE",
"327 -32 OFFCURVE",
"365 45 CURVE SMOOTH",
"403 122 OFFCURVE",
"426 214 OFFCURVE",
"426 311 CURVE SMOOTH"
);
}
);
width = 600;
}
);
note = parenright;
unicode = 0029;
},
{
glyphname = bracketleft;
lastChange = "2019-02-04 10:45:10 +0000";
layers = (
{
layerId = "84CDBA37-3524-4FC2-9356-5581E3F2D06C";
paths = (
{
closed = 1;
nodes = (
"507 -39 LINE",
"302 -39 LINE",
"302 661 LINE",
"507 661 LINE",
"507 760 LINE",
"183 760 LINE",
"183 -138 LINE",
"507 -138 LINE"
);
}
);
width = 600;
}
);
note = bracketleft;
unicode = 005B;
},
{
glyphname = bracketright;
lastChange = "2019-02-04 10:45:10 +0000";
layers = (
{
layerId = "84CDBA37-3524-4FC2-9356-5581E3F2D06C";
paths = (
{
closed = 1;
nodes = (
"93 661 LINE",
"298 661 LINE",
"298 -39 LINE",
"93 -39 LINE",
"93 -138 LINE",
"417 -138 LINE",
"417 760 LINE",
"93 760 LINE"
);
}
);
width = 600;
}
);
note = bracketright;
unicode = 005D;
},
{
glyphname = braceleft;
lastChange = "2019-02-04 10:45:10 +0000";
layers = (
{
layerId = "84CDBA37-3524-4FC2-9356-5581E3F2D06C";
paths = (
{
closed = 1;
nodes = (
"508 -39 LINE",
"323 -39 LINE",
"323 9 LINE SMOOTH",
"323 60 OFFCURVE",
"343 80 OFFCURVE",
"363 107 CURVE",
"386 135 OFFCURVE",
"410 165 OFFCURVE",
"410 208 CURVE SMOOTH",
"410 264 OFFCURVE",
"372 298 OFFCURVE",
"292 307 CURVE",
"292 315 LINE",
"372 324 OFFCURVE",
"410 358 OFFCURVE",
"410 414 CURVE SMOOTH",
"410 457 OFFCURVE",
"386 487 OFFCURVE",
"363 515 CURVE",
"343 542 OFFCURVE",
"323 562 OFFCURVE",
"323 613 CURVE SMOOTH",
"323 661 LINE",
"508 661 LINE",
"508 760 LINE",
"330 760 LINE SMOOTH",
"239 760 OFFCURVE",
"204 715 OFFCURVE",
"204 652 CURVE SMOOTH",
"204 607 LINE SMOOTH",
"204 574 OFFCURVE",
"212 549 OFFCURVE",
"223 529 CURVE SMOOTH",
"234 509 OFFCURVE",
"248 493 OFFCURVE",
"260 480 CURVE",
"283 453 OFFCURVE",
"290 436 OFFCURVE",
"290 415 CURVE SMOOTH",
"290 380 OFFCURVE",
"254 361 OFFCURVE",
"182 361 CURVE SMOOTH",
"92 361 LINE",
"92 261 LINE",
"182 261 LINE SMOOTH",
"254 261 OFFCURVE",
"290 242 OFFCURVE",
"290 207 CURVE SMOOTH",
"290 196 OFFCURVE",
"288 186 OFFCURVE",
"284 177 CURVE SMOOTH",
"275 157 OFFCURVE",
"254 135 OFFCURVE",
"241 120 CURVE SMOOTH",
"234 112 OFFCURVE",
"228 103 OFFCURVE",
"223 93 CURVE",
"212 73 OFFCURVE",
"204 48 OFFCURVE",
"204 15 CURVE SMOOTH",
"204 -30 LINE SMOOTH",
"204 -93 OFFCURVE",
"239 -138 OFFCURVE",
"330 -138 CURVE SMOOTH",
"508 -138 LINE"
);
}
);
width = 600;
}
);
note = braceleft;
unicode = 007B;
},
{
glyphname = braceright;
lastChange = "2019-02-04 10:45:10 +0000";
layers = (
{
layerId = "84CDBA37-3524-4FC2-9356-5581E3F2D06C";
paths = (
{
closed = 1;
nodes = (
"92 661 LINE",
"277 661 LINE",
"277 613 LINE SMOOTH",
"277 562 OFFCURVE",
"257 542 OFFCURVE",
"237 515 CURVE",
"214 487 OFFCURVE",
"190 457 OFFCURVE",
"190 414 CURVE SMOOTH",
"190 358 OFFCURVE",
"228 324 OFFCURVE",
"308 315 CURVE",
"308 307 LINE",
"228 298 OFFCURVE",
"190 264 OFFCURVE",
"190 208 CURVE SMOOTH",
"190 165 OFFCURVE",
"214 135 OFFCURVE",
"237 107 CURVE",
"257 80 OFFCURVE",
"277 60 OFFCURVE",
"277 9 CURVE SMOOTH",
"277 -39 LINE",
"92 -39 LINE",
"92 -138 LINE",
"270 -138 LINE SMOOTH",
"361 -138 OFFCURVE",
"396 -93 OFFCURVE",
"396 -30 CURVE SMOOTH",
"396 15 LINE SMOOTH",
"396 32 OFFCURVE",
"394 46 OFFCURVE",
"391 59 CURVE",
"383 84 OFFCURVE",
"372 104 OFFCURVE",
"359 120 CURVE",
"352 127 OFFCURVE",
"346 135 OFFCURVE",
"340 142 CURVE SMOOTH",
"317 169 OFFCURVE",
"310 186 OFFCURVE",
"310 207 CURVE SMOOTH",
"310 242 OFFCURVE",
"346 261 OFFCURVE",
"418 261 CURVE SMOOTH",
"508 261 LINE",
"508 361 LINE",
"418 361 LINE SMOOTH",
"346 361 OFFCURVE",
"310 380 OFFCURVE",
"310 415 CURVE SMOOTH",
"310 436 OFFCURVE",
"317 453 OFFCURVE",
"340 480 CURVE",
"352 493 OFFCURVE",
"366 509 OFFCURVE",
"377 529 CURVE SMOOTH",
"388 549 OFFCURVE",
"396 574 OFFCURVE",
"396 607 CURVE SMOOTH",
"396 652 LINE SMOOTH",
"396 715 OFFCURVE",
"361 760 OFFCURVE",
"270 760 CURVE SMOOTH",
"92 760 LINE"
);
}
);
width = 600;
}
);
note = braceright;
unicode = 007D;
},
{
glyphname = slash;
lastChange = "2019-02-04 10:45:10 +0000";
layers = (
{
layerId = "84CDBA37-3524-4FC2-9356-5581E3F2D06C";
paths = (
{
closed = 1;
nodes = (
"527 760 LINE",
"394 760 LINE",
"73 -138 LINE",
"206 -138 LINE"
);
}
);
width = 600;
}
);
note = slash;
unicode = 002F;
},
{
glyphname = backslash;
lastChange = "2019-02-04 10:45:10 +0000";
layers = (
{
layerId = "84CDBA37-3524-4FC2-9356-5581E3F2D06C";
paths = (
{
closed = 1;
nodes = (
"206 760 LINE",
"73 760 LINE",
"394 -138 LINE",
"527 -138 LINE"
);
}
);
width = 600;
}
);
note = backslash;
unicode = 005C;
},
{
glyphname = fraction;
lastChange = "2019-02-04 10:45:10 +0000";
layers = (
{
layerId = "84CDBA37-3524-4FC2-9356-5581E3F2D06C";
paths = (
{
closed = 1;
nodes = (
"426 398 LINE",
"599 698 LINE",
"496 698 LINE",
"323 398 LINE"
);
},
{
closed = 1;
nodes = (
"104 0 LINE",
"277 300 LINE",
"174 300 LINE",
"1 0 LINE"
);
}
);
width = 600;
}
);
note = fraction;
unicode = 2044;
},
{
glyphname = percent;
lastChange = "2019-02-04 10:45:10 +0000";
layers = (
{
layerId = "84CDBA37-3524-4FC2-9356-5581E3F2D06C";
paths = (
{
closed = 1;
nodes = (
"265 338 OFFCURVE",
"322 408 OFFCURVE",
"322 524 CURVE SMOOTH",
"322 640 OFFCURVE",
"265 710 OFFCURVE",
"165 710 CURVE SMOOTH",
"65 710 OFFCURVE",
"8 640 OFFCURVE",
"8 524 CURVE SMOOTH",
"8 408 OFFCURVE",
"65 338 OFFCURVE",
"165 338 CURVE SMOOTH"
);
},
{
closed = 1;
nodes = (
"126 425 OFFCURVE",
"113 455 OFFCURVE",
"113 502 CURVE SMOOTH",
"113 546 LINE SMOOTH",
"113 593 OFFCURVE",
"126 623 OFFCURVE",
"165 623 CURVE SMOOTH",
"204 623 OFFCURVE",
"217 593 OFFCURVE",
"217 546 CURVE SMOOTH",
"217 502 LINE SMOOTH",
"217 455 OFFCURVE",
"204 425 OFFCURVE",
"165 425 CURVE SMOOTH"
);
},
{
closed = 1;
nodes = (
"447 398 LINE",
"598 698 LINE",
"485 698 LINE",
"334 398 LINE"
);
},
{
closed = 1;
nodes = (
"115 0 LINE",
"266 300 LINE",
"153 300 LINE",
"2 0 LINE"
);
},
{
closed = 1;
nodes = (
"536 -12 OFFCURVE",
"593 58 OFFCURVE",
"593 174 CURVE SMOOTH",
"593 290 OFFCURVE",
"536 360 OFFCURVE",
"436 360 CURVE SMOOTH",
"336 360 OFFCURVE",
"279 290 OFFCURVE",
"279 174 CURVE SMOOTH",
"279 58 OFFCURVE",
"336 -12 OFFCURVE",
"436 -12 CURVE SMOOTH"
);
},
{
closed = 1;
nodes = (
"397 75 OFFCURVE",
"384 105 OFFCURVE",
"384 152 CURVE SMOOTH",
"384 196 LINE SMOOTH",
"384 243 OFFCURVE",
"397 273 OFFCURVE",
"436 273 CURVE SMOOTH",
"475 273 OFFCURVE",
"488 243 OFFCURVE",
"488 196 CURVE SMOOTH",
"488 152 LINE SMOOTH",
"488 105 OFFCURVE",
"475 75 OFFCURVE",
"436 75 CURVE SMOOTH"
);
}
);
width = 600;
}
);
note = percent;
unicode = 0025;
},
{
glyphname = perthousand;
lastChange = "2019-02-04 10:45:10 +0000";
layers = (
{
layerId = "84CDBA37-3524-4FC2-9356-5581E3F2D06C";
paths = (
{
closed = 1;
nodes = (
"244 400 OFFCURVE",
"296 462 OFFCURVE",
"296 555 CURVE SMOOTH",
"296 650 OFFCURVE",
"244 710 OFFCURVE",
"148 710 CURVE SMOOTH",
"52 710 OFFCURVE",
"0 650 OFFCURVE",
"0 555 CURVE SMOOTH",
"0 462 OFFCURVE",
"52 400 OFFCURVE",
"148 400 CURVE SMOOTH"
);
},
{
closed = 1;
nodes = (
"116 479 OFFCURVE",
"98 507 OFFCURVE",
"98 539 CURVE SMOOTH",
"98 571 LINE SMOOTH",
"98 603 OFFCURVE",
"116 631 OFFCURVE",
"148 631 CURVE SMOOTH",
"180 631 OFFCURVE",
"198 603 OFFCURVE",
"198 571 CURVE SMOOTH",
"198 539 LINE SMOOTH",
"198 507 OFFCURVE",
"180 479 OFFCURVE",
"148 479 CURVE SMOOTH"
);
},
{
closed = 1;
nodes = (
"541 418 LINE",
"521 485 LINE",
"59 343 LINE",
"79 276 LINE"
);
},
{
closed = 1;
nodes = (
"293 -12 OFFCURVE",
"328 6 OFFCURVE",
"349 33 CURVE",
"357 33 LINE",
"378 5 OFFCURVE",
"411 -12 OFFCURVE",
"454 -12 CURVE SMOOTH",
"545 -12 OFFCURVE",
"600 48 OFFCURVE",
"600 143 CURVE SMOOTH",
"600 236 OFFCURVE",
"546 298 OFFCURVE",
"454 298 CURVE SMOOTH",
"413 298 OFFCURVE",
"378 280 OFFCURVE",
"357 253 CURVE",
"349 253 LINE",
"328 281 OFFCURVE",
"295 298 OFFCURVE",
"252 298 CURVE SMOOTH",
"161 298 OFFCURVE",
"106 238 OFFCURVE",
"106 143 CURVE SMOOTH",
"106 50 OFFCURVE",
"160 -12 OFFCURVE",
"252 -12 CURVE SMOOTH"
);
},
{
closed = 1;
nodes = (
"222 67 OFFCURVE",
"204 95 OFFCURVE",
"204 127 CURVE SMOOTH",
"204 159 LINE SMOOTH",
"204 191 OFFCURVE",
"222 219 OFFCURVE",
"254 219 CURVE SMOOTH",
"286 219 OFFCURVE",
"304 191 OFFCURVE",
"304 159 CURVE SMOOTH",
"304 127 LINE SMOOTH",
"304 95 OFFCURVE",
"286 67 OFFCURVE",
"254 67 CURVE SMOOTH"
);
},
{
closed = 1;
nodes = (
"420 67 OFFCURVE",
"402 95 OFFCURVE",
"402 127 CURVE SMOOTH",
"402 159 LINE SMOOTH",
"402 191 OFFCURVE",
"420 219 OFFCURVE",
"452 219 CURVE SMOOTH",
"484 219 OFFCURVE",
"502 191 OFFCURVE",
"502 159 CURVE SMOOTH",
"502 127 LINE SMOOTH",
"502 95 OFFCURVE",
"484 67 OFFCURVE",
"452 67 CURVE SMOOTH"
);
}
);
width = 600;
}
);
note = perthousand;
unicode = 2030;
},
{
glyphname = bar;
lastChange = "2019-02-04 10:45:10 +0000";
layers = (
{
layerId = "84CDBA37-3524-4FC2-9356-5581E3F2D06C";
paths = (
{
closed = 1;
nodes = (
"363 760 LINE",
"237 760 LINE",
"237 -138 LINE",
"363 -138 LINE"
);
}
);
width = 600;
}
);
note = bar;
unicode = 007C;
},
{
glyphname = brokenbar;
lastChange = "2019-02-04 10:45:10 +0000";
layers = (
{
layerId = "84CDBA37-3524-4FC2-9356-5581E3F2D06C";
paths = (
{
closed = 1;
nodes = (
"363 760 LINE",
"237 760 LINE",
"237 401 LINE",
"363 401 LINE"
);
},
{
closed = 1;
nodes = (
"363 221 LINE",
"237 221 LINE",
"237 -138 LINE",
"363 -138 LINE"
);
}
);
width = 600;
}
);
note = brokenbar;
unicode = 00A6;
},
{
glyphname = section;
lastChange = "2019-02-04 10:45:10 +0000";
layers = (
{
layerId = "84CDBA37-3524-4FC2-9356-5581E3F2D06C";
paths = (
{
closed = 1;
nodes = (
"511 59 OFFCURVE",
"488 108 OFFCURVE",
"432 143 CURVE",
"432 159 LINE",
"508 190 OFFCURVE",
"542 239 OFFCURVE",
"542 296 CURVE SMOOTH",
"542 325 OFFCURVE",
"532 356 OFFCURVE",
"508 382 CURVE SMOOTH",
"484 408 OFFCURVE",
"445 430 OFFCURVE",
"388 446 CURVE SMOOTH",
"310 467 LINE SMOOTH",
"249 483 OFFCURVE",
"221 501 OFFCURVE",
"221 537 CURVE SMOOTH",
"221 578 OFFCURVE",
"258 605 OFFCURVE",
"317 605 CURVE SMOOTH",
"368 605 OFFCURVE",
"411 585 OFFCURVE",
"446 550 CURVE",
"519 638 LINE",
"460 691 OFFCURVE",
"387 710 OFFCURVE",
"318 710 CURVE SMOOTH",
"253 710 OFFCURVE",
"197 693 OFFCURVE",
"158 662 CURVE SMOOTH",
"119 630 OFFCURVE",
"96 586 OFFCURVE",
"96 531 CURVE SMOOTH",
"96 475 OFFCURVE",
"119 426 OFFCURVE",
"175 391 CURVE",
"175 375 LINE",
"99 344 OFFCURVE",
"65 295 OFFCURVE",
"65 238 CURVE SMOOTH",
"65 209 OFFCURVE",
"75 179 OFFCURVE",
"99 153 CURVE SMOOTH",
"123 127 OFFCURVE",
"162 104 OFFCURVE",
"219 88 CURVE SMOOTH",
"297 67 LINE SMOOTH",
"358 51 OFFCURVE",
"386 33 OFFCURVE",
"386 -3 CURVE SMOOTH",
"386 -44 OFFCURVE",
"349 -71 OFFCURVE",
"290 -71 CURVE SMOOTH",
"239 -71 OFFCURVE",
"196 -51 OFFCURVE",
"161 -16 CURVE",
"88 -104 LINE",
"147 -157 OFFCURVE",
"220 -176 OFFCURVE",
"289 -176 CURVE SMOOTH",
"354 -176 OFFCURVE",
"410 -159 OFFCURVE",
"449 -127 CURVE SMOOTH",
"488 -96 OFFCURVE",
"511 -52 OFFCURVE",
"511 3 CURVE SMOOTH"
);
},
{
closed = 1;
nodes = (
"419 221 OFFCURVE",
"405 195 OFFCURVE",
"381 168 CURVE",
"370 172 OFFCURVE",
"360 176 OFFCURVE",
"348 179 CURVE SMOOTH",
"271 200 LINE SMOOTH",
"204 219 OFFCURVE",
"188 247 OFFCURVE",
"188 282 CURVE SMOOTH",
"188 313 OFFCURVE",
"202 339 OFFCURVE",
"226 366 CURVE",
"237 362 OFFCURVE",
"247 358 OFFCURVE",
"259 355 CURVE SMOOTH",
"336 334 LINE SMOOTH",
"403 315 OFFCURVE",
"419 287 OFFCURVE",
"419 252 CURVE SMOOTH"
);
}
);
width = 600;
}
);
note = section;
unicode = 00A7;
},
{
glyphname = paragraph;
lastChange = "2019-02-04 10:45:10 +0000";
layers = (
{
layerId = "84CDBA37-3524-4FC2-9356-5581E3F2D06C";
paths = (
{
closed = 1;
nodes = (
"364 -149 LINE",
"364 582 LINE",
"433 582 LINE",
"433 -149 LINE",
"552 -149 LINE",
"552 698 LINE",
"245 698 LINE SMOOTH",
"182 698 OFFCURVE",
"127 674 OFFCURVE",
"86 634 CURVE SMOOTH",
"45 594 OFFCURVE",
"20 537 OFFCURVE",
"20 472 CURVE SMOOTH",
"20 407 OFFCURVE",
"45 350 OFFCURVE",
"86 310 CURVE SMOOTH",
"127 270 OFFCURVE",
"182 246 OFFCURVE",
"245 246 CURVE",
"245 -149 LINE"
);
}
);
width = 600;
}
);
note = paragraph;
unicode = 00B6;
},
{
glyphname = copyright;
lastChange = "2019-02-04 10:45:10 +0000";
layers = (
{
layerId = "84CDBA37-3524-4FC2-9356-5581E3F2D06C";
paths = (
{
closed = 1;
nodes = (
"384 18 OFFCURVE",
"459 50 OFFCURVE",
"513 107 CURVE SMOOTH",
"567 164 OFFCURVE",
"600 246 OFFCURVE",
"600 349 CURVE SMOOTH",
"600 450 OFFCURVE",
"567 534 OFFCURVE",
"513 591 CURVE SMOOTH",
"459 648 OFFCURVE",
"384 680 OFFCURVE",
"300 680 CURVE SMOOTH",
"216 680 OFFCURVE",
"142 648 OFFCURVE",
"88 591 CURVE SMOOTH",
"34 534 OFFCURVE",
"0 450 OFFCURVE",
"0 349 CURVE SMOOTH",
"0 246 OFFCURVE",
"34 164 OFFCURVE",
"88 107 CURVE SMOOTH",
"142 50 OFFCURVE",
"216 18 OFFCURVE",
"300 18 CURVE SMOOTH"
);
},
{
closed = 1;
nodes = (
"232 73 OFFCURVE",
"173 100 OFFCURVE",
"131 145 CURVE SMOOTH",
"89 189 OFFCURVE",
"63 251 OFFCURVE",
"63 319 CURVE SMOOTH",
"63 379 LINE SMOOTH",
"63 447 OFFCURVE",
"89 509 OFFCURVE",
"131 554 CURVE SMOOTH",
"173 598 OFFCURVE",
"232 625 OFFCURVE",
"300 625 CURVE SMOOTH",
"368 625 OFFCURVE",
"428 598 OFFCURVE",
"470 554 CURVE SMOOTH",
"512 509 OFFCURVE",
"537 447 OFFCURVE",
"537 379 CURVE SMOOTH",
"537 319 LINE SMOOTH",
"537 251 OFFCURVE",
"512 189 OFFCURVE",
"470 145 CURVE SMOOTH",
"428 100 OFFCURVE",
"368 73 OFFCURVE",
"300 73 CURVE SMOOTH"
);
},
{
closed = 1;
nodes = (
"354 153 OFFCURVE",
"389 165 OFFCURVE",
"415 184 CURVE SMOOTH",
"441 203 OFFCURVE",
"457 228 OFFCURVE",
"469 255 CURVE",
"384 298 LINE",
"369 269 OFFCURVE",
"349 246 OFFCURVE",
"312 246 CURVE SMOOTH",
"271 246 OFFCURVE",
"247 274 OFFCURVE",
"247 313 CURVE SMOOTH",
"247 386 LINE SMOOTH",
"247 425 OFFCURVE",
"271 452 OFFCURVE",
"311 452 CURVE SMOOTH",
"346 452 OFFCURVE",
"365 431 OFFCURVE",
"378 400 CURVE",
"463 443 LINE",
"439 503 OFFCURVE",
"392 545 OFFCURVE",
"309 545 CURVE SMOOTH",
"254 545 OFFCURVE",
"209 526 OFFCURVE",
"177 492 CURVE SMOOTH",
"144 458 OFFCURVE",
"125 408 OFFCURVE",
"125 348 CURVE SMOOTH",
"125 289 OFFCURVE",
"143 241 OFFCURVE",
"175 207 CURVE SMOOTH",
"207 173 OFFCURVE",
"253 153 OFFCURVE",
"309 153 CURVE SMOOTH"
);
}
);
width = 600;
}
);
note = copyright;
unicode = 00A9;
},
{
glyphname = registered;
lastChange = "2019-02-04 10:45:10 +0000";
layers = (
{
layerId = "84CDBA37-3524-4FC2-9356-5581E3F2D06C";
paths = (
{
closed = 1;
nodes = (
"351 346 OFFCURVE",
"397 366 OFFCURVE",
"430 398 CURVE SMOOTH",
"462 430 OFFCURVE",
"483 476 OFFCURVE",
"483 528 CURVE SMOOTH",
"483 580 OFFCURVE",
"462 626 OFFCURVE",
"430 658 CURVE SMOOTH",
"397 690 OFFCURVE",
"351 710 OFFCURVE",
"300 710 CURVE SMOOTH",
"249 710 OFFCURVE",
"203 690 OFFCURVE",
"170 658 CURVE SMOOTH",
"137 626 OFFCURVE",
"117 580 OFFCURVE",
"117 528 CURVE SMOOTH",
"117 476 OFFCURVE",
"137 430 OFFCURVE",
"170 398 CURVE SMOOTH",
"203 366 OFFCURVE",
"249 346 OFFCURVE",
"300 346 CURVE SMOOTH"
);
},
{
closed = 1;
nodes = (
"261 387 OFFCURVE",
"228 400 OFFCURVE",
"204 423 CURVE SMOOTH",
"180 446 OFFCURVE",
"165 478 OFFCURVE",
"165 518 CURVE SMOOTH",
"165 538 LINE SMOOTH",
"165 578 OFFCURVE",
"180 610 OFFCURVE",
"204 633 CURVE SMOOTH",
"228 656 OFFCURVE",
"261 669 OFFCURVE",
"300 669 CURVE SMOOTH",
"339 669 OFFCURVE",
"372 656 OFFCURVE",
"396 633 CURVE SMOOTH",
"420 610 OFFCURVE",
"435 578 OFFCURVE",
"435 538 CURVE SMOOTH",
"435 518 LINE SMOOTH",
"435 478 OFFCURVE",
"420 446 OFFCURVE",
"396 423 CURVE SMOOTH",
"372 400 OFFCURVE",
"339 387 OFFCURVE",
"300 387 CURVE SMOOTH"
);
},
{
closed = 1;
nodes = (
"300 490 LINE",
"330 436 LINE",
"391 436 LINE",
"352 501 LINE",
"375 512 OFFCURVE",
"386 531 OFFCURVE",
"386 558 CURVE SMOOTH",
"386 594 OFFCURVE",
"365 621 OFFCURVE",
"314 621 CURVE SMOOTH",
"222 621 LINE",
"222 436 LINE",
"278 436 LINE",
"278 490 LINE"
);
},
{
closed = 1;
nodes = (
"278 578 LINE",
"302 578 LINE SMOOTH",
"319 578 OFFCURVE",
"328 571 OFFCURVE",
"328 558 CURVE SMOOTH",
"328 551 LINE SMOOTH",
"328 538 OFFCURVE",
"319 531 OFFCURVE",
"302 531 CURVE SMOOTH",
"278 531 LINE"
);
}
);
width = 600;
}
);
note = registered;
unicode = 00AE;
},
{
glyphname = trademark;
lastChange = "2019-02-04 10:45:10 +0000";
layers = (
{
layerId = "84CDBA37-3524-4FC2-9356-5581E3F2D06C";
paths = (
{
closed = 1;
nodes = (
"168 637 LINE",
"237 637 LINE",
"237 698 LINE",
"13 698 LINE",
"13 637 LINE",
"82 637 LINE",
"82 409 LINE",
"168 409 LINE"
);
},
{
closed = 1;
nodes = (
"330 506 LINE",
"322 599 LINE",
"326 599 LINE",
"405 453 LINE",
"484 599 LINE",
"488 599 LINE",
"480 506 LINE",
"480 409 LINE",
"552 409 LINE",
"552 698 LINE",
"467 698 LINE",
"411 591 LINE",
"405 591 LINE",
"349 698 LINE",
"258 698 LINE",
"258 409 LINE",
"330 409 LINE"
);
}
);
width = 600;
}
);
note = trademark;
unicode = 2122;
},
{
glyphname = ordfeminine;
lastChange = "2019-02-04 10:45:10 +0000";
layers = (
{
layerId = "84CDBA37-3524-4FC2-9356-5581E3F2D06C";
paths = (
{
closed = 1;
nodes = (
"489 415 LINE",
"449 415 LINE",
"449 573 LINE SMOOTH",
"449 665 OFFCURVE",
"391 710 OFFCURVE",
"292 710 CURVE SMOOTH",
"211 710 OFFCURVE",
"159 680 OFFCURVE",
"135 639 CURVE",
"191 589 LINE",
"211 616 OFFCURVE",
"236 634 OFFCURVE",
"280 634 CURVE SMOOTH",
"327 634 OFFCURVE",
"345 612 OFFCURVE",
"345 569 CURVE SMOOTH",
"345 551 LINE",
"287 551 LINE SMOOTH",
"182 551 OFFCURVE",
"125 516 OFFCURVE",
"125 440 CURVE SMOOTH",
"125 372 OFFCURVE",
"170 332 OFFCURVE",
"241 332 CURVE SMOOTH",
"297 332 OFFCURVE",
"338 357 OFFCURVE",
"351 404 CURVE",
"355 404 LINE",
"359 363 OFFCURVE",
"386 340 OFFCURVE",
"429 340 CURVE SMOOTH",
"489 340 LINE"
);
},
{
closed = 1;
nodes = (
"345 452 LINE SMOOTH",
"345 417 OFFCURVE",
"317 400 OFFCURVE",
"280 400 CURVE SMOOTH",
"247 400 OFFCURVE",
"226 413 OFFCURVE",
"226 438 CURVE SMOOTH",
"226 452 LINE SMOOTH",
"226 481 OFFCURVE",
"247 495 OFFCURVE",
"290 495 CURVE SMOOTH",
"345 495 LINE"
);
}
);
width = 600;
}
);
note = ordfeminine;
unicode = 00AA;
},
{
glyphname = ordmasculine;
lastChange = "2019-02-04 10:45:10 +0000";
layers = (
{
layerId = "84CDBA37-3524-4FC2-9356-5581E3F2D06C";
paths = (
{
closed = 1;
nodes = (
"413 332 OFFCURVE",
"481 404 OFFCURVE",
"481 521 CURVE SMOOTH",
"481 638 OFFCURVE",
"413 710 OFFCURVE",
"300 710 CURVE SMOOTH",
"187 710 OFFCURVE",
"119 638 OFFCURVE",
"119 521 CURVE SMOOTH",
"119 404 OFFCURVE",
"187 332 OFFCURVE",
"300 332 CURVE SMOOTH"
);
},
{
closed = 1;
nodes = (
"253 409 OFFCURVE",
"226 439 OFFCURVE",
"226 492 CURVE SMOOTH",
"226 550 LINE SMOOTH",
"226 603 OFFCURVE",
"253 633 OFFCURVE",
"300 633 CURVE SMOOTH",
"347 633 OFFCURVE",
"374 603 OFFCURVE",
"374 550 CURVE SMOOTH",
"374 492 LINE SMOOTH",
"374 439 OFFCURVE",
"347 409 OFFCURVE",
"300 409 CURVE SMOOTH"
);
}
);
width = 600;
}
);
note = ordmasculine;
unicode = 00BA;
},
{
glyphname = degree;
lastChange = "2019-02-04 10:45:10 +0000";
layers = (
{
layerId = "84CDBA37-3524-4FC2-9356-5581E3F2D06C";
paths = (
{
closed = 1;
nodes = (
"353 334 OFFCURVE",
"400 355 OFFCURVE",
"434 388 CURVE SMOOTH",
"468 421 OFFCURVE",
"488 469 OFFCURVE",
"488 522 CURVE SMOOTH",
"488 575 OFFCURVE",
"468 623 OFFCURVE",
"434 656 CURVE SMOOTH",
"400 689 OFFCURVE",
"353 710 OFFCURVE",
"300 710 CURVE SMOOTH",
"247 710 OFFCURVE",
"201 689 OFFCURVE",
"167 656 CURVE SMOOTH",
"133 623 OFFCURVE",
"112 575 OFFCURVE",
"112 522 CURVE SMOOTH",
"112 469 OFFCURVE",
"133 421 OFFCURVE",
"167 388 CURVE SMOOTH",
"201 355 OFFCURVE",
"247 334 OFFCURVE",
"300 334 CURVE SMOOTH"
);
},
{
closed = 1;
nodes = (
"248 429 OFFCURVE",
"214 470 OFFCURVE",
"214 522 CURVE SMOOTH",
"214 574 OFFCURVE",
"248 615 OFFCURVE",
"300 615 CURVE SMOOTH",
"352 615 OFFCURVE",
"386 574 OFFCURVE",
"386 522 CURVE SMOOTH",
"386 470 OFFCURVE",
"352 429 OFFCURVE",
"300 429 CURVE SMOOTH"
);
}
);
width = 600;
}
);
note = degree;
unicode = 00B0;
},
{
glyphname = asterisk;
lastChange = "2019-02-04 10:45:10 +0000";
layers = (
{
layerId = "84CDBA37-3524-4FC2-9356-5581E3F2D06C";
paths = (
{
closed = 1;
nodes = (
"409 60 LINE",
"513 129 LINE",
"399 279 LINE",
"570 337 LINE",
"531 452 LINE",
"364 391 LINE",
"364 568 LINE",
"236 568 LINE",
"236 391 LINE",
"69 452 LINE",
"30 337 LINE",
"201 279 LINE",
"87 129 LINE",
"191 60 LINE",
"300 209 LINE"
);
}
);
width = 600;
}
);
note = asterisk;
unicode = 002A;
},
{
glyphname = dagger;
lastChange = "2019-02-04 10:45:10 +0000";
layers = (
{
layerId = "84CDBA37-3524-4FC2-9356-5581E3F2D06C";
paths = (
{
closed = 1;
nodes = (
"363 408 LINE",
"539 408 LINE",
"539 516 LINE",
"363 516 LINE",
"363 740 LINE",
"237 740 LINE",
"237 516 LINE",
"61 516 LINE",
"61 408 LINE",
"237 408 LINE",
"237 -200 LINE",
"363 -200 LINE"
);
}
);
width = 600;
}
);
note = dagger;
unicode = 2020;
},
{
glyphname = daggerdbl;
lastChange = "2019-02-04 10:45:10 +0000";
layers = (
{
layerId = "84CDBA37-3524-4FC2-9356-5581E3F2D06C";
paths = (
{
closed = 1;
nodes = (
"363 24 LINE",
"539 24 LINE",
"539 132 LINE",
"363 132 LINE",
"363 408 LINE",
"539 408 LINE",
"539 516 LINE",
"363 516 LINE",
"363 740 LINE",
"237 740 LINE",
"237 516 LINE",
"61 516 LINE",
"61 408 LINE",
"237 408 LINE",
"237 132 LINE",
"61 132 LINE",
"61 24 LINE",
"237 24 LINE",
"237 -200 LINE",
"363 -200 LINE"
);
}
);
width = 600;
}
);
note = daggerdbl;
unicode = 2021;
},
{
glyphname = numbersign;
lastChange = "2019-02-04 10:45:10 +0000";
layers = (
{
layerId = "84CDBA37-3524-4FC2-9356-5581E3F2D06C";
paths = (
{
closed = 1;
nodes = (
"200 0 LINE",
"323 698 LINE",
"206 698 LINE",
"172 504 LINE",
"47 504 LINE",
"47 394 LINE",
"152 394 LINE",
"137 304 LINE",
"9 304 LINE",
"9 194 LINE",
"117 194 LINE",
"83 0 LINE"
);
},
{
closed = 1;
nodes = (
"394 0 LINE",
"428 194 LINE",
"553 194 LINE",
"553 304 LINE",
"448 304 LINE",
"463 394 LINE",
"591 394 LINE",
"591 504 LINE",
"483 504 LINE",
"517 698 LINE",
"400 698 LINE",
"277 0 LINE"
);
}
);
width = 600;
}
);
note = numbersign;
unicode = 0023;
},
{
glyphname = asciicircum;
lastChange = "2019-02-04 10:45:10 +0000";
layers = (
{
layerId = "84CDBA37-3524-4FC2-9356-5581E3F2D06C";
paths = (
{
closed = 1;
nodes = (
"379 698 LINE",
"222 698 LINE",
"27 293 LINE",
"138 239 LINE",
"291 562 LINE",
"303 562 LINE",
"456 239 LINE",
"573 293 LINE"
);
}
);
width = 600;
}
);
note = asciicircum;
unicode = 005E;
},
{
glyphname = asciitilde;
lastChange = "2019-02-04 10:45:10 +0000";
layers = (
{
layerId = "84CDBA37-3524-4FC2-9356-5581E3F2D06C";
paths = (
{
closed = 1;
nodes = (
"489 210 OFFCURVE",
"543 271 OFFCURVE",
"564 362 CURVE",
"458 400 LINE",
"442 355 OFFCURVE",
"425 333 OFFCURVE",
"393 333 CURVE SMOOTH",
"368 333 OFFCURVE",
"345 346 OFFCURVE",
"310 363 CURVE SMOOTH",
"270 383 OFFCURVE",
"234 400 OFFCURVE",
"191 400 CURVE SMOOTH",
"111 400 OFFCURVE",
"57 339 OFFCURVE",
"36 248 CURVE",
"142 210 LINE",
"158 255 OFFCURVE",
"175 277 OFFCURVE",
"207 277 CURVE SMOOTH",
"232 277 OFFCURVE",
"255 264 OFFCURVE",
"290 247 CURVE SMOOTH",
"330 227 OFFCURVE",
"366 210 OFFCURVE",
"409 210 CURVE SMOOTH"
);
}
);
width = 600;
}
);
note = asciitilde;
unicode = 007E;
},
{
glyphname = plus;
lastChange = "2019-02-04 10:45:10 +0000";
layers = (
{
layerId = "84CDBA37-3524-4FC2-9356-5581E3F2D06C";
paths = (
{
closed = 1;
nodes = (
"364 246 LINE",
"538 246 LINE",
"538 364 LINE",
"364 364 LINE",
"364 548 LINE",
"236 548 LINE",
"236 364 LINE",
"62 364 LINE",
"62 246 LINE",
"236 246 LINE",
"236 62 LINE",
"364 62 LINE"
);
}
);
width = 600;
}
);
note = plus;
unicode = 002B;
},
{
glyphname = minus;
lastChange = "2019-02-04 10:45:10 +0000";
layers = (
{
layerId = "84CDBA37-3524-4FC2-9356-5581E3F2D06C";
paths = (
{
closed = 1;
nodes = (
"538 364 LINE",
"62 364 LINE",
"62 246 LINE",
"538 246 LINE"
);
}
);
width = 600;
}
);
note = minus;
unicode = 2212;
},
{
glyphname = plusminus;
lastChange = "2019-02-04 10:45:10 +0000";
layers = (
{
layerId = "84CDBA37-3524-4FC2-9356-5581E3F2D06C";
paths = (
{
closed = 1;
nodes = (
"364 350 LINE",
"538 350 LINE",
"538 468 LINE",
"364 468 LINE",
"364 634 LINE",
"236 634 LINE",
"236 468 LINE",
"62 468 LINE",
"62 350 LINE",
"236 350 LINE",
"236 184 LINE",
"364 184 LINE"
);
},
{
closed = 1;
nodes = (
"538 119 LINE",
"62 119 LINE",
"62 0 LINE",
"538 0 LINE"
);
}
);
width = 600;
}
);
note = plusminus;
unicode = 00B1;
},
{
glyphname = multiply;
lastChange = "2019-02-04 10:45:10 +0000";
layers = (
{
layerId = "84CDBA37-3524-4FC2-9356-5581E3F2D06C";
paths = (
{
closed = 1;
nodes = (
"530 160 LINE",
"385 305 LINE",
"530 450 LINE",
"445 535 LINE",
"300 390 LINE",
"155 535 LINE",
"70 450 LINE",
"215 305 LINE",
"70 160 LINE",
"155 75 LINE",
"300 220 LINE",
"445 75 LINE"
);
}
);
width = 600;
}
);
note = multiply;
unicode = 00D7;
},
{
glyphname = divide;
lastChange = "2019-02-04 10:45:10 +0000";
layers = (
{
layerId = "84CDBA37-3524-4FC2-9356-5581E3F2D06C";
paths = (
{
closed = 1;
nodes = (
"538 364 LINE",
"62 364 LINE",
"62 246 LINE",
"538 246 LINE"
);
},
{
closed = 1;
nodes = (
"364 29 OFFCURVE",
"388 59 OFFCURVE",
"388 98 CURVE SMOOTH",
"388 122 LINE SMOOTH",
"388 161 OFFCURVE",
"364 191 OFFCURVE",
"300 191 CURVE SMOOTH",
"236 191 OFFCURVE",
"212 161 OFFCURVE",
"212 122 CURVE SMOOTH",
"212 98 LINE SMOOTH",
"212 59 OFFCURVE",
"236 29 OFFCURVE",
"300 29 CURVE SMOOTH"
);
},
{
closed = 1;
nodes = (
"364 419 OFFCURVE",
"388 449 OFFCURVE",
"388 488 CURVE SMOOTH",
"388 512 LINE SMOOTH",
"388 551 OFFCURVE",
"364 581 OFFCURVE",
"300 581 CURVE SMOOTH",
"236 581 OFFCURVE",
"212 551 OFFCURVE",
"212 512 CURVE SMOOTH",
"212 488 LINE SMOOTH",
"212 449 OFFCURVE",
"236 419 OFFCURVE",
"300 419 CURVE SMOOTH"
);
}
);
width = 600;
}
);
note = divide;
unicode = 00F7;
},
{
glyphname = equal;
lastChange = "2019-02-04 10:45:10 +0000";
layers = (
{
layerId = "84CDBA37-3524-4FC2-9356-5581E3F2D06C";
paths = (
{
closed = 1;
nodes = (
"538 479 LINE",
"62 479 LINE",
"62 361 LINE",
"538 361 LINE"
);
},
{
closed = 1;
nodes = (
"538 249 LINE",
"62 249 LINE",
"62 131 LINE",
"538 131 LINE"
);
}
);
width = 600;
}
);
note = equal;
unicode = 003D;
},
{
glyphname = notequal;
lastChange = "2019-02-04 10:45:10 +0000";
layers = (
{
layerId = "84CDBA37-3524-4FC2-9356-5581E3F2D06C";
paths = (
{
closed = 1;
nodes = (
"269 131 LINE",
"538 131 LINE",
"538 249 LINE",
"327 249 LINE",
"390 361 LINE",
"538 361 LINE",
"538 479 LINE",
"457 479 LINE",
"509 574 LINE",
"383 574 LINE",
"331 479 LINE",
"62 479 LINE",
"62 361 LINE",
"273 361 LINE",
"210 249 LINE",
"62 249 LINE",
"62 131 LINE",
"143 131 LINE",
"91 36 LINE",
"217 36 LINE"
);
}
);
width = 600;
}
);
note = notequal;
unicode = 2260;
},
{
glyphname = less;
lastChange = "2019-02-04 10:45:10 +0000";
layers = (
{
layerId = "84CDBA37-3524-4FC2-9356-5581E3F2D06C";
paths = (
{
closed = 1;
nodes = (
"515 144 LINE",
"218 301 LINE",
"218 309 LINE",
"515 466 LINE",
"515 604 LINE",
"85 374 LINE",
"85 236 LINE",
"515 6 LINE"
);
}
);
width = 600;
}
);
note = less;
unicode = 003C;
},
{
glyphname = greater;
lastChange = "2019-02-04 10:45:10 +0000";
layers = (
{
layerId = "84CDBA37-3524-4FC2-9356-5581E3F2D06C";
paths = (
{
closed = 1;
nodes = (
"515 236 LINE",
"515 374 LINE",
"85 604 LINE",
"85 466 LINE",
"382 309 LINE",
"382 301 LINE",
"85 144 LINE",
"85 6 LINE"
);
}
);
width = 600;
}
);
note = greater;
unicode = 003E;
},
{
glyphname = lessequal;
lastChange = "2019-02-04 10:45:10 +0000";
layers = (
{
layerId = "84CDBA37-3524-4FC2-9356-5581E3F2D06C";
paths = (
{
closed = 1;
nodes = (
"515 116 LINE",
"85 116 LINE",
"85 0 LINE",
"515 0 LINE"
);
},
{
closed = 1;
nodes = (
"85 438 LINE",
"85 301 LINE",
"515 144 LINE",
"515 270 LINE",
"226 366 LINE",
"226 373 LINE",
"515 471 LINE",
"515 595 LINE"
);
}
);
width = 600;
}
);
note = lessequal;
unicode = 2264;
},
{
glyphname = greaterequal;
lastChange = "2019-02-04 10:45:10 +0000";
layers = (
{
layerId = "84CDBA37-3524-4FC2-9356-5581E3F2D06C";
paths = (
{
closed = 1;
nodes = (
"515 301 LINE",
"515 438 LINE",
"85 595 LINE",
"85 473 LINE",
"373 375 LINE",
"373 368 LINE",
"85 272 LINE",
"85 144 LINE"
);
},
{
closed = 1;
nodes = (
"515 0 LINE",
"515 116 LINE",
"85 116 LINE",
"85 0 LINE"
);
}
);
width = 600;
}
);
note = greaterequal;
unicode = 2265;
},
{
glyphname = periodcentered;
lastChange = "2019-02-04 10:45:10 +0000";
layers = (
{
layerId = "84CDBA37-3524-4FC2-9356-5581E3F2D06C";
paths = (
{
closed = 1;
nodes = (
"375 204 OFFCURVE",
"405 242 OFFCURVE",
"405 287 CURVE SMOOTH",
"405 322 LINE SMOOTH",
"405 367 OFFCURVE",
"375 405 OFFCURVE",
"300 405 CURVE SMOOTH",
"225 405 OFFCURVE",
"195 367 OFFCURVE",
"195 322 CURVE SMOOTH",
"195 287 LINE SMOOTH",
"195 242 OFFCURVE",
"225 204 OFFCURVE",
"300 204 CURVE SMOOTH"
);
}
);
width = 600;
}
);
note = periodcentered;
unicode = 00B7;
},
{
glyphname = bullet;
lastChange = "2019-02-04 10:45:10 +0000";
layers = (
{
layerId = "84CDBA37-3524-4FC2-9356-5581E3F2D06C";
paths = (
{
closed = 1;
nodes = (
"356 156 OFFCURVE",
"395 170 OFFCURVE",
"420 194 CURVE SMOOTH",
"444 217 OFFCURVE",
"454 250 OFFCURVE",
"454 287 CURVE SMOOTH",
"454 321 LINE SMOOTH",
"454 358 OFFCURVE",
"444 391 OFFCURVE",
"420 415 CURVE",
"395 438 OFFCURVE",
"356 452 OFFCURVE",
"300 452 CURVE SMOOTH",
"244 452 OFFCURVE",
"205 438 OFFCURVE",
"181 415 CURVE SMOOTH",
"156 391 OFFCURVE",
"146 358 OFFCURVE",
"146 321 CURVE SMOOTH",
"146 287 LINE SMOOTH",
"146 250 OFFCURVE",
"156 217 OFFCURVE",
"181 194 CURVE",
"205 170 OFFCURVE",
"244 156 OFFCURVE",
"300 156 CURVE SMOOTH"
);
}
);
width = 600;
}
);
note = bullet;
unicode = 2022;
},
{
glyphname = lozenge;
lastChange = "2019-02-04 10:45:10 +0000";
layers = (
{
layerId = "84CDBA37-3524-4FC2-9356-5581E3F2D06C";
paths = (
{
closed = 1;
nodes = (
"572 349 LINE",
"354 698 LINE",
"246 698 LINE",
"28 349 LINE",
"246 0 LINE",
"354 0 LINE"
);
},
{
closed = 1;
nodes = (
"159 349 LINE",
"297 575 LINE",
"303 575 LINE",
"441 349 LINE",
"303 123 LINE",
"297 123 LINE"
);
}
);
width = 600;
}
);
note = lozenge;
unicode = 25CA;
},
{
glyphname = logicalnot;
lastChange = "2019-02-04 10:45:10 +0000";
layers = (
{
layerId = "84CDBA37-3524-4FC2-9356-5581E3F2D06C";
paths = (
{
closed = 1;
nodes = (
"522 364 LINE",
"62 364 LINE",
"62 246 LINE",
"401 246 LINE",
"401 54 LINE",
"522 54 LINE"
);
}
);
width = 600;
}
);
note = logicalnot;
unicode = 00AC;
},
{
glyphname = radical;
lastChange = "2019-02-04 10:45:10 +0000";
layers = (
{
layerId = "84CDBA37-3524-4FC2-9356-5581E3F2D06C";
paths = (
{
closed = 1;
nodes = (
"596 698 LINE",
"472 698 LINE",
"363 320 LINE",
"307 105 LINE",
"299 105 LINE",
"247 320 LINE",
"190 516 LINE",
"15 516 LINE",
"15 392 LINE",
"95 392 LINE",
"213 0 LINE",
"390 0 LINE"
);
}
);
width = 600;
}
);
note = radical;
unicode = 221A;
},
{
glyphname = integral;
lastChange = "2019-02-04 10:45:10 +0000";
layers = (
{
layerId = "84CDBA37-3524-4FC2-9356-5581E3F2D06C";
paths = (
{
closed = 1;
nodes = (
"203 -200 LINE SMOOTH",
"310 -200 OFFCURVE",
"361 -138 OFFCURVE",
"361 -51 CURVE SMOOTH",
"361 625 LINE",
"546 625 LINE",
"546 740 LINE",
"371 740 LINE SMOOTH",
"263 740 OFFCURVE",
"213 679 OFFCURVE",
"213 591 CURVE SMOOTH",
"213 -85 LINE",
"28 -85 LINE",
"28 -200 LINE"
);
}
);
width = 600;
}
);
note = integral;
unicode = 222B;
},
{
glyphname = infinity;
lastChange = "2019-02-04 10:45:10 +0000";
layers = (
{
layerId = "84CDBA37-3524-4FC2-9356-5581E3F2D06C";
paths = (
{
closed = 1;
nodes = (
"189 126 OFFCURVE",
"216 136 OFFCURVE",
"237 157 CURVE SMOOTH",
"258 177 OFFCURVE",
"275 210 OFFCURVE",
"280 255 CURVE",
"284 255 LINE",
"315 163 OFFCURVE",
"363 126 OFFCURVE",
"431 126 CURVE SMOOTH",
"531 126 OFFCURVE",
"589 192 OFFCURVE",
"589 305 CURVE SMOOTH",
"589 418 OFFCURVE",
"535 484 OFFCURVE",
"439 484 CURVE SMOOTH",
"383 484 OFFCURVE",
"331 444 OFFCURVE",
"320 355 CURVE",
"316 355 LINE",
"285 447 OFFCURVE",
"237 484 OFFCURVE",
"169 484 CURVE SMOOTH",
"69 484 OFFCURVE",
"11 418 OFFCURVE",
"11 305 CURVE SMOOTH",
"11 192 OFFCURVE",
"65 126 OFFCURVE",
"161 126 CURVE SMOOTH"
);
},
{
closed = 1;
nodes = (
"147 228 OFFCURVE",
"127 253 OFFCURVE",
"127 298 CURVE SMOOTH",
"127 312 LINE SMOOTH",
"127 357 OFFCURVE",
"147 382 OFFCURVE",
"174 382 CURVE SMOOTH",
"217 382 OFFCURVE",
"239 340 OFFCURVE",
"256 293 CURVE",
"243 258 OFFCURVE",
"217 228 OFFCURVE",
"174 228 CURVE SMOOTH"
);
},
{
closed = 1;
nodes = (
"383 228 OFFCURVE",
"361 270 OFFCURVE",
"344 317 CURVE",
"357 352 OFFCURVE",
"383 382 OFFCURVE",
"426 382 CURVE SMOOTH",
"453 382 OFFCURVE",
"473 357 OFFCURVE",
"473 312 CURVE SMOOTH",
"473 298 LINE SMOOTH",
"473 253 OFFCURVE",
"453 228 OFFCURVE",
"426 228 CURVE SMOOTH"
);
}
);
width = 600;
}
);
note = infinity;
unicode = 221E;
},
{
glyphname = uni212E;
lastChange = "2019-02-04 10:45:10 +0000";
layers = (
{
layerId = "84CDBA37-3524-4FC2-9356-5581E3F2D06C";
paths = (
{
closed = 1;
nodes = (
"574 349 LINE",
"574 453 OFFCURVE",
"547 543 OFFCURVE",
"499 607 CURVE SMOOTH",
"451 671 OFFCURVE",
"383 710 OFFCURVE",
"300 710 CURVE SMOOTH",
"217 710 OFFCURVE",
"149 671 OFFCURVE",
"101 607 CURVE SMOOTH",
"53 543 OFFCURVE",
"26 453 OFFCURVE",
"26 349 CURVE SMOOTH",
"26 245 OFFCURVE",
"53 155 OFFCURVE",
"101 91 CURVE SMOOTH",
"149 27 OFFCURVE",
"217 -12 OFFCURVE",
"300 -12 CURVE SMOOTH",
"363 -12 OFFCURVE",
"413 7 OFFCURVE",
"454 36 CURVE SMOOTH",
"494 65 OFFCURVE",
"525 107 OFFCURVE",
"549 151 CURVE",
"497 180 LINE",
"477 140 OFFCURVE",
"452 106 OFFCURVE",
"420 82 CURVE SMOOTH",
"388 58 OFFCURVE",
"349 44 OFFCURVE",
"300 44 CURVE SMOOTH",
"253 44 OFFCURVE",
"209 62 OFFCURVE",
"185 85 CURVE",
"185 349 LINE"
);
},
{
closed = 1;
nodes = (
"185 618 LINE",
"210 641 OFFCURVE",
"253 656 OFFCURVE",
"300 656 CURVE SMOOTH",
"347 656 OFFCURVE",
"390 641 OFFCURVE",
"415 618 CURVE",
"415 401 LINE",
"185 401 LINE"
);
}
);
width = 600;
}
);
note = uni212E;
unicode = 212E;
},
{
glyphname = uni2113;
lastChange = "2019-02-04 10:45:10 +0000";
layers = (
{
layerId = "84CDBA37-3524-4FC2-9356-5581E3F2D06C";
paths = (
{
closed = 1;
nodes = (
"446 -12 OFFCURVE",
"516 57 OFFCURVE",
"555 158 CURVE",
"435 219 LINE",
"415 179 OFFCURVE",
"400 154 OFFCURVE",
"384 138 CURVE SMOOTH",
"368 122 OFFCURVE",
"352 116 OFFCURVE",
"332 116 CURVE SMOOTH",
"295 116 OFFCURVE",
"272 136 OFFCURVE",
"272 187 CURVE SMOOTH",
"272 228 LINE",
"348 287 OFFCURVE",
"405 339 OFFCURVE",
"442 392 CURVE SMOOTH",
"479 445 OFFCURVE",
"498 499 OFFCURVE",
"498 562 CURVE SMOOTH",
"498 681 OFFCURVE",
"433 752 OFFCURVE",
"316 752 CURVE SMOOTH",
"264 752 OFFCURVE",
"218 738 OFFCURVE",
"185 705 CURVE SMOOTH",
"152 672 OFFCURVE",
"132 621 OFFCURVE",
"132 546 CURVE SMOOTH",
"132 302 LINE",
"121 295 OFFCURVE",
"106 285 OFFCURVE",
"88 272 CURVE SMOOTH",
"69 259 OFFCURVE",
"51 248 OFFCURVE",
"32 238 CURVE",
"96 135 LINE",
"105 140 OFFCURVE",
"131 157 OFFCURVE",
"139 162 CURVE",
"139 159 LINE SMOOTH",
"139 106 OFFCURVE",
"160 63 OFFCURVE",
"196 34 CURVE SMOOTH",
"231 5 OFFCURVE",
"279 -12 OFFCURVE",
"334 -12 CURVE SMOOTH"
);
},
{
closed = 1;
nodes = (
"344 621 OFFCURVE",
"362 603 OFFCURVE",
"362 560 CURVE SMOOTH",
"362 550 LINE SMOOTH",
"362 478 OFFCURVE",
"324 425 OFFCURVE",
"272 378 CURVE",
"272 551 LINE SMOOTH",
"272 603 OFFCURVE",
"296 621 OFFCURVE",
"320 621 CURVE SMOOTH"
);
}
);
width = 600;
}
);
note = uni2113;
unicode = 2113;
},
{
glyphname = uni2116;
lastChange = "2019-02-04 10:45:10 +0000";
layers = (
{
layerId = "84CDBA37-3524-4FC2-9356-5581E3F2D06C";
paths = (
{
closed = 1;
nodes = (
"558 325 OFFCURVE",
"597 389 OFFCURVE",
"597 516 CURVE SMOOTH",
"597 643 OFFCURVE",
"558 706 OFFCURVE",
"481 706 CURVE SMOOTH",
"401 706 OFFCURVE",
"361 643 OFFCURVE",
"361 516 CURVE SMOOTH",
"361 389 OFFCURVE",
"401 325 OFFCURVE",
"481 325 CURVE SMOOTH"
);
},
{
closed = 1;
nodes = (
"105 598 LINE",
"117 598 LINE",
"134 335 LINE",
"160 0 LINE",
"335 0 LINE",
"335 698 LINE",
"247 698 LINE",
"247 100 LINE",
"235 100 LINE",
"218 363 LINE",
"192 698 LINE",
"17 698 LINE",
"17 0 LINE",
"105 0 LINE"
);
},
{
closed = 1;
nodes = (
"449 403 OFFCURVE",
"445 430 OFFCURVE",
"445 478 CURVE SMOOTH",
"445 553 LINE SMOOTH",
"445 601 OFFCURVE",
"449 628 OFFCURVE",
"481 628 CURVE SMOOTH",
"512 628 OFFCURVE",
"517 601 OFFCURVE",
"517 553 CURVE SMOOTH",
"517 478 LINE SMOOTH",
"517 429 OFFCURVE",
"512 403 OFFCURVE",
"481 403 CURVE SMOOTH"
);
},
{
closed = 1;
nodes = (
"589 303 LINE",
"369 303 LINE",
"369 226 LINE",
"589 226 LINE"
);
}
);
width = 600;
}
);
note = uni2116;
unicode = 2116;
},
{
glyphname = partialdiff;
lastChange = "2019-02-04 10:45:10 +0000";
layers = (
{
layerId = "84CDBA37-3524-4FC2-9356-5581E3F2D06C";
paths = (
{
closed = 1;
nodes = (
"559 382 OFFCURVE",
"529 469 OFFCURVE",
"482 539 CURVE SMOOTH",
"435 609 OFFCURVE",
"373 661 OFFCURVE",
"312 698 CURVE",
"94 698 LINE",
"261 607 OFFCURVE",
"367 519 OFFCURVE",
"406 412 CURVE",
"397 408 LINE",
"365 468 OFFCURVE",
"316 504 OFFCURVE",
"241 504 CURVE SMOOTH",
"180 504 OFFCURVE",
"130 479 OFFCURVE",
"95 436 CURVE SMOOTH",
"60 392 OFFCURVE",
"41 330 OFFCURVE",
"41 255 CURVE SMOOTH",
"41 172 OFFCURVE",
"66 106 OFFCURVE",
"111 60 CURVE SMOOTH",
"155 14 OFFCURVE",
"221 -12 OFFCURVE",
"302 -12 CURVE SMOOTH",
"378 -12 OFFCURVE",
"443 10 OFFCURVE",
"488 57 CURVE SMOOTH",
"533 104 OFFCURVE",
"559 175 OFFCURVE",
"559 274 CURVE SMOOTH"
);
},
{
closed = 1;
nodes = (
"233 98 OFFCURVE",
"194 141 OFFCURVE",
"194 217 CURVE SMOOTH",
"194 273 LINE SMOOTH",
"194 349 OFFCURVE",
"233 392 OFFCURVE",
"300 392 CURVE SMOOTH",
"367 392 OFFCURVE",
"406 349 OFFCURVE",
"406 273 CURVE SMOOTH",
"406 217 LINE SMOOTH",
"406 141 OFFCURVE",
"367 98 OFFCURVE",
"300 98 CURVE SMOOTH"
);
}
);
width = 600;
}
);
note = partialdiff;
unicode = 2202;
},
{
glyphname = cent;
lastChange = "2019-02-04 10:45:10 +0000";
layers = (
{
layerId = "84CDBA37-3524-4FC2-9356-5581E3F2D06C";
paths = (
{
closed = 1;
nodes = (
"372 -8 LINE",
"457 5 OFFCURVE",
"512 50 OFFCURVE",
"543 114 CURVE",
"438 173 LINE",
"422 142 OFFCURVE",
"398 116 OFFCURVE",
"363 104 CURVE",
"363 411 LINE",
"394 398 OFFCURVE",
"415 372 OFFCURVE",
"428 344 CURVE",
"535 402 LINE",
"504 466 OFFCURVE",
"455 511 OFFCURVE",
"372 524 CURVE",
"372 630 LINE",
"258 630 LINE",
"258 522 LINE",
"133 499 OFFCURVE",
"60 403 OFFCURVE",
"60 258 CURVE SMOOTH",
"60 113 OFFCURVE",
"133 17 OFFCURVE",
"258 -6 CURVE",
"258 -114 LINE",
"372 -114 LINE"
);
},
{
closed = 1;
nodes = (
"202 353 OFFCURVE",
"225 393 OFFCURVE",
"268 410 CURVE",
"268 106 LINE",
"224 125 OFFCURVE",
"202 164 OFFCURVE",
"202 216 CURVE SMOOTH",
"202 300 LINE SMOOTH"
);
}
);
width = 600;
}
);
note = cent;
unicode = 00A2;
},
{
glyphname = Euro;
lastChange = "2019-02-04 10:45:10 +0000";
layers = (
{
layerId = "84CDBA37-3524-4FC2-9356-5581E3F2D06C";
paths = (
{
closed = 1;
nodes = (
"404 -12 OFFCURVE",
"452 3 OFFCURVE",
"489 26 CURVE SMOOTH",
"526 49 OFFCURVE",
"550 78 OFFCURVE",
"573 109 CURVE",
"464 185 LINE",
"435 133 OFFCURVE",
"398 107 OFFCURVE",
"342 107 CURVE SMOOTH",
"267 107 OFFCURVE",
"223 150 OFFCURVE",
"207 223 CURVE",
"429 223 LINE",
"429 313 LINE",
"201 313 LINE",
"201 385 LINE",
"429 385 LINE",
"429 475 LINE",
"207 475 LINE",
"223 548 OFFCURVE",
"267 591 OFFCURVE",
"342 591 CURVE SMOOTH",
"398 591 OFFCURVE",
"435 565 OFFCURVE",
"464 513 CURVE",
"573 589 LINE",
"550 620 OFFCURVE",
"526 649 OFFCURVE",
"489 672 CURVE SMOOTH",
"452 695 OFFCURVE",
"404 710 OFFCURVE",
"336 710 CURVE SMOOTH",
"244 710 OFFCURVE",
"172 676 OFFCURVE",
"122 615 CURVE SMOOTH",
"72 554 OFFCURVE",
"45 462 OFFCURVE",
"45 349 CURVE SMOOTH",
"45 234 OFFCURVE",
"72 144 OFFCURVE",
"122 83 CURVE SMOOTH",
"172 22 OFFCURVE",
"244 -12 OFFCURVE",
"336 -12 CURVE SMOOTH"
);
}
);
width = 600;
}
);
note = Euro;
unicode = 20AC;
},
{
glyphname = florin;
lastChange = "2019-02-04 10:45:10 +0000";
layers = (
{
layerId = "84CDBA37-3524-4FC2-9356-5581E3F2D06C";
paths = (
{
closed = 1;
nodes = (
"134 -200 LINE SMOOTH",
"242 -200 OFFCURVE",
"290 -149 OFFCURVE",
"305 -61 CURVE SMOOTH",
"369 323 LINE",
"543 323 LINE",
"561 438 LINE",
"389 438 LINE",
"413 583 LINE",
"598 583 LINE",
"617 698 LINE",
"432 698 LINE SMOOTH",
"324 698 OFFCURVE",
"276 647 OFFCURVE",
"261 559 CURVE SMOOTH",
"241 438 LINE",
"77 438 LINE",
"58 323 LINE",
"221 323 LINE",
"153 -85 LINE",
"-31 -85 LINE",
"-50 -200 LINE"
);
}
);
width = 600;
}
);
note = florin;
unicode = 0192;
},
{
glyphname = sterling;
lastChange = "2019-02-04 10:45:10 +0000";
layers = (
{
layerId = "84CDBA37-3524-4FC2-9356-5581E3F2D06C";
paths = (
{
closed = 1;
nodes = (
"553 128 LINE",
"224 128 LINE",
"224 137 LINE",
"241 146 OFFCURVE",
"261 161 OFFCURVE",
"277 181 CURVE SMOOTH",
"292 201 OFFCURVE",
"302 227 OFFCURVE",
"302 262 CURVE SMOOTH",
"302 269 LINE",
"442 269 LINE",
"442 379 LINE",
"267 379 LINE",
"252 411 OFFCURVE",
"239 443 OFFCURVE",
"239 480 CURVE SMOOTH",
"239 544 OFFCURVE",
"277 581 OFFCURVE",
"340 581 CURVE SMOOTH",
"396 581 OFFCURVE",
"429 552 OFFCURVE",
"460 512 CURVE",
"559 605 LINE",
"508 673 OFFCURVE",
"436 710 OFFCURVE",
"335 710 CURVE SMOOTH",
"260 710 OFFCURVE",
"198 689 OFFCURVE",
"155 653 CURVE SMOOTH",
"111 617 OFFCURVE",
"86 565 OFFCURVE",
"86 504 CURVE SMOOTH",
"86 456 OFFCURVE",
"101 416 OFFCURVE",
"117 379 CURVE",
"46 379 LINE",
"46 269 LINE",
"153 269 LINE",
"154 266 OFFCURVE",
"154 262 OFFCURVE",
"154 257 CURVE SMOOTH",
"154 201 OFFCURVE",
"122 159 OFFCURVE",
"69 136 CURVE",
"69 0 LINE",
"553 0 LINE"
);
}
);
width = 600;
}
);
note = sterling;
unicode = 00A3;
},
{
glyphname = dollar;
lastChange = "2019-02-04 10:45:10 +0000";
layers = (
{
layerId = "84CDBA37-3524-4FC2-9356-5581E3F2D06C";
paths = (
{
closed = 1;
nodes = (
"367 -113 LINE",
"367 -5 LINE",
"431 7 OFFCURVE",
"482 34 OFFCURVE",
"516 71 CURVE SMOOTH",
"550 108 OFFCURVE",
"568 157 OFFCURVE",
"568 212 CURVE SMOOTH",
"568 313 OFFCURVE",
"508 385 OFFCURVE",
"380 409 CURVE SMOOTH",
"357 413 LINE",
"357 580 LINE",
"400 571 OFFCURVE",
"435 551 OFFCURVE",
"463 520 CURVE",
"549 616 LINE",
"509 663 OFFCURVE",
"451 696 OFFCURVE",
"367 707 CURVE",
"367 811 LINE",
"253 811 LINE",
"253 706 LINE",
"124 689 OFFCURVE",
"52 615 OFFCURVE",
"52 502 CURVE SMOOTH",
"52 399 OFFCURVE",
"112 324 OFFCURVE",
"240 301 CURVE SMOOTH",
"263 297 LINE",
"263 113 LINE",
"208 121 OFFCURVE",
"160 146 OFFCURVE",
"117 191 CURVE",
"30 96 LINE",
"77 36 OFFCURVE",
"153 -2 OFFCURVE",
"253 -10 CURVE",
"253 -113 LINE"
);
},
{
closed = 1;
nodes = (
"193 550 OFFCURVE",
"214 575 OFFCURVE",
"263 583 CURVE",
"263 432 LINE",
"214 445 OFFCURVE",
"193 464 OFFCURVE",
"193 507 CURVE SMOOTH"
);
},
{
closed = 1;
nodes = (
"428 155 OFFCURVE",
"405 125 OFFCURVE",
"357 114 CURVE",
"357 279 LINE",
"406 267 OFFCURVE",
"428 247 OFFCURVE",
"428 202 CURVE SMOOTH"
);
}
);
width = 600;
}
);
note = dollar;
unicode = 0024;
},
{
glyphname = yen;
lastChange = "2019-02-04 10:45:10 +0000";
layers = (
{
layerId = "84CDBA37-3524-4FC2-9356-5581E3F2D06C";
paths = (
{
closed = 1;
nodes = (
"544 0 LINE",
"544 113 LINE",
"371 113 LINE",
"371 221 LINE",
"544 221 LINE",
"544 334 LINE",
"441 334 LINE",
"600 698 LINE",
"449 698 LINE",
"307 334 LINE",
"297 334 LINE",
"156 698 LINE",
"0 698 LINE",
"160 334 LINE",
"56 334 LINE",
"56 221 LINE",
"229 221 LINE",
"229 113 LINE",
"56 113 LINE",
"56 0 LINE"
);
}
);
width = 600;
}
);
note = yen;
unicode = 00A5;
},
{
glyphname = uni0E3F;
lastChange = "2019-02-04 10:45:10 +0000";
layers = (
{
layerId = "84CDBA37-3524-4FC2-9356-5581E3F2D06C";
paths = (
{
closed = 1;
nodes = (
"359 0 LINE SMOOTH",
"491 0 OFFCURVE",
"568 75 OFFCURVE",
"568 192 CURVE SMOOTH",
"568 285 OFFCURVE",
"518 339 OFFCURVE",
"433 359 CURVE",
"433 365 LINE",
"510 386 OFFCURVE",
"548 435 OFFCURVE",
"548 512 CURVE SMOOTH",
"548 617 OFFCURVE",
"479 690 OFFCURVE",
"358 697 CURVE",
"358 811 LINE",
"244 811 LINE",
"244 698 LINE",
"64 698 LINE",
"64 0 LINE",
"244 0 LINE",
"244 -113 LINE",
"358 -113 LINE",
"358 0 LINE"
);
},
{
closed = 1;
nodes = (
"198 594 LINE",
"254 594 LINE",
"254 401 LINE",
"198 401 LINE"
);
},
{
closed = 1;
nodes = (
"385 581 OFFCURVE",
"404 558 OFFCURVE",
"404 514 CURVE SMOOTH",
"404 481 LINE SMOOTH",
"404 437 OFFCURVE",
"385 414 OFFCURVE",
"348 405 CURVE",
"348 590 LINE"
);
},
{
closed = 1;
nodes = (
"198 302 LINE",
"254 302 LINE",
"254 104 LINE",
"198 104 LINE"
);
},
{
closed = 1;
nodes = (
"399 296 OFFCURVE",
"424 276 OFFCURVE",
"424 221 CURVE SMOOTH",
"424 185 LINE SMOOTH",
"424 130 OFFCURVE",
"399 110 OFFCURVE",
"348 105 CURVE",
"348 301 LINE"
);
}
);
width = 600;
}
);
note = uni0E3F;
unicode = 0E3F;
},
{
glyphname = uni20A1;
lastChange = "2019-02-04 10:45:10 +0000";
layers = (
{
layerId = "84CDBA37-3524-4FC2-9356-5581E3F2D06C";
paths = (
{
closed = 1;
nodes = (
"382 -113 LINE",
"389 -5 LINE",
"472 14 OFFCURVE",
"533 61 OFFCURVE",
"569 152 CURVE",
"456 206 LINE",
"442 167 OFFCURVE",
"422 140 OFFCURVE",
"397 123 CURVE",
"427 548 LINE",
"438 533 OFFCURVE",
"448 514 OFFCURVE",
"456 492 CURVE",
"569 546 LINE",
"540 618 OFFCURVE",
"496 663 OFFCURVE",
"437 688 CURVE",
"446 811 LINE",
"375 811 LINE",
"368 706 LINE",
"352 709 OFFCURVE",
"335 710 OFFCURVE",
"318 710 CURVE",
"325 811 LINE",
"254 811 LINE",
"247 703 LINE",
"106 672 OFFCURVE",
"41 549 OFFCURVE",
"41 349 CURVE SMOOTH",
"41 174 OFFCURVE",
"91 57 OFFCURVE",
"199 10 CURVE",
"190 -113 LINE",
"261 -113 LINE",
"268 -9 LINE",
"283 -11 OFFCURVE",
"299 -12 OFFCURVE",
"316 -12 CURVE SMOOTH",
"318 -12 LINE",
"311 -113 LINE"
);
},
{
closed = 1;
nodes = (
"330 598 OFFCURVE",
"346 596 OFFCURVE",
"361 592 CURVE",
"327 100 LINE",
"313 100 LINE SMOOTH",
"298 100 OFFCURVE",
"286 101 OFFCURVE",
"275 104 CURVE",
"309 598 LINE",
"313 598 LINE SMOOTH"
);
},
{
closed = 1;
nodes = (
"183 486 OFFCURVE",
"198 546 OFFCURVE",
"239 577 CURVE",
"210 154 LINE",
"190 187 OFFCURVE",
"183 233 OFFCURVE",
"183 288 CURVE SMOOTH",
"183 410 LINE SMOOTH"
);
}
);
width = 600;
}
);
note = uni20A1;
unicode = 20A1;
},
{
glyphname = uni20A4;
lastChange = "2019-02-04 10:45:10 +0000";
layers = (
{
layerId = "84CDBA37-3524-4FC2-9356-5581E3F2D06C";
paths = (
{
closed = 1;
nodes = (
"224 128 LINE",
"224 137 LINE",
"247 149 OFFCURVE",
"273 169 OFFCURVE",
"288 200 CURVE",
"424 200 LINE",
"424 289 LINE",
"300 289 LINE",
"296 313 OFFCURVE",
"287 336 OFFCURVE",
"278 357 CURVE",
"424 357 LINE",
"424 446 LINE",
"243 446 LINE",
"240 456 OFFCURVE",
"239 467 OFFCURVE",
"239 480 CURVE SMOOTH",
"239 544 OFFCURVE",
"277 581 OFFCURVE",
"340 581 CURVE SMOOTH",
"396 581 OFFCURVE",
"429 552 OFFCURVE",
"460 512 CURVE",
"559 605 LINE",
"508 673 OFFCURVE",
"436 710 OFFCURVE",
"335 710 CURVE SMOOTH",
"260 710 OFFCURVE",
"198 689 OFFCURVE",
"155 653 CURVE SMOOTH",
"111 617 OFFCURVE",
"86 565 OFFCURVE",
"86 504 CURVE SMOOTH",
"86 483 OFFCURVE",
"89 465 OFFCURVE",
"93 446 CURVE",
"49 446 LINE",
"49 357 LINE",
"127 357 LINE",
"138 334 OFFCURVE",
"146 312 OFFCURVE",
"151 289 CURVE",
"49 289 LINE",
"49 200 LINE",
"141 200 LINE",
"127 172 OFFCURVE",
"103 151 OFFCURVE",
"69 136 CURVE",
"69 0 LINE",
"553 0 LINE",
"553 128 LINE"
);
}
);
width = 600;
}
);
note = uni20A4;
unicode = 20A4;
},
{
glyphname = uni20A6;
lastChange = "2019-02-04 10:45:10 +0000";
layers = (
{
layerId = "84CDBA37-3524-4FC2-9356-5581E3F2D06C";
paths = (
{
closed = 1;
nodes = (
"532 0 LINE",
"532 231 LINE",
"577 231 LINE",
"577 325 LINE",
"532 325 LINE",
"532 373 LINE",
"577 373 LINE",
"577 467 LINE",
"532 467 LINE",
"532 698 LINE",
"422 698 LINE",
"422 460 LINE",
"322 460 LINE",
"256 698 LINE",
"68 698 LINE",
"68 467 LINE",
"23 467 LINE",
"23 373 LINE",
"68 373 LINE",
"68 325 LINE",
"23 325 LINE",
"23 231 LINE",
"68 231 LINE",
"68 0 LINE",
"178 0 LINE",
"178 238 LINE",
"278 238 LINE",
"344 0 LINE"
);
},
{
closed = 1;
nodes = (
"178 564 LINE",
"188 564 LINE",
"256 318 LINE",
"178 318 LINE"
);
},
{
closed = 1;
nodes = (
"422 380 LINE",
"422 134 LINE",
"412 134 LINE",
"344 380 LINE"
);
}
);
width = 600;
}
);
note = uni20A6;
unicode = 20A6;
},
{
glyphname = uni20A8;
lastChange = "2019-02-04 10:45:10 +0000";
layers = (
{
layerId = "84CDBA37-3524-4FC2-9356-5581E3F2D06C";
paths = (
{
closed = 1;
nodes = (
"156 321 LINE",
"169 321 LINE",
"227 128 LINE SMOOTH",
"258 25 OFFCURVE",
"321 -12 OFFCURVE",
"417 -12 CURVE SMOOTH",
"537 -12 OFFCURVE",
"590 45 OFFCURVE",
"590 128 CURVE SMOOTH",
"590 184 OFFCURVE",
"567 220 OFFCURVE",
"524 263 CURVE SMOOTH",
"509 278 LINE SMOOTH",
"485 302 OFFCURVE",
"475 317 OFFCURVE",
"475 341 CURVE SMOOTH",
"475 366 OFFCURVE",
"488 379 OFFCURVE",
"513 379 CURVE SMOOTH",
"532 379 OFFCURVE",
"546 373 OFFCURVE",
"562 362 CURVE",
"600 449 LINE",
"571 468 OFFCURVE",
"533 476 OFFCURVE",
"500 476 CURVE SMOOTH",
"416 476 OFFCURVE",
"357 425 OFFCURVE",
"357 337 CURVE SMOOTH",
"357 282 OFFCURVE",
"380 246 OFFCURVE",
"423 203 CURVE SMOOTH",
"438 188 LINE SMOOTH",
"462 164 OFFCURVE",
"472 149 OFFCURVE",
"472 126 CURVE SMOOTH",
"472 99 OFFCURVE",
"457 86 OFFCURVE",
"426 86 CURVE SMOOTH",
"379 86 OFFCURVE",
"358 115 OFFCURVE",
"342 166 CURVE SMOOTH",
"284 347 LINE",
"341 380 OFFCURVE",
"368 445 OFFCURVE",
"368 516 CURVE SMOOTH",
"368 632 OFFCURVE",
"304 698 OFFCURVE",
"187 698 CURVE SMOOTH",
"37 698 LINE",
"37 0 LINE",
"156 0 LINE"
);
},
{
closed = 1;
nodes = (
"156 597 LINE",
"190 597 LINE SMOOTH",
"231 597 OFFCURVE",
"248 578 OFFCURVE",
"248 529 CURVE SMOOTH",
"248 487 LINE SMOOTH",
"248 438 OFFCURVE",
"231 419 OFFCURVE",
"190 419 CURVE SMOOTH",
"156 419 LINE"
);
}
);
width = 600;
}
);
note = uni20A8;
unicode = 20A8;
},
{
glyphname = uni20A9;
lastChange = "2019-02-04 10:45:10 +0000";
layers = (
{
layerId = "84CDBA37-3524-4FC2-9356-5581E3F2D06C";
paths = (
{
closed = 1;
nodes = (
"257 0 LINE",
"288 444 LINE",
"312 444 LINE",
"343 0 LINE",
"523 0 LINE",
"532 270 LINE",
"592 270 LINE",
"592 361 LINE",
"535 361 LINE",
"537 437 LINE",
"592 437 LINE",
"592 529 LINE",
"540 529 LINE",
"546 698 LINE",
"423 698 LINE",
"423 522 LINE",
"180 522 LINE",
"180 698 LINE",
"54 698 LINE",
"60 529 LINE",
"8 529 LINE",
"8 437 LINE",
"63 437 LINE",
"65 361 LINE",
"8 361 LINE",
"8 270 LINE",
"68 270 LINE",
"77 0 LINE"
);
},
{
closed = 1;
nodes = (
"172 444 LINE",
"222 444 LINE",
"197 93 LINE",
"172 93 LINE"
);
},
{
closed = 1;
nodes = (
"381 444 LINE",
"431 444 LINE",
"431 93 LINE",
"406 93 LINE"
);
}
);
width = 600;
}
);
note = uni20A9;
unicode = 20A9;
},
{
glyphname = uni20AA;
lastChange = "2019-02-04 10:45:10 +0000";
layers = (
{
layerId = "84CDBA37-3524-4FC2-9356-5581E3F2D06C";
paths = (
{
closed = 1;
nodes = (
"381 0 LINE SMOOTH",
"436 0 OFFCURVE",
"484 16 OFFCURVE",
"517 49 CURVE SMOOTH",
"550 82 OFFCURVE",
"570 131 OFFCURVE",
"570 198 CURVE SMOOTH",
"570 698 LINE",
"467 698 LINE",
"467 199 LINE SMOOTH",
"467 120 OFFCURVE",
"420 90 OFFCURVE",
"364 90 CURVE SMOOTH",
"279 90 LINE",
"279 531 LINE",
"184 531 LINE",
"184 0 LINE"
);
},
{
closed = 1;
nodes = (
"137 608 LINE",
"223 608 LINE SMOOTH",
"279 608 OFFCURVE",
"325 578 OFFCURVE",
"325 499 CURVE SMOOTH",
"325 167 LINE",
"420 167 LINE",
"420 500 LINE SMOOTH",
"420 567 OFFCURVE",
"400 616 OFFCURVE",
"368 649 CURVE SMOOTH",
"335 682 OFFCURVE",
"288 698 OFFCURVE",
"233 698 CURVE SMOOTH",
"34 698 LINE",
"34 0 LINE",
"137 0 LINE"
);
}
);
width = 600;
}
);
note = uni20AA;
unicode = 20AA;
},
{
glyphname = uni20AB;
lastChange = "2019-02-04 10:45:10 +0000";
layers = (
{
layerId = "84CDBA37-3524-4FC2-9356-5581E3F2D06C";
paths = (
{
closed = 1;
nodes = (
"519 166 LINE",
"519 584 LINE",
"569 584 LINE",
"569 689 LINE",
"519 689 LINE",
"519 740 LINE",
"379 740 LINE",
"379 689 LINE",
"253 689 LINE",
"253 584 LINE",
"379 584 LINE",
"379 447 LINE",
"373 447 LINE",
"362 472 OFFCURVE",
"348 498 OFFCURVE",
"326 515 CURVE SMOOTH",
"304 532 OFFCURVE",
"275 544 OFFCURVE",
"236 544 CURVE SMOOTH",
"139 544 OFFCURVE",
"70 483 OFFCURVE",
"70 350 CURVE SMOOTH",
"70 283 OFFCURVE",
"88 235 OFFCURVE",
"117 203 CURVE SMOOTH",
"146 171 OFFCURVE",
"188 156 OFFCURVE",
"236 156 CURVE SMOOTH",
"275 156 OFFCURVE",
"304 168 OFFCURVE",
"326 185 CURVE SMOOTH",
"348 202 OFFCURVE",
"362 226 OFFCURVE",
"373 253 CURVE",
"379 253 LINE",
"379 166 LINE"
);
},
{
closed = 1;
nodes = (
"240 260 OFFCURVE",
"214 294 OFFCURVE",
"214 341 CURVE SMOOTH",
"214 359 LINE SMOOTH",
"214 406 OFFCURVE",
"240 440 OFFCURVE",
"296 440 CURVE SMOOTH",
"349 440 OFFCURVE",
"379 408 OFFCURVE",
"379 376 CURVE SMOOTH",
"379 324 LINE SMOOTH",
"379 292 OFFCURVE",
"349 260 OFFCURVE",
"296 260 CURVE SMOOTH"
);
},
{
closed = 1;
nodes = (
"542 107 LINE",
"82 107 LINE",
"82 0 LINE",
"542 0 LINE"
);
}
);
width = 600;
}
);
note = uni20AB;
unicode = 20AB;
},
{
glyphname = uni20AD;
lastChange = "2019-02-04 10:45:10 +0000";
layers = (
{
layerId = "84CDBA37-3524-4FC2-9356-5581E3F2D06C";
paths = (
{
closed = 1;
nodes = (
"259 296 LINE",
"433 0 LINE",
"601 0 LINE",
"420 296 LINE",
"555 296 LINE",
"555 416 LINE",
"410 416 LINE",
"585 698 LINE",
"424 698 LINE",
"259 416 LINE",
"219 416 LINE",
"219 698 LINE",
"69 698 LINE",
"69 416 LINE",
"19 416 LINE",
"19 296 LINE",
"69 296 LINE",
"69 0 LINE",
"219 0 LINE",
"219 296 LINE"
);
}
);
width = 600;
}
);
note = uni20AD;
unicode = 20AD;
},
{
glyphname = uni20AE;
lastChange = "2019-02-04 10:45:10 +0000";
layers = (
{
layerId = "84CDBA37-3524-4FC2-9356-5581E3F2D06C";
paths = (
{
closed = 1;
nodes = (
"500 334 LINE",
"371 278 LINE",
"371 362 LINE",
"500 418 LINE",
"500 518 LINE",
"371 462 LINE",
"371 581 LINE",
"576 581 LINE",
"576 698 LINE",
"24 698 LINE",
"24 581 LINE",
"229 581 LINE",
"229 400 LINE",
"100 344 LINE",
"100 244 LINE",
"229 300 LINE",
"229 216 LINE",
"100 160 LINE",
"100 60 LINE",
"229 116 LINE",
"229 0 LINE",
"371 0 LINE",
"371 178 LINE",
"500 234 LINE"
);
}
);
width = 600;
}
);
note = uni20AE;
unicode = 20AE;
},
{
glyphname = uni20B1;
lastChange = "2019-02-04 10:45:10 +0000";
layers = (
{
layerId = "84CDBA37-3524-4FC2-9356-5581E3F2D06C";
paths = (
{
closed = 1;
nodes = (
"318 171 LINE SMOOTH",
"425 171 OFFCURVE",
"491 213 OFFCURVE",
"518 317 CURVE",
"579 317 LINE",
"579 411 LINE",
"531 411 LINE",
"531 460 LINE",
"579 460 LINE",
"579 554 LINE",
"518 554 LINE",
"491 657 OFFCURVE",
"423 698 OFFCURVE",
"318 698 CURVE SMOOTH",
"76 698 LINE",
"76 554 LINE",
"25 554 LINE",
"25 460 LINE",
"76 460 LINE",
"76 411 LINE",
"25 411 LINE",
"25 317 LINE",
"76 317 LINE",
"76 0 LINE",
"218 0 LINE",
"218 171 LINE"
);
},
{
closed = 1;
nodes = (
"293 604 LINE SMOOTH",
"349 604 OFFCURVE",
"371 588 OFFCURVE",
"382 549 CURVE",
"218 549 LINE",
"218 604 LINE"
);
},
{
closed = 1;
nodes = (
"218 464 LINE",
"387 464 LINE",
"387 407 LINE",
"218 407 LINE"
);
},
{
closed = 1;
nodes = (
"218 322 LINE",
"383 322 LINE",
"374 283 OFFCURVE",
"350 266 OFFCURVE",
"293 266 CURVE SMOOTH",
"218 266 LINE"
);
}
);
width = 600;
}
);
note = uni20B1;
unicode = 20B1;
},
{
glyphname = uni20B2;
lastChange = "2019-02-04 10:45:10 +0000";
layers = (
{
layerId = "84CDBA37-3524-4FC2-9356-5581E3F2D06C";
paths = (
{
closed = 1;
nodes = (
"296 -113 LINE",
"310 -13 LINE",
"385 -12 OFFCURVE",
"443 14 OFFCURVE",
"483 57 CURVE SMOOTH",
"523 100 OFFCURVE",
"545 161 OFFCURVE",
"545 234 CURVE SMOOTH",
"545 373 LINE",
"354 373 LINE",
"382 568 LINE",
"405 549 OFFCURVE",
"417 523 OFFCURVE",
"426 492 CURVE",
"539 532 LINE",
"515 613 OFFCURVE",
"472 666 OFFCURVE",
"410 691 CURVE",
"426 811 LINE",
"310 811 LINE",
"296 710 LINE",
"207 709 OFFCURVE",
"142 675 OFFCURVE",
"99 614 CURVE SMOOTH",
"55 553 OFFCURVE",
"35 463 OFFCURVE",
"35 350 CURVE SMOOTH",
"35 167 OFFCURVE",
"86 49 OFFCURVE",
"197 5 CURVE",
"180 -113 LINE"
);
},
{
closed = 1;
nodes = (
"196 161 OFFCURVE",
"184 211 OFFCURVE",
"184 287 CURVE SMOOTH",
"184 410 LINE SMOOTH",
"184 527 OFFCURVE",
"214 587 OFFCURVE",
"290 594 CURVE",
"224 132 LINE"
);
},
{
closed = 1;
nodes = (
"416 267 LINE",
"416 218 LINE SMOOTH",
"416 157 OFFCURVE",
"388 107 OFFCURVE",
"316 102 CURVE",
"339 267 LINE"
);
}
);
width = 600;
}
);
note = uni20B2;
unicode = 20B2;
},
{
glyphname = uni20B4;
lastChange = "2019-02-04 10:45:10 +0000";
layers = (
{
layerId = "84CDBA37-3524-4FC2-9356-5581E3F2D06C";
paths = (
{
closed = 1;
nodes = (
"405 -12 OFFCURVE",
"483 27 OFFCURVE",
"530 84 CURVE",
"454 173 LINE",
"405 121 OFFCURVE",
"361 102 OFFCURVE",
"316 102 CURVE SMOOTH",
"256 102 OFFCURVE",
"223 133 OFFCURVE",
"223 188 CURVE SMOOTH",
"223 203 OFFCURVE",
"224 217 OFFCURVE",
"231 230 CURVE",
"573 230 LINE",
"573 312 LINE",
"311 312 LINE",
"311 318 LINE",
"460 402 LINE",
"573 402 LINE",
"573 484 LINE",
"497 484 LINE",
"502 499 OFFCURVE",
"505 519 OFFCURVE",
"505 538 CURVE SMOOTH",
"505 583 OFFCURVE",
"486 627 OFFCURVE",
"450 659 CURVE SMOOTH",
"414 690 OFFCURVE",
"362 710 OFFCURVE",
"295 710 CURVE SMOOTH",
"211 710 OFFCURVE",
"142 678 OFFCURVE",
"98 627 CURVE",
"173 538 LINE",
"205 573 OFFCURVE",
"242 593 OFFCURVE",
"289 593 CURVE SMOOTH",
"340 593 OFFCURVE",
"370 568 OFFCURVE",
"370 516 CURVE SMOOTH",
"370 503 OFFCURVE",
"368 493 OFFCURVE",
"364 484 CURVE",
"27 484 LINE",
"27 402 LINE",
"293 402 LINE",
"293 396 LINE",
"144 312 LINE",
"27 312 LINE",
"27 230 LINE",
"95 230 LINE",
"88 215 OFFCURVE",
"87 198 OFFCURVE",
"87 181 CURVE SMOOTH",
"87 128 OFFCURVE",
"106 80 OFFCURVE",
"143 45 CURVE SMOOTH",
"180 9 OFFCURVE",
"236 -12 OFFCURVE",
"308 -12 CURVE SMOOTH"
);
}
);
width = 600;
}
);
note = uni20B4;
unicode = 20B4;
},
{
glyphname = uni20B5;
lastChange = "2019-02-04 10:45:10 +0000";
layers = (
{
layerId = "84CDBA37-3524-4FC2-9356-5581E3F2D06C";
paths = (
{
closed = 1;
nodes = (
"301 -113 LINE",
"315 -12 LINE",
"316 -12 LINE SMOOTH",
"388 -12 OFFCURVE",
"443 7 OFFCURVE",
"483 43 CURVE SMOOTH",
"523 78 OFFCURVE",
"548 128 OFFCURVE",
"563 189 CURVE",
"431 221 LINE",
"424 189 OFFCURVE",
"413 160 OFFCURVE",
"396 138 CURVE SMOOTH",
"379 116 OFFCURVE",
"354 102 OFFCURVE",
"321 101 CURVE",
"388 576 LINE",
"415 557 OFFCURVE",
"428 528 OFFCURVE",
"439 495 CURVE",
"556 534 LINE",
"535 606 OFFCURVE",
"494 667 OFFCURVE",
"415 695 CURVE",
"431 811 LINE",
"316 811 LINE",
"302 710 LINE",
"125 702 OFFCURVE",
"41 576 OFFCURVE",
"41 349 CURVE SMOOTH",
"41 170 OFFCURVE",
"92 53 OFFCURVE",
"203 8 CURVE",
"186 -113 LINE"
);
},
{
closed = 1;
nodes = (
"204 167 OFFCURVE",
"191 217 OFFCURVE",
"191 288 CURVE SMOOTH",
"191 410 LINE SMOOTH",
"191 535 OFFCURVE",
"230 585 OFFCURVE",
"295 596 CURVE",
"230 137 LINE"
);
}
);
width = 600;
}
);
note = uni20B5;
unicode = 20B5;
},
{
glyphname = uni20B8;
lastChange = "2019-02-04 10:45:10 +0000";
layers = (
{
layerId = "84CDBA37-3524-4FC2-9356-5581E3F2D06C";
paths = (
{
closed = 1;
nodes = (
"555 698 LINE",
"45 698 LINE",
"45 593 LINE",
"555 593 LINE"
);
},
{
closed = 1;
nodes = (
"556 521 LINE",
"44 521 LINE",
"44 416 LINE",
"225 416 LINE",
"225 0 LINE",
"375 0 LINE",
"375 416 LINE",
"556 416 LINE"
);
}
);
width = 600;
}
);
note = uni20B8;
unicode = 20B8;
},
{
glyphname = uni20B9;
lastChange = "2019-02-04 10:45:10 +0000";
layers = (
{
layerId = "84CDBA37-3524-4FC2-9356-5581E3F2D06C";
paths = (
{
closed = 1;
nodes = (
"319 273 LINE",
"387 302 OFFCURVE",
"426 351 OFFCURVE",
"433 427 CURVE",
"564 427 LINE",
"564 519 LINE",
"424 519 LINE",
"409 559 OFFCURVE",
"382 579 OFFCURVE",
"354 584 CURVE",
"354 589 LINE",
"564 589 LINE",
"564 698 LINE",
"46 698 LINE",
"46 589 LINE",
"167 589 LINE SMOOTH",
"232 589 OFFCURVE",
"281 570 OFFCURVE",
"288 519 CURVE",
"46 519 LINE",
"46 427 LINE",
"288 427 LINE",
"283 372 OFFCURVE",
"234 355 OFFCURVE",
"167 355 CURVE SMOOTH",
"46 355 LINE",
"46 246 LINE",
"168 246 LINE",
"352 0 LINE",
"529 0 LINE"
);
}
);
width = 600;
}
);
note = uni20B9;
unicode = 20B9;
},
{
glyphname = uni20BA;
lastChange = "2019-02-04 10:45:10 +0000";
layers = (
{
layerId = "84CDBA37-3524-4FC2-9356-5581E3F2D06C";
paths = (
{
closed = 1;
nodes = (
"313 0 LINE SMOOTH",
"405 0 OFFCURVE",
"472 33 OFFCURVE",
"515 89 CURVE SMOOTH",
"558 144 OFFCURVE",
"578 220 OFFCURVE",
"578 305 CURVE",
"436 305 LINE",
"436 236 OFFCURVE",
"425 190 OFFCURVE",
"401 162 CURVE SMOOTH",
"377 133 OFFCURVE",
"342 122 OFFCURVE",
"294 122 CURVE SMOOTH",
"248 122 LINE",
"248 264 LINE",
"409 338 LINE",
"409 442 LINE",
"248 368 LINE",
"248 434 LINE",
"409 508 LINE",
"409 612 LINE",
"248 538 LINE",
"248 698 LINE",
"109 698 LINE",
"109 473 LINE",
"39 441 LINE",
"39 337 LINE",
"109 369 LINE",
"109 303 LINE",
"39 271 LINE",
"39 167 LINE",
"109 199 LINE",
"109 0 LINE"
);
}
);
width = 600;
}
);
note = uni20BA;
unicode = 20BA;
},
{
glyphname = uni20BD;
lastChange = "2019-02-04 10:45:10 +0000";
layers = (
{
layerId = "84CDBA37-3524-4FC2-9356-5581E3F2D06C";
paths = (
{
closed = 1;
nodes = (
"449 223 LINE",
"243 223 LINE",
"243 275 LINE",
"352 275 LINE SMOOTH",
"489 275 OFFCURVE",
"565 357 OFFCURVE",
"565 486 CURVE SMOOTH",
"565 615 OFFCURVE",
"489 698 OFFCURVE",
"352 698 CURVE SMOOTH",
"92 698 LINE",
"92 384 LINE",
"32 384 LINE",
"32 275 LINE",
"92 275 LINE",
"92 223 LINE",
"32 223 LINE",
"32 114 LINE",
"92 114 LINE",
"92 0 LINE",
"243 0 LINE",
"243 114 LINE",
"449 114 LINE"
);
},
{
closed = 1;
nodes = (
"314 587 LINE SMOOTH",
"385 587 OFFCURVE",
"408 562 OFFCURVE",
"408 501 CURVE SMOOTH",
"408 470 LINE SMOOTH",
"408 409 OFFCURVE",
"385 384 OFFCURVE",
"314 384 CURVE SMOOTH",
"243 384 LINE",
"243 587 LINE"
);
}
);
width = 600;
}
);
note = uni20BD;
unicode = 20BD;
},
{
glyphname = uni20BF;
lastChange = "2019-02-04 10:45:10 +0000";
layers = (
{
layerId = "84CDBA37-3524-4FC2-9356-5581E3F2D06C";
paths = (
{
closed = 1;
nodes = (
"397 -113 LINE",
"397 4 LINE",
"497 23 OFFCURVE",
"556 91 OFFCURVE",
"556 192 CURVE SMOOTH",
"556 287 OFFCURVE",
"508 338 OFFCURVE",
"420 359 CURVE",
"420 365 LINE",
"496 388 OFFCURVE",
"534 433 OFFCURVE",
"534 512 CURVE SMOOTH",
"534 604 OFFCURVE",
"486 666 OFFCURVE",
"397 689 CURVE",
"397 811 LINE",
"313 811 LINE",
"313 698 LINE",
"252 698 LINE",
"252 811 LINE",
"168 811 LINE",
"168 698 LINE",
"77 698 LINE",
"77 0 LINE",
"168 0 LINE",
"168 -113 LINE",
"252 -113 LINE",
"252 0 LINE",
"313 0 LINE",
"313 -113 LINE"
);
},
{
closed = 1;
nodes = (
"280 597 LINE SMOOTH",
"351 597 OFFCURVE",
"381 577 OFFCURVE",
"381 514 CURVE SMOOTH",
"381 485 LINE SMOOTH",
"381 424 OFFCURVE",
"351 402 OFFCURVE",
"280 402 CURVE SMOOTH",
"223 402 LINE",
"223 597 LINE"
);
},
{
closed = 1;
nodes = (
"299 302 LINE SMOOTH",
"371 302 OFFCURVE",
"403 281 OFFCURVE",
"403 217 CURVE SMOOTH",
"403 187 LINE SMOOTH",
"403 123 OFFCURVE",
"371 101 OFFCURVE",
"299 101 CURVE SMOOTH",
"223 101 LINE",
"223 302 LINE"
);
}
);
width = 600;
}
);
note = uni20BF;
unicode = 20BF;
},
{
glyphname = fi;
lastChange = "2019-02-04 10:45:10 +0000";
layers = (
{
layerId = "84CDBA37-3524-4FC2-9356-5581E3F2D06C";
paths = (
{
closed = 1;
nodes = (
"223 0 LINE",
"223 401 LINE",
"387 401 LINE",
"387 0 LINE",
"535 0 LINE",
"535 516 LINE",
"223 516 LINE",
"223 625 LINE",
"329 625 LINE",
"329 740 LINE",
"232 740 LINE SMOOTH",
"125 740 OFFCURVE",
"75 678 OFFCURVE",
"75 591 CURVE SMOOTH",
"75 516 LINE",
"31 516 LINE",
"31 401 LINE",
"75 401 LINE",
"75 0 LINE"
);
},
{
closed = 1;
nodes = (
"528 582 OFFCURVE",
"550 613 OFFCURVE",
"550 652 CURVE SMOOTH",
"550 681 LINE SMOOTH",
"550 721 OFFCURVE",
"528 751 OFFCURVE",
"461 751 CURVE SMOOTH",
"394 751 OFFCURVE",
"372 721 OFFCURVE",
"372 681 CURVE SMOOTH",
"372 652 LINE SMOOTH",
"372 613 OFFCURVE",
"394 582 OFFCURVE",
"461 582 CURVE SMOOTH"
);
}
);
width = 600;
}
);
note = fi;
unicode = FB01;
},
{
glyphname = fl;
lastChange = "2019-02-04 10:45:10 +0000";
layers = (
{
layerId = "84CDBA37-3524-4FC2-9356-5581E3F2D06C";
paths = (
{
closed = 1;
nodes = (
"223 0 LINE",
"223 401 LINE",
"331 401 LINE",
"331 516 LINE",
"223 516 LINE",
"223 625 LINE",
"330 625 LINE",
"330 740 LINE",
"232 740 LINE SMOOTH",
"125 740 OFFCURVE",
"75 678 OFFCURVE",
"75 591 CURVE SMOOTH",
"75 516 LINE",
"31 516 LINE",
"31 401 LINE",
"75 401 LINE",
"75 0 LINE"
);
},
{
closed = 1;
nodes = (
"535 0 LINE",
"535 740 LINE",
"387 740 LINE",
"387 0 LINE"
);
}
);
width = 600;
}
);
note = fl;
unicode = FB02;
},
{
glyphname = aogonek;
lastChange = "2019-02-04 10:45:10 +0000";
layers = (
{
layerId = "84CDBA37-3524-4FC2-9356-5581E3F2D06C";
paths = (
{
closed = 1;
nodes = (
"515 107 LINE",
"515 333 LINE SMOOTH",
"515 464 OFFCURVE",
"431 528 OFFCURVE",
"290 528 CURVE SMOOTH",
"174 528 OFFCURVE",
"101 486 OFFCURVE",
"66 427 CURVE",
"147 355 LINE",
"175 394 OFFCURVE",
"210 420 OFFCURVE",
"273 420 CURVE SMOOTH",
"341 420 OFFCURVE",
"367 388 OFFCURVE",
"367 327 CURVE SMOOTH",
"367 301 LINE",
"284 301 LINE SMOOTH",
"132 301 OFFCURVE",
"52 250 OFFCURVE",
"52 142 CURVE SMOOTH",
"52 45 OFFCURVE",
"118 -12 OFFCURVE",
"218 -12 CURVE SMOOTH",
"298 -12 OFFCURVE",
"356 23 OFFCURVE",
"375 91 CURVE",
"380 91 LINE",
"385 35 OFFCURVE",
"419 4 OFFCURVE",
"475 0 CURVE",
"477 -4 LINE",
"402 -39 OFFCURVE",
"358 -71 OFFCURVE",
"358 -127 CURVE SMOOTH",
"358 -159 OFFCURVE",
"372 -181 OFFCURVE",
"395 -193 CURVE SMOOTH",
"418 -206 OFFCURVE",
"449 -212 OFFCURVE",
"482 -212 CURVE SMOOTH",
"546 -212 OFFCURVE",
"587 -193 OFFCURVE",
"604 -161 CURVE",
"551 -110 LINE",
"536 -126 OFFCURVE",
"520 -138 OFFCURVE",
"496 -138 CURVE SMOOTH",
"476 -138 OFFCURVE",
"458 -130 OFFCURVE",
"458 -105 CURVE SMOOTH",
"458 -93 OFFCURVE",
"462 -82 OFFCURVE",
"478 -66 CURVE SMOOTH",
"494 -50 OFFCURVE",
"523 -31 OFFCURVE",
"572 0 CURVE",
"572 107 LINE"
);
},
{
closed = 1;
nodes = (
"367 159 LINE SMOOTH",
"367 111 OFFCURVE",
"326 85 OFFCURVE",
"273 85 CURVE SMOOTH",
"226 85 OFFCURVE",
"197 104 OFFCURVE",
"197 140 CURVE SMOOTH",
"197 160 LINE SMOOTH",
"197 201 OFFCURVE",
"227 221 OFFCURVE",
"288 221 CURVE SMOOTH",
"367 221 LINE"
);
}
);
width = 600;
}
);
note = aogonek;
unicode = 0105;
},
{
glyphname = aogonek.alt01;
lastChange = "2019-02-04 10:45:10 +0000";
layers = (
{
layerId = "84CDBA37-3524-4FC2-9356-5581E3F2D06C";
paths = (
{
closed = 1;
nodes = (
"515 -212 OFFCURVE",
"556 -193 OFFCURVE",
"573 -161 CURVE",
"520 -110 LINE",
"505 -126 OFFCURVE",
"489 -138 OFFCURVE",
"465 -138 CURVE SMOOTH",
"445 -138 OFFCURVE",
"427 -130 OFFCURVE",
"427 -105 CURVE SMOOTH",
"427 -93 OFFCURVE",
"431 -82 OFFCURVE",
"447 -66 CURVE SMOOTH",
"463 -50 OFFCURVE",
"492 -31 OFFCURVE",
"541 0 CURVE",
"541 516 LINE",
"393 516 LINE",
"393 422 LINE",
"386 422 LINE",
"373 453 OFFCURVE",
"355 479 OFFCURVE",
"331 498 CURVE SMOOTH",
"306 517 OFFCURVE",
"274 528 OFFCURVE",
"233 528 CURVE SMOOTH",
"176 528 OFFCURVE",
"128 507 OFFCURVE",
"94 463 CURVE SMOOTH",
"60 419 OFFCURVE",
"39 351 OFFCURVE",
"39 258 CURVE SMOOTH",
"39 165 OFFCURVE",
"60 97 OFFCURVE",
"94 53 CURVE SMOOTH",
"128 9 OFFCURVE",
"176 -12 OFFCURVE",
"233 -12 CURVE SMOOTH",
"316 -12 OFFCURVE",
"359 31 OFFCURVE",
"386 94 CURVE",
"393 94 LINE",
"393 0 LINE",
"445 0 LINE",
"446 -4 LINE",
"371 -39 OFFCURVE",
"327 -71 OFFCURVE",
"327 -127 CURVE SMOOTH",
"327 -159 OFFCURVE",
"341 -181 OFFCURVE",
"364 -193 CURVE SMOOTH",
"387 -206 OFFCURVE",
"418 -212 OFFCURVE",
"451 -212 CURVE SMOOTH"
);
},
{
closed = 1;
nodes = (
"230 103 OFFCURVE",
"193 146 OFFCURVE",
"193 218 CURVE SMOOTH",
"193 298 LINE SMOOTH",
"193 370 OFFCURVE",
"230 413 OFFCURVE",
"297 413 CURVE SMOOTH",
"349 413 OFFCURVE",
"393 389 OFFCURVE",
"393 334 CURVE SMOOTH",
"393 182 LINE SMOOTH",
"393 127 OFFCURVE",
"349 103 OFFCURVE",
"297 103 CURVE SMOOTH"
);
}
);
width = 600;
}
);
note = aogonek.alt01;
},
{
glyphname = ae;
lastChange = "2019-02-04 10:45:10 +0000";
layers = (
{
layerId = "84CDBA37-3524-4FC2-9356-5581E3F2D06C";
paths = (
{
closed = 1;
nodes = (
"201 -12 OFFCURVE",
"246 24 OFFCURVE",
"258 105 CURVE",
"262 105 LINE",
"286 22 OFFCURVE",
"348 -12 OFFCURVE",
"419 -12 CURVE SMOOTH",
"464 -12 OFFCURVE",
"500 4 OFFCURVE",
"526 29 CURVE SMOOTH",
"552 54 OFFCURVE",
"567 90 OFFCURVE",
"578 129 CURVE",
"481 156 LINE",
"470 117 OFFCURVE",
"454 84 OFFCURVE",
"417 84 CURVE SMOOTH",
"370 84 OFFCURVE",
"345 136 OFFCURVE",
"345 213 CURVE SMOOTH",
"345 228 LINE",
"584 228 LINE",
"584 289 LINE SMOOTH",
"584 362 OFFCURVE",
"567 422 OFFCURVE",
"538 463 CURVE SMOOTH",
"509 504 OFFCURVE",
"467 528 OFFCURVE",
"416 528 CURVE SMOOTH",
"365 528 OFFCURVE",
"325 504 OFFCURVE",
"297 455 CURVE",
"293 455 LINE",
"270 502 OFFCURVE",
"229 528 OFFCURVE",
"168 528 CURVE SMOOTH",
"91 528 OFFCURVE",
"36 488 OFFCURVE",
"13 401 CURVE",
"105 368 LINE",
"117 411 OFFCURVE",
"132 436 OFFCURVE",
"167 436 CURVE SMOOTH",
"206 436 OFFCURVE",
"226 407 OFFCURVE",
"226 348 CURVE SMOOTH",
"226 305 LINE",
"186 305 LINE SMOOTH",
"69 305 OFFCURVE",
"4 249 OFFCURVE",
"4 141 CURVE SMOOTH",
"4 90 OFFCURVE",
"18 51 OFFCURVE",
"42 26 CURVE SMOOTH",
"66 1 OFFCURVE",
"100 -12 OFFCURVE",
"137 -12 CURVE SMOOTH"
);
},
{
closed = 1;
nodes = (
"136 78 OFFCURVE",
"120 101 OFFCURVE",
"120 138 CURVE SMOOTH",
"120 157 LINE SMOOTH",
"120 204 OFFCURVE",
"148 228 OFFCURVE",
"197 228 CURVE SMOOTH",
"226 228 LINE",
"226 179 LINE SMOOTH",
"226 114 OFFCURVE",
"212 78 OFFCURVE",
"169 78 CURVE SMOOTH"
);
},
{
closed = 1;
nodes = (
"454 438 OFFCURVE",
"475 393 OFFCURVE",
"475 337 CURVE SMOOTH",
"475 305 LINE",
"345 305 LINE",
"345 337 LINE SMOOTH",
"345 393 OFFCURVE",
"366 438 OFFCURVE",
"410 438 CURVE SMOOTH"
);
}
);
width = 600;
}
);
note = ae;
unicode = 00E6;
},
{
glyphname = ccedilla;
lastChange = "2019-02-04 10:45:10 +0000";
layers = (
{
layerId = "84CDBA37-3524-4FC2-9356-5581E3F2D06C";
paths = (
{
closed = 1;
nodes = (
"240 528 OFFCURVE",
"174 503 OFFCURVE",
"130 456 CURVE SMOOTH",
"85 409 OFFCURVE",
"60 342 OFFCURVE",
"60 258 CURVE SMOOTH",
"60 110 OFFCURVE",
"136 14 OFFCURVE",
"265 -7 CURVE",
"251 -74 LINE",
"272 -76 LINE SMOOTH",
"303 -79 OFFCURVE",
"321 -85 OFFCURVE",
"333 -92 CURVE",
"344 -100 OFFCURVE",
"347 -108 OFFCURVE",
"347 -116 CURVE SMOOTH",
"347 -133 OFFCURVE",
"328 -141 OFFCURVE",
"303 -141 CURVE SMOOTH",
"272 -141 OFFCURVE",
"250 -128 OFFCURVE",
"237 -112 CURVE",
"191 -168 LINE",
"208 -188 OFFCURVE",
"246 -212 OFFCURVE",
"315 -212 CURVE SMOOTH",
"348 -212 OFFCURVE",
"382 -207 OFFCURVE",
"407 -192 CURVE SMOOTH",
"431 -177 OFFCURVE",
"447 -156 OFFCURVE",
"447 -121 CURVE SMOOTH",
"447 -72 OFFCURVE",
"414 -52 OFFCURVE",
"374 -52 CURVE SMOOTH",
"358 -52 OFFCURVE",
"342 -55 OFFCURVE",
"326 -59 CURVE",
"322 -55 LINE",
"331 -12 LINE",
"440 -9 OFFCURVE",
"507 41 OFFCURVE",
"543 114 CURVE",
"431 178 LINE",
"408 135 OFFCURVE",
"379 106 OFFCURVE",
"322 106 CURVE SMOOTH",
"251 106 OFFCURVE",
"214 148 OFFCURVE",
"214 216 CURVE SMOOTH",
"214 300 LINE SMOOTH",
"214 368 OFFCURVE",
"252 410 OFFCURVE",
"320 410 CURVE SMOOTH",
"376 410 OFFCURVE",
"402 380 OFFCURVE",
"421 340 CURVE",
"535 402 LINE",
"499 478 OFFCURVE",
"433 528 OFFCURVE",
"320 528 CURVE SMOOTH"
);
}
);
width = 600;
}
);
note = ccedilla;
unicode = 00E7;
},
{
glyphname = dcaron;
lastChange = "2019-02-04 10:45:10 +0000";
layers = (
{
layerId = "84CDBA37-3524-4FC2-9356-5581E3F2D06C";
paths = (
{
closed = 1;
nodes = (
"254 -12 OFFCURVE",
"286 30 OFFCURVE",
"306 93 CURVE",
"314 93 LINE",
"314 0 LINE",
"455 0 LINE",
"455 740 LINE",
"314 740 LINE",
"314 423 LINE",
"306 423 LINE",
"286 486 OFFCURVE",
"254 528 OFFCURVE",
"185 528 CURVE SMOOTH",
"86 528 OFFCURVE",
"27 443 OFFCURVE",
"27 258 CURVE SMOOTH",
"27 73 OFFCURVE",
"86 -12 OFFCURVE",
"185 -12 CURVE SMOOTH"
);
},
{
closed = 1;
nodes = (
"200 97 OFFCURVE",
"174 127 OFFCURVE",
"174 200 CURVE SMOOTH",
"174 316 LINE SMOOTH",
"174 389 OFFCURVE",
"200 419 OFFCURVE",
"244 419 CURVE SMOOTH",
"285 419 OFFCURVE",
"314 392 OFFCURVE",
"314 336 CURVE SMOOTH",
"314 180 LINE SMOOTH",
"314 124 OFFCURVE",
"285 97 OFFCURVE",
"244 97 CURVE SMOOTH"
);
},
{
closed = 1;
nodes = (
"583 529 LINE",
"637 740 LINE",
"508 740 LINE",
"506 529 LINE"
);
}
);
width = 600;
}
);
note = dcaron;
unicode = 010F;
},
{
glyphname = dcroat;
lastChange = "2019-02-04 10:45:10 +0000";
layers = (
{
layerId = "84CDBA37-3524-4FC2-9356-5581E3F2D06C";
paths = (
{
closed = 1;
nodes = (
"541 0 LINE",
"541 580 LINE",
"596 580 LINE",
"596 690 LINE",
"541 690 LINE",
"541 740 LINE",
"393 740 LINE",
"393 690 LINE",
"253 690 LINE",
"253 580 LINE",
"393 580 LINE",
"393 422 LINE",
"386 422 LINE",
"373 453 OFFCURVE",
"355 479 OFFCURVE",
"331 498 CURVE SMOOTH",
"306 517 OFFCURVE",
"274 528 OFFCURVE",
"233 528 CURVE SMOOTH",
"176 528 OFFCURVE",
"128 507 OFFCURVE",
"94 463 CURVE SMOOTH",
"60 419 OFFCURVE",
"39 351 OFFCURVE",
"39 258 CURVE SMOOTH",
"39 165 OFFCURVE",
"60 97 OFFCURVE",
"94 53 CURVE SMOOTH",
"128 9 OFFCURVE",
"176 -12 OFFCURVE",
"233 -12 CURVE SMOOTH",
"316 -12 OFFCURVE",
"359 31 OFFCURVE",
"386 94 CURVE",
"393 94 LINE",
"393 0 LINE"
);
},
{
closed = 1;
nodes = (
"230 103 OFFCURVE",
"193 146 OFFCURVE",
"193 218 CURVE SMOOTH",
"193 298 LINE SMOOTH",
"193 370 OFFCURVE",
"230 413 OFFCURVE",
"297 413 CURVE SMOOTH",
"349 413 OFFCURVE",
"393 389 OFFCURVE",
"393 334 CURVE SMOOTH",
"393 182 LINE SMOOTH",
"393 127 OFFCURVE",
"349 103 OFFCURVE",
"297 103 CURVE SMOOTH"
);
}
);
width = 600;
}
);
note = dcroat;
unicode = 0111;
},
{
glyphname = eth;
lastChange = "2019-02-04 10:45:10 +0000";
layers = (
{
layerId = "84CDBA37-3524-4FC2-9356-5581E3F2D06C";
paths = (
{
closed = 1;
nodes = (
"348 703 LINE",
"331 716 OFFCURVE",
"314 729 OFFCURVE",
"297 740 CURVE",
"71 740 LINE",
"131 709 OFFCURVE",
"185 675 OFFCURVE",
"233 636 CURVE",
"151 588 LINE",
"202 528 LINE",
"294 582 LINE",
"350 527 OFFCURVE",
"389 469 OFFCURVE",
"408 408 CURVE",
"399 404 LINE",
"367 464 OFFCURVE",
"318 500 OFFCURVE",
"242 500 CURVE SMOOTH",
"181 500 OFFCURVE",
"131 476 OFFCURVE",
"96 433 CURVE SMOOTH",
"60 389 OFFCURVE",
"40 328 OFFCURVE",
"40 253 CURVE SMOOTH",
"40 170 OFFCURVE",
"65 104 OFFCURVE",
"110 59 CURVE SMOOTH",
"154 14 OFFCURVE",
"220 -12 OFFCURVE",
"303 -12 CURVE SMOOTH",
"380 -12 OFFCURVE",
"445 10 OFFCURVE",
"490 57 CURVE SMOOTH",
"535 104 OFFCURVE",
"561 177 OFFCURVE",
"561 278 CURVE SMOOTH",
"561 359 OFFCURVE",
"545 430 OFFCURVE",
"518 491 CURVE SMOOTH",
"490 552 OFFCURVE",
"452 605 OFFCURVE",
"408 649 CURVE",
"483 693 LINE",
"433 753 LINE"
);
},
{
closed = 1;
nodes = (
"235 98 OFFCURVE",
"193 141 OFFCURVE",
"193 217 CURVE SMOOTH",
"193 271 LINE SMOOTH",
"193 347 OFFCURVE",
"233 388 OFFCURVE",
"301 388 CURVE SMOOTH",
"366 388 OFFCURVE",
"408 349 OFFCURVE",
"408 273 CURVE SMOOTH",
"408 217 LINE SMOOTH",
"408 141 OFFCURVE",
"369 98 OFFCURVE",
"302 98 CURVE SMOOTH"
);
}
);
width = 600;
}
);
note = eth;
unicode = 00F0;
},
{
glyphname = eogonek;
lastChange = "2019-02-04 10:45:10 +0000";
layers = (
{
layerId = "84CDBA37-3524-4FC2-9356-5581E3F2D06C";
paths = (
{
closed = 1;
nodes = (
"427 -212 OFFCURVE",
"468 -193 OFFCURVE",
"485 -161 CURVE",
"432 -110 LINE",
"417 -126 OFFCURVE",
"401 -138 OFFCURVE",
"377 -138 CURVE SMOOTH",
"357 -138 OFFCURVE",
"339 -130 OFFCURVE",
"339 -105 CURVE SMOOTH",
"339 -92 OFFCURVE",
"344 -80 OFFCURVE",
"359 -66 CURVE SMOOTH",
"374 -52 OFFCURVE",
"396 -35 OFFCURVE",
"432 -7 CURVE SMOOTH",
"460 14 OFFCURVE",
"480 30 OFFCURVE",
"496 43 CURVE SMOOTH",
"511 55 OFFCURVE",
"523 66 OFFCURVE",
"535 79 CURVE",
"455 166 LINE",
"423 127 OFFCURVE",
"380 102 OFFCURVE",
"319 102 CURVE SMOOTH",
"239 102 OFFCURVE",
"197 146 OFFCURVE",
"197 213 CURVE SMOOTH",
"197 222 LINE",
"550 222 LINE",
"550 266 LINE SMOOTH",
"550 346 OFFCURVE",
"526 412 OFFCURVE",
"483 457 CURVE SMOOTH",
"440 502 OFFCURVE",
"378 528 OFFCURVE",
"301 528 CURVE SMOOTH",
"224 528 OFFCURVE",
"161 503 OFFCURVE",
"118 456 CURVE SMOOTH",
"74 408 OFFCURVE",
"50 341 OFFCURVE",
"50 257 CURVE SMOOTH",
"50 170 OFFCURVE",
"75 104 OFFCURVE",
"120 58 CURVE SMOOTH",
"164 12 OFFCURVE",
"228 -12 OFFCURVE",
"305 -12 CURVE SMOOTH",
"327 -12 OFFCURVE",
"344 -10 OFFCURVE",
"355 -7 CURVE",
"357 -12 LINE",
"284 -43 OFFCURVE",
"239 -73 OFFCURVE",
"239 -128 CURVE SMOOTH",
"239 -160 OFFCURVE",
"253 -181 OFFCURVE",
"277 -193 CURVE",
"300 -206 OFFCURVE",
"331 -212 OFFCURVE",
"363 -212 CURVE SMOOTH"
);
},
{
closed = 1;
nodes = (
"197 313 LINE SMOOTH",
"197 380 OFFCURVE",
"238 422 OFFCURVE",
"302 422 CURVE SMOOTH",
"366 422 OFFCURVE",
"405 381 OFFCURVE",
"405 313 CURVE SMOOTH",
"405 305 LINE",
"197 305 LINE"
);
}
);
width = 600;
}
);
note = eogonek;
unicode = 0119;
},
{
glyphname = uni0259;
lastChange = "2019-02-04 10:45:10 +0000";
layers = (
{
layerId = "84CDBA37-3524-4FC2-9356-5581E3F2D06C";
paths = (
{
closed = 1;
nodes = (
"50 250 LINE SMOOTH",
"50 170 OFFCURVE",
"73 104 OFFCURVE",
"117 59 CURVE SMOOTH",
"160 14 OFFCURVE",
"222 -12 OFFCURVE",
"299 -12 CURVE SMOOTH",
"376 -12 OFFCURVE",
"439 13 OFFCURVE",
"483 61 CURVE SMOOTH",
"526 108 OFFCURVE",
"550 176 OFFCURVE",
"550 260 CURVE SMOOTH",
"550 425 OFFCURVE",
"459 528 OFFCURVE",
"286 528 CURVE SMOOTH",
"175 528 OFFCURVE",
"105 486 OFFCURVE",
"65 437 CURVE",
"145 350 LINE",
"177 389 OFFCURVE",
"220 414 OFFCURVE",
"281 414 CURVE SMOOTH",
"361 414 OFFCURVE",
"403 370 OFFCURVE",
"403 303 CURVE SMOOTH",
"403 294 LINE",
"50 294 LINE"
);
},
{
closed = 1;
nodes = (
"403 211 LINE",
"403 203 LINE SMOOTH",
"403 136 OFFCURVE",
"362 94 OFFCURVE",
"298 94 CURVE SMOOTH",
"234 94 OFFCURVE",
"195 135 OFFCURVE",
"195 203 CURVE SMOOTH",
"195 211 LINE"
);
}
);
width = 600;
}
);
note = uni0259;
unicode = 0259;
},
{
glyphname = hbar;
lastChange = "2019-02-04 10:45:10 +0000";
layers = (
{
layerId = "84CDBA37-3524-4FC2-9356-5581E3F2D06C";
paths = (
{
closed = 1;
nodes = (
"213 339 LINE SMOOTH",
"213 364 OFFCURVE",
"224 383 OFFCURVE",
"241 396 CURVE",
"258 408 OFFCURVE",
"281 414 OFFCURVE",
"304 414 CURVE SMOOTH",
"362 414 OFFCURVE",
"391 381 OFFCURVE",
"391 314 CURVE SMOOTH",
"391 0 LINE",
"539 0 LINE",
"539 334 LINE SMOOTH",
"539 397 OFFCURVE",
"521 445 OFFCURVE",
"492 478 CURVE SMOOTH",
"463 511 OFFCURVE",
"420 528 OFFCURVE",
"371 528 CURVE SMOOTH",
"330 528 OFFCURVE",
"297 516 OFFCURVE",
"273 497 CURVE SMOOTH",
"248 477 OFFCURVE",
"231 451 OFFCURVE",
"219 422 CURVE",
"213 422 LINE",
"213 580 LINE",
"353 580 LINE",
"353 690 LINE",
"213 690 LINE",
"213 740 LINE",
"65 740 LINE",
"65 690 LINE",
"9 690 LINE",
"9 580 LINE",
"65 580 LINE",
"65 0 LINE",
"213 0 LINE"
);
}
);
width = 600;
}
);
note = hbar;
unicode = 0127;
},
{
glyphname = dotlessi;
lastChange = "2019-02-04 10:45:10 +0000";
layers = (
{
layerId = "84CDBA37-3524-4FC2-9356-5581E3F2D06C";
paths = (
{
closed = 1;
nodes = (
"558 0 LINE",
"558 115 LINE",
"406 115 LINE",
"406 516 LINE",
"94 516 LINE",
"94 401 LINE",
"258 401 LINE",
"258 115 LINE",
"94 115 LINE",
"94 0 LINE"
);
}
);
width = 600;
}
);
note = dotlessi;
unicode = 0131;
},
{
glyphname = iogonek;
lastChange = "2019-02-04 10:45:10 +0000";
layers = (
{
layerId = "84CDBA37-3524-4FC2-9356-5581E3F2D06C";
paths = (
{
closed = 1;
nodes = (
"532 -212 OFFCURVE",
"573 -193 OFFCURVE",
"590 -161 CURVE",
"537 -110 LINE",
"522 -126 OFFCURVE",
"506 -138 OFFCURVE",
"482 -138 CURVE SMOOTH",
"462 -138 OFFCURVE",
"444 -130 OFFCURVE",
"444 -105 CURVE SMOOTH",
"444 -93 OFFCURVE",
"448 -82 OFFCURVE",
"464 -66 CURVE SMOOTH",
"480 -50 OFFCURVE",
"509 -31 OFFCURVE",
"558 0 CURVE",
"558 115 LINE",
"406 115 LINE",
"406 516 LINE",
"94 516 LINE",
"94 401 LINE",
"258 401 LINE",
"258 115 LINE",
"94 115 LINE",
"94 0 LINE",
"462 0 LINE",
"463 -4 LINE",
"388 -39 OFFCURVE",
"344 -71 OFFCURVE",
"344 -127 CURVE SMOOTH",
"344 -159 OFFCURVE",
"358 -181 OFFCURVE",
"381 -193 CURVE SMOOTH",
"404 -206 OFFCURVE",
"435 -212 OFFCURVE",
"468 -212 CURVE SMOOTH"
);
},
{
closed = 1;
nodes = (
"399 582 OFFCURVE",
"421 613 OFFCURVE",
"421 652 CURVE SMOOTH",
"421 681 LINE SMOOTH",
"421 721 OFFCURVE",
"399 751 OFFCURVE",
"332 751 CURVE SMOOTH",
"265 751 OFFCURVE",
"243 721 OFFCURVE",
"243 681 CURVE SMOOTH",
"243 652 LINE SMOOTH",
"243 613 OFFCURVE",
"265 582 OFFCURVE",
"332 582 CURVE SMOOTH"
);
}
);
width = 600;
}
);
note = iogonek;
unicode = 012F;
},
{
glyphname = ij;
lastChange = "2019-02-04 10:45:10 +0000";
layers = (
{
layerId = "84CDBA37-3524-4FC2-9356-5581E3F2D06C";
paths = (
{
closed = 1;
nodes = (
"222 0 LINE",
"222 516 LINE",
"74 516 LINE",
"74 0 LINE"
);
},
{
closed = 1;
nodes = (
"368 -200 LINE SMOOTH",
"475 -200 OFFCURVE",
"526 -138 OFFCURVE",
"526 -51 CURVE SMOOTH",
"526 516 LINE",
"378 516 LINE",
"378 -85 LINE",
"222 -85 LINE",
"222 -200 LINE"
);
},
{
closed = 1;
nodes = (
"216 582 OFFCURVE",
"238 613 OFFCURVE",
"238 652 CURVE SMOOTH",
"238 681 LINE SMOOTH",
"238 721 OFFCURVE",
"216 751 OFFCURVE",
"148 751 CURVE SMOOTH",
"81 751 OFFCURVE",
"59 721 OFFCURVE",
"59 681 CURVE SMOOTH",
"59 652 LINE SMOOTH",
"59 613 OFFCURVE",
"81 582 OFFCURVE",
"148 582 CURVE SMOOTH"
);
},
{
closed = 1;
nodes = (
"519 582 OFFCURVE",
"541 613 OFFCURVE",
"541 652 CURVE SMOOTH",
"541 681 LINE SMOOTH",
"541 721 OFFCURVE",
"519 751 OFFCURVE",
"452 751 CURVE SMOOTH",
"384 751 OFFCURVE",
"362 721 OFFCURVE",
"362 681 CURVE SMOOTH",
"362 652 LINE SMOOTH",
"362 613 OFFCURVE",
"384 582 OFFCURVE",
"452 582 CURVE SMOOTH"
);
}
);
width = 600;
}
);
note = ij;
unicode = 0133;
},
{
glyphname = ijacute;
lastChange = "2019-02-04 10:45:10 +0000";
layers = (
{
layerId = "84CDBA37-3524-4FC2-9356-5581E3F2D06C";
paths = (
{
closed = 1;
nodes = (
"222 0 LINE",
"222 516 LINE",
"74 516 LINE",
"74 0 LINE"
);
},
{
closed = 1;
nodes = (
"368 -200 LINE SMOOTH",
"475 -200 OFFCURVE",
"526 -138 OFFCURVE",
"526 -51 CURVE SMOOTH",
"526 516 LINE",
"378 516 LINE",
"378 -85 LINE",
"222 -85 LINE",
"222 -200 LINE"
);
},
{
closed = 1;
nodes = (
"298 746 LINE",
"175 807 LINE",
"76 613 LINE",
"164 570 LINE"
);
},
{
closed = 1;
nodes = (
"602 746 LINE",
"479 807 LINE",
"380 613 LINE",
"468 570 LINE"
);
}
);
width = 600;
}
);
note = ijacute;
},
{
glyphname = uni0237;
lastChange = "2019-02-04 10:45:10 +0000";
layers = (
{
layerId = "84CDBA37-3524-4FC2-9356-5581E3F2D06C";
paths = (
{
closed = 1;
nodes = (
"281 -200 LINE SMOOTH",
"386 -200 OFFCURVE",
"438 -138 OFFCURVE",
"438 -51 CURVE SMOOTH",
"438 516 LINE",
"90 516 LINE",
"90 401 LINE",
"290 401 LINE",
"290 -85 LINE",
"92 -85 LINE",
"92 -200 LINE"
);
}
);
width = 600;
}
);
note = uni0237;
unicode = 0237;
},
{
glyphname = kgreenlandic;
lastChange = "2019-02-04 10:45:10 +0000";
layers = (
{
layerId = "84CDBA37-3524-4FC2-9356-5581E3F2D06C";
paths = (
{
closed = 1;
nodes = (
"588 0 LINE",
"367 312 LINE",
"567 516 LINE",
"397 516 LINE",
"289 401 LINE",
"220 308 LINE",
"213 308 LINE",
"213 516 LINE",
"65 516 LINE",
"65 0 LINE",
"213 0 LINE",
"213 179 LINE",
"262 228 LINE",
"412 0 LINE"
);
}
);
width = 600;
}
);
note = kgreenlandic;
unicode = 0138;
},
{
glyphname = lslash;
lastChange = "2019-02-04 10:45:10 +0000";
layers = (
{
layerId = "84CDBA37-3524-4FC2-9356-5581E3F2D06C";
paths = (
{
closed = 1;
nodes = (
"532 0 LINE",
"532 115 LINE",
"374 115 LINE",
"374 301 LINE",
"503 343 LINE",
"503 452 LINE",
"374 410 LINE",
"374 740 LINE",
"68 740 LINE",
"68 625 LINE",
"226 625 LINE",
"226 365 LINE",
"97 323 LINE",
"97 214 LINE",
"226 256 LINE",
"226 115 LINE",
"68 115 LINE",
"68 0 LINE"
);
}
);
width = 600;
}
);
note = lslash;
unicode = 0142;
},
{
glyphname = napostrophe;
lastChange = "2019-02-04 10:45:10 +0000";
layers = (
{
layerId = "84CDBA37-3524-4FC2-9356-5581E3F2D06C";
paths = (
{
closed = 1;
nodes = (
"251 0 LINE",
"251 339 LINE SMOOTH",
"251 394 OFFCURVE",
"290 420 OFFCURVE",
"333 420 CURVE SMOOTH",
"384 420 OFFCURVE",
"409 382 OFFCURVE",
"409 314 CURVE SMOOTH",
"409 0 LINE",
"549 0 LINE",
"549 342 LINE SMOOTH",
"549 467 OFFCURVE",
"489 528 OFFCURVE",
"400 528 CURVE SMOOTH",
"360 528 OFFCURVE",
"330 516 OFFCURVE",
"307 497 CURVE SMOOTH",
"283 477 OFFCURVE",
"268 451 OFFCURVE",
"257 422 CURVE",
"251 422 LINE",
"251 516 LINE",
"111 516 LINE",
"111 0 LINE"
);
},
{
closed = 1;
nodes = (
"69 529 LINE",
"135 740 LINE",
"6 740 LINE",
"0 529 LINE"
);
}
);
width = 600;
}
);
note = napostrophe;
unicode = 0149;
},
{
glyphname = eng;
lastChange = "2019-02-04 10:45:10 +0000";
layers = (
{
layerId = "84CDBA37-3524-4FC2-9356-5581E3F2D06C";
paths = (
{
closed = 1;
nodes = (
"382 -200 LINE SMOOTH",
"489 -200 OFFCURVE",
"539 -138 OFFCURVE",
"539 -51 CURVE SMOOTH",
"539 334 LINE SMOOTH",
"539 397 OFFCURVE",
"521 445 OFFCURVE",
"492 478 CURVE SMOOTH",
"463 511 OFFCURVE",
"420 528 OFFCURVE",
"371 528 CURVE SMOOTH",
"330 528 OFFCURVE",
"297 516 OFFCURVE",
"273 497 CURVE SMOOTH",
"248 477 OFFCURVE",
"231 451 OFFCURVE",
"219 422 CURVE",
"213 422 LINE",
"213 516 LINE",
"65 516 LINE",
"65 0 LINE",
"213 0 LINE",
"213 339 LINE SMOOTH",
"213 364 OFFCURVE",
"224 383 OFFCURVE",
"241 396 CURVE",
"258 408 OFFCURVE",
"281 414 OFFCURVE",
"304 414 CURVE SMOOTH",
"362 414 OFFCURVE",
"391 381 OFFCURVE",
"391 314 CURVE SMOOTH",
"391 -85 LINE",
"213 -85 LINE",
"213 -200 LINE"
);
}
);
width = 600;
}
);
note = eng;
unicode = 014B;
},
{
glyphname = oslash;
lastChange = "2019-02-04 10:45:10 +0000";
layers = (
{
layerId = "84CDBA37-3524-4FC2-9356-5581E3F2D06C";
paths = (
{
closed = 1;
nodes = (
"169 18 LINE",
"205 -1 OFFCURVE",
"249 -12 OFFCURVE",
"300 -12 CURVE SMOOTH",
"380 -12 OFFCURVE",
"445 13 OFFCURVE",
"490 60 CURVE SMOOTH",
"534 107 OFFCURVE",
"559 174 OFFCURVE",
"559 258 CURVE SMOOTH",
"559 329 OFFCURVE",
"542 387 OFFCURVE",
"508 432 CURVE",
"577 515 LINE",
"495 575 LINE",
"431 498 LINE",
"395 517 OFFCURVE",
"351 528 OFFCURVE",
"300 528 CURVE SMOOTH",
"220 528 OFFCURVE",
"155 503 OFFCURVE",
"111 456 CURVE SMOOTH",
"66 409 OFFCURVE",
"41 342 OFFCURVE",
"41 258 CURVE SMOOTH",
"41 187 OFFCURVE",
"58 129 OFFCURVE",
"92 84 CURVE",
"23 1 LINE",
"105 -59 LINE"
);
},
{
closed = 1;
nodes = (
"324 418 OFFCURVE",
"344 412 OFFCURVE",
"361 401 CURVE",
"196 200 LINE",
"195 203 OFFCURVE",
"194 207 OFFCURVE",
"194 212 CURVE SMOOTH",
"194 217 OFFCURVE",
"194 221 OFFCURVE",
"194 225 CURVE SMOOTH",
"194 299 LINE SMOOTH",
"194 375 OFFCURVE",
"233 418 OFFCURVE",
"300 418 CURVE SMOOTH"
);
},
{
closed = 1;
nodes = (
"276 98 OFFCURVE",
"256 104 OFFCURVE",
"239 115 CURVE",
"404 316 LINE",
"405 313 OFFCURVE",
"406 309 OFFCURVE",
"406 304 CURVE SMOOTH",
"406 299 OFFCURVE",
"406 295 OFFCURVE",
"406 291 CURVE SMOOTH",
"406 217 LINE SMOOTH",
"406 141 OFFCURVE",
"367 98 OFFCURVE",
"300 98 CURVE SMOOTH"
);
}
);
width = 600;
}
);
note = oslash;
unicode = 00F8;
},
{
glyphname = ohorn;
lastChange = "2019-02-04 10:45:10 +0000";
layers = (
{
layerId = "84CDBA37-3524-4FC2-9356-5581E3F2D06C";
paths = (
{
closed = 1;
nodes = (
"459 516 LINE",
"389 516 LINE",
"362 524 OFFCURVE",
"332 528 OFFCURVE",
"300 528 CURVE SMOOTH",
"220 528 OFFCURVE",
"155 503 OFFCURVE",
"111 456 CURVE SMOOTH",
"66 409 OFFCURVE",
"41 342 OFFCURVE",
"41 258 CURVE SMOOTH",
"41 174 OFFCURVE",
"66 107 OFFCURVE",
"111 60 CURVE SMOOTH",
"155 13 OFFCURVE",
"220 -12 OFFCURVE",
"300 -12 CURVE SMOOTH",
"380 -12 OFFCURVE",
"445 13 OFFCURVE",
"490 60 CURVE SMOOTH",
"534 107 OFFCURVE",
"559 174 OFFCURVE",
"559 258 CURVE SMOOTH",
"559 330 OFFCURVE",
"540 385 OFFCURVE",
"507 428 CURVE",
"567 435 OFFCURVE",
"583 468 OFFCURVE",
"583 528 CURVE SMOOTH",
"583 631 LINE",
"459 631 LINE"
);
},
{
closed = 1;
nodes = (
"233 98 OFFCURVE",
"194 141 OFFCURVE",
"194 217 CURVE SMOOTH",
"194 299 LINE SMOOTH",
"194 375 OFFCURVE",
"233 418 OFFCURVE",
"300 418 CURVE SMOOTH",
"367 418 OFFCURVE",
"406 375 OFFCURVE",
"406 299 CURVE SMOOTH",
"406 217 LINE SMOOTH",
"406 141 OFFCURVE",
"367 98 OFFCURVE",
"300 98 CURVE SMOOTH"
);
}
);
width = 600;
}
);
note = ohorn;
unicode = 01A1;
},
{
glyphname = oe;
lastChange = "2019-02-04 10:45:10 +0000";
layers = (
{
layerId = "84CDBA37-3524-4FC2-9356-5581E3F2D06C";
paths = (
{
closed = 1;
nodes = (
"468 -12 OFFCURVE",
"502 4 OFFCURVE",
"527 29 CURVE SMOOTH",
"552 54 OFFCURVE",
"569 90 OFFCURVE",
"578 129 CURVE",
"481 156 LINE",
"472 117 OFFCURVE",
"456 84 OFFCURVE",
"421 84 CURVE SMOOTH",
"377 84 OFFCURVE",
"353 136 OFFCURVE",
"353 213 CURVE SMOOTH",
"353 228 LINE",
"584 228 LINE",
"584 289 LINE SMOOTH",
"584 362 OFFCURVE",
"568 422 OFFCURVE",
"540 463 CURVE SMOOTH",
"511 504 OFFCURVE",
"469 528 OFFCURVE",
"420 528 CURVE SMOOTH",
"369 528 OFFCURVE",
"330 503 OFFCURVE",
"301 454 CURVE",
"297 454 LINE",
"272 502 OFFCURVE",
"235 528 OFFCURVE",
"176 528 CURVE SMOOTH",
"125 528 OFFCURVE",
"85 509 OFFCURVE",
"57 466 CURVE SMOOTH",
"28 422 OFFCURVE",
"12 355 OFFCURVE",
"12 258 CURVE SMOOTH",
"12 161 OFFCURVE",
"28 93 OFFCURVE",
"57 50 CURVE SMOOTH",
"85 7 OFFCURVE",
"126 -12 OFFCURVE",
"174 -12 CURVE SMOOTH",
"229 -12 OFFCURVE",
"264 11 OFFCURVE",
"291 54 CURVE",
"295 54 LINE",
"326 7 OFFCURVE",
"371 -12 OFFCURVE",
"423 -12 CURVE SMOOTH"
);
},
{
closed = 1;
nodes = (
"147 84 OFFCURVE",
"125 119 OFFCURVE",
"125 187 CURVE SMOOTH",
"125 329 LINE SMOOTH",
"125 397 OFFCURVE",
"147 432 OFFCURVE",
"183 432 CURVE SMOOTH",
"219 432 OFFCURVE",
"241 397 OFFCURVE",
"241 329 CURVE SMOOTH",
"241 187 LINE SMOOTH",
"241 119 OFFCURVE",
"219 84 OFFCURVE",
"183 84 CURVE SMOOTH"
);
},
{
closed = 1;
nodes = (
"353 337 LINE SMOOTH",
"353 393 OFFCURVE",
"371 438 OFFCURVE",
"414 438 CURVE SMOOTH",
"457 438 OFFCURVE",
"475 393 OFFCURVE",
"475 337 CURVE SMOOTH",
"475 305 LINE",
"353 305 LINE"
);
}
);
width = 600;
}
);
note = oe;
unicode = 0153;
},
{
glyphname = scedilla;
lastChange = "2019-02-04 10:45:10 +0000";
layers = (
{
layerId = "84CDBA37-3524-4FC2-9356-5581E3F2D06C";
paths = (
{
closed = 1;
nodes = (
"340 -212 OFFCURVE",
"374 -207 OFFCURVE",
"399 -192 CURVE SMOOTH",
"423 -177 OFFCURVE",
"439 -156 OFFCURVE",
"439 -121 CURVE SMOOTH",
"439 -72 OFFCURVE",
"406 -52 OFFCURVE",
"366 -52 CURVE SMOOTH",
"350 -52 OFFCURVE",
"334 -55 OFFCURVE",
"318 -59 CURVE",
"314 -55 LINE",
"323 -11 LINE",
"459 -2 OFFCURVE",
"534 63 OFFCURVE",
"534 163 CURVE SMOOTH",
"534 212 OFFCURVE",
"516 246 OFFCURVE",
"486 270 CURVE SMOOTH",
"456 294 OFFCURVE",
"415 307 OFFCURVE",
"368 314 CURVE SMOOTH",
"286 327 LINE SMOOTH",
"246 334 OFFCURVE",
"222 341 OFFCURVE",
"222 372 CURVE SMOOTH",
"222 407 OFFCURVE",
"251 424 OFFCURVE",
"308 424 CURVE SMOOTH",
"376 424 OFFCURVE",
"423 398 OFFCURVE",
"454 365 CURVE",
"528 449 LINE",
"485 500 OFFCURVE",
"414 528 OFFCURVE",
"313 528 CURVE SMOOTH",
"164 528 OFFCURVE",
"77 463 OFFCURVE",
"77 355 CURVE SMOOTH",
"77 306 OFFCURVE",
"96 272 OFFCURVE",
"125 248 CURVE SMOOTH",
"154 224 OFFCURVE",
"195 211 OFFCURVE",
"242 204 CURVE SMOOTH",
"325 191 LINE SMOOTH",
"365 184 OFFCURVE",
"389 176 OFFCURVE",
"389 147 CURVE SMOOTH",
"389 110 OFFCURVE",
"354 92 OFFCURVE",
"295 92 CURVE SMOOTH",
"226 92 OFFCURVE",
"172 118 OFFCURVE",
"132 162 CURVE",
"49 85 LINE",
"86 32 OFFCURVE",
"160 -3 OFFCURVE",
"256 -10 CURVE",
"243 -74 LINE",
"264 -76 LINE SMOOTH",
"295 -79 OFFCURVE",
"313 -85 OFFCURVE",
"325 -92 CURVE",
"336 -100 OFFCURVE",
"339 -108 OFFCURVE",
"339 -116 CURVE SMOOTH",
"339 -133 OFFCURVE",
"320 -141 OFFCURVE",
"295 -141 CURVE SMOOTH",
"264 -141 OFFCURVE",
"242 -128 OFFCURVE",
"229 -112 CURVE",
"183 -168 LINE",
"200 -188 OFFCURVE",
"238 -212 OFFCURVE",
"307 -212 CURVE SMOOTH"
);
}
);
width = 600;
}
);
note = scedilla;
unicode = 015F;
},
{
glyphname = germandbls;
lastChange = "2019-02-04 10:45:10 +0000";
layers = (
{
layerId = "84CDBA37-3524-4FC2-9356-5581E3F2D06C";
paths = (
{
closed = 1;
nodes = (
"204 405 LINE",
"396 405 LINE",
"273 230 LINE",
"273 119 LINE",
"297 119 LINE SMOOTH",
"385 119 OFFCURVE",
"425 91 OFFCURVE",
"425 26 CURVE SMOOTH",
"425 3 LINE SMOOTH",
"425 -61 OFFCURVE",
"387 -89 OFFCURVE",
"303 -89 CURVE SMOOTH",
"246 -89 LINE",
"246 -200 LINE",
"312 -200 LINE SMOOTH",
"472 -200 OFFCURVE",
"574 -127 OFFCURVE",
"574 16 CURVE SMOOTH",
"574 129 OFFCURVE",
"509 193 OFFCURVE",
"401 213 CURVE",
"540 410 LINE",
"540 516 LINE",
"204 516 LINE",
"204 629 LINE",
"376 629 LINE",
"376 740 LINE",
"218 740 LINE SMOOTH",
"110 740 OFFCURVE",
"60 679 OFFCURVE",
"60 591 CURVE SMOOTH",
"60 0 LINE",
"204 0 LINE"
);
}
);
width = 600;
}
);
note = germandbls;
unicode = 00DF;
},
{
glyphname = germandbls.alt01;
lastChange = "2019-02-04 10:45:10 +0000";
layers = (
{
layerId = "84CDBA37-3524-4FC2-9356-5581E3F2D06C";
paths = (
{
closed = 1;
nodes = (
"192 0 LINE",
"192 523 LINE SMOOTH",
"192 600 OFFCURVE",
"219 642 OFFCURVE",
"295 642 CURVE SMOOTH",
"374 642 OFFCURVE",
"402 599 OFFCURVE",
"402 523 CURVE SMOOTH",
"402 514 LINE",
"311 497 OFFCURVE",
"261 448 OFFCURVE",
"261 364 CURVE SMOOTH",
"261 299 OFFCURVE",
"290 255 OFFCURVE",
"377 222 CURVE SMOOTH",
"408 210 LINE SMOOTH",
"452 193 OFFCURVE",
"464 178 OFFCURVE",
"464 151 CURVE SMOOTH",
"464 128 OFFCURVE",
"456 114 OFFCURVE",
"444 106 CURVE",
"432 97 OFFCURVE",
"416 94 OFFCURVE",
"401 94 CURVE SMOOTH",
"368 94 OFFCURVE",
"337 106 OFFCURVE",
"310 137 CURVE",
"227 59 LINE",
"266 10 OFFCURVE",
"334 -12 OFFCURVE",
"406 -12 CURVE SMOOTH",
"531 -12 OFFCURVE",
"600 56 OFFCURVE",
"600 165 CURVE SMOOTH",
"600 237 OFFCURVE",
"568 279 OFFCURVE",
"484 312 CURVE SMOOTH",
"453 324 LINE SMOOTH",
"414 339 OFFCURVE",
"397 353 OFFCURVE",
"397 381 CURVE SMOOTH",
"397 401 OFFCURVE",
"406 414 OFFCURVE",
"422 420 CURVE SMOOTH",
"437 426 OFFCURVE",
"458 427 OFFCURVE",
"482 427 CURVE SMOOTH",
"538 427 LINE",
"538 521 LINE SMOOTH",
"538 590 OFFCURVE",
"514 649 OFFCURVE",
"471 689 CURVE SMOOTH",
"428 729 OFFCURVE",
"367 752 OFFCURVE",
"292 752 CURVE SMOOTH",
"216 752 OFFCURVE",
"155 729 OFFCURVE",
"113 688 CURVE SMOOTH",
"71 647 OFFCURVE",
"48 588 OFFCURVE",
"48 519 CURVE SMOOTH",
"48 516 LINE",
"0 516 LINE",
"0 401 LINE",
"48 401 LINE",
"48 0 LINE"
);
}
);
width = 600;
}
);
note = germandbls.alt01;
},
{
glyphname = tbar;
lastChange = "2019-02-04 10:45:10 +0000";
layers = (
{
layerId = "84CDBA37-3524-4FC2-9356-5581E3F2D06C";
paths = (
{
closed = 1;
nodes = (
"330 115 LINE",
"330 212 LINE",
"481 212 LINE",
"481 317 LINE",
"330 317 LINE",
"330 401 LINE",
"531 401 LINE",
"531 516 LINE",
"330 516 LINE",
"330 698 LINE",
"194 698 LINE",
"194 577 LINE SMOOTH",
"194 530 OFFCURVE",
"177 516 OFFCURVE",
"133 516 CURVE SMOOTH",
"42 516 LINE",
"42 401 LINE",
"182 401 LINE",
"182 317 LINE",
"94 317 LINE",
"94 212 LINE",
"182 212 LINE",
"182 149 LINE SMOOTH",
"182 62 OFFCURVE",
"233 0 OFFCURVE",
"340 0 CURVE SMOOTH",
"531 0 LINE",
"531 115 LINE"
);
}
);
width = 600;
}
);
note = tbar;
unicode = 0167;
},
{
glyphname = thorn;
lastChange = "2019-02-04 10:45:10 +0000";
layers = (
{
layerId = "84CDBA37-3524-4FC2-9356-5581E3F2D06C";
paths = (
{
closed = 1;
nodes = (
"207 -200 LINE",
"207 94 LINE",
"214 94 LINE",
"239 31 OFFCURVE",
"284 -12 OFFCURVE",
"367 -12 CURVE SMOOTH",
"424 -12 OFFCURVE",
"473 9 OFFCURVE",
"507 53 CURVE SMOOTH",
"541 97 OFFCURVE",
"561 165 OFFCURVE",
"561 258 CURVE SMOOTH",
"561 351 OFFCURVE",
"541 419 OFFCURVE",
"507 463 CURVE SMOOTH",
"473 507 OFFCURVE",
"424 528 OFFCURVE",
"367 528 CURVE SMOOTH",
"284 528 OFFCURVE",
"239 483 OFFCURVE",
"214 422 CURVE",
"207 422 LINE",
"207 740 LINE",
"59 740 LINE",
"59 -200 LINE"
);
},
{
closed = 1;
nodes = (
"251 103 OFFCURVE",
"207 127 OFFCURVE",
"207 182 CURVE SMOOTH",
"207 334 LINE SMOOTH",
"207 389 OFFCURVE",
"251 413 OFFCURVE",
"303 413 CURVE SMOOTH",
"370 413 OFFCURVE",
"407 370 OFFCURVE",
"407 298 CURVE SMOOTH",
"407 218 LINE SMOOTH",
"407 146 OFFCURVE",
"370 103 OFFCURVE",
"303 103 CURVE SMOOTH"
);
}
);
width = 600;
}
);
note = thorn;
unicode = 00FE;
},
{
glyphname = uogonek;
lastChange = "2019-02-04 10:45:10 +0000";
layers = (
{
layerId = "84CDBA37-3524-4FC2-9356-5581E3F2D06C";
paths = (
{
closed = 1;
nodes = (
"387 516 LINE",
"387 177 LINE SMOOTH",
"387 152 OFFCURVE",
"375 133 OFFCURVE",
"359 121 CURVE SMOOTH",
"342 108 OFFCURVE",
"319 102 OFFCURVE",
"296 102 CURVE SMOOTH",
"238 102 OFFCURVE",
"209 135 OFFCURVE",
"209 202 CURVE SMOOTH",
"209 516 LINE",
"61 516 LINE",
"61 182 LINE SMOOTH",
"61 119 OFFCURVE",
"79 71 OFFCURVE",
"108 38 CURVE SMOOTH",
"137 5 OFFCURVE",
"180 -12 OFFCURVE",
"229 -12 CURVE SMOOTH",
"312 -12 OFFCURVE",
"358 35 OFFCURVE",
"381 94 CURVE",
"387 94 LINE",
"387 0 LINE",
"439 0 LINE",
"440 -4 LINE",
"365 -39 OFFCURVE",
"321 -71 OFFCURVE",
"321 -127 CURVE SMOOTH",
"321 -159 OFFCURVE",
"335 -181 OFFCURVE",
"358 -193 CURVE SMOOTH",
"381 -206 OFFCURVE",
"412 -212 OFFCURVE",
"445 -212 CURVE SMOOTH",
"509 -212 OFFCURVE",
"550 -193 OFFCURVE",
"567 -161 CURVE",
"514 -110 LINE",
"499 -126 OFFCURVE",
"483 -138 OFFCURVE",
"459 -138 CURVE SMOOTH",
"439 -138 OFFCURVE",
"421 -130 OFFCURVE",
"421 -105 CURVE SMOOTH",
"421 -93 OFFCURVE",
"425 -82 OFFCURVE",
"441 -66 CURVE SMOOTH",
"457 -50 OFFCURVE",
"486 -31 OFFCURVE",
"535 0 CURVE",
"535 516 LINE"
);
}
);
width = 600;
}
);
note = uogonek;
unicode = 0173;
},
{
glyphname = uhorn;
lastChange = "2019-02-04 10:45:10 +0000";
layers = (
{
layerId = "84CDBA37-3524-4FC2-9356-5581E3F2D06C";
paths = (
{
closed = 1;
nodes = (
"474 631 LINE",
"474 516 LINE",
"387 516 LINE",
"387 177 LINE SMOOTH",
"387 152 OFFCURVE",
"375 133 OFFCURVE",
"359 121 CURVE SMOOTH",
"342 108 OFFCURVE",
"319 102 OFFCURVE",
"296 102 CURVE SMOOTH",
"238 102 OFFCURVE",
"209 135 OFFCURVE",
"209 202 CURVE SMOOTH",
"209 516 LINE",
"61 516 LINE",
"61 182 LINE SMOOTH",
"61 119 OFFCURVE",
"79 71 OFFCURVE",
"108 38 CURVE SMOOTH",
"137 5 OFFCURVE",
"180 -12 OFFCURVE",
"229 -12 CURVE SMOOTH",
"312 -12 OFFCURVE",
"358 35 OFFCURVE",
"381 94 CURVE",
"387 94 LINE",
"387 0 LINE",
"535 0 LINE",
"535 430 LINE",
"584 441 OFFCURVE",
"598 472 OFFCURVE",
"598 528 CURVE SMOOTH",
"598 631 LINE"
);
}
);
width = 600;
}
);
note = uhorn;
unicode = 01B0;
},
{
glyphname = Aogonek;
lastChange = "2019-02-04 10:45:10 +0000";
layers = (
{
layerId = "84CDBA37-3524-4FC2-9356-5581E3F2D06C";
paths = (
{
closed = 1;
nodes = (
"157 0 LINE",
"200 168 LINE",
"391 168 LINE",
"435 0 LINE",
"498 0 LINE",
"500 -4 LINE",
"425 -39 OFFCURVE",
"381 -71 OFFCURVE",
"381 -127 CURVE SMOOTH",
"381 -159 OFFCURVE",
"395 -181 OFFCURVE",
"418 -193 CURVE SMOOTH",
"441 -206 OFFCURVE",
"472 -212 OFFCURVE",
"505 -212 CURVE SMOOTH",
"569 -212 OFFCURVE",
"610 -193 OFFCURVE",
"627 -161 CURVE",
"574 -110 LINE",
"559 -126 OFFCURVE",
"543 -138 OFFCURVE",
"519 -138 CURVE SMOOTH",
"499 -138 OFFCURVE",
"481 -130 OFFCURVE",
"481 -105 CURVE SMOOTH",
"481 -93 OFFCURVE",
"485 -82 OFFCURVE",
"501 -66 CURVE SMOOTH",
"517 -50 OFFCURVE",
"546 -31 OFFCURVE",
"595 0 CURVE",
"406 698 LINE",
"194 698 LINE",
"5 0 LINE"
);
},
{
closed = 1;
nodes = (
"224 289 LINE",
"292 553 LINE",
"300 553 LINE",
"368 289 LINE"
);
}
);
width = 600;
}
);
note = Aogonek;
unicode = 0104;
},
{
glyphname = AE;
lastChange = "2019-02-04 10:45:10 +0000";
layers = (
{
layerId = "84CDBA37-3524-4FC2-9356-5581E3F2D06C";
paths = (
{
closed = 1;
nodes = (
"572 0 LINE",
"572 111 LINE",
"417 111 LINE",
"417 298 LINE",
"562 298 LINE",
"562 409 LINE",
"417 409 LINE",
"417 587 LINE",
"572 587 LINE",
"572 698 LINE",
"155 698 LINE",
"-4 0 LINE",
"142 0 LINE",
"175 168 LINE",
"279 168 LINE",
"279 0 LINE"
);
},
{
closed = 1;
nodes = (
"279 279 LINE",
"197 279 LINE",
"257 594 LINE",
"279 594 LINE"
);
}
);
width = 600;
}
);
note = AE;
unicode = 00C6;
},
{
glyphname = Ccedilla;
lastChange = "2019-02-04 10:45:10 +0000";
layers = (
{
layerId = "84CDBA37-3524-4FC2-9356-5581E3F2D06C";
paths = (
{
closed = 1;
nodes = (
"348 589 OFFCURVE",
"372 577 OFFCURVE",
"389 557 CURVE SMOOTH",
"405 537 OFFCURVE",
"415 508 OFFCURVE",
"423 475 CURVE",
"563 509 LINE",
"548 570 OFFCURVE",
"523 620 OFFCURVE",
"483 655 CURVE SMOOTH",
"443 690 OFFCURVE",
"388 710 OFFCURVE",
"316 710 CURVE SMOOTH",
"129 710 OFFCURVE",
"41 578 OFFCURVE",
"41 349 CURVE SMOOTH",
"41 140 OFFCURVE",
"112 13 OFFCURVE",
"267 -8 CURVE",
"253 -74 LINE",
"274 -76 LINE SMOOTH",
"305 -79 OFFCURVE",
"323 -85 OFFCURVE",
"335 -92 CURVE",
"346 -100 OFFCURVE",
"349 -108 OFFCURVE",
"349 -116 CURVE SMOOTH",
"349 -133 OFFCURVE",
"330 -141 OFFCURVE",
"305 -141 CURVE SMOOTH",
"274 -141 OFFCURVE",
"252 -128 OFFCURVE",
"239 -112 CURVE",
"193 -168 LINE",
"210 -188 OFFCURVE",
"248 -212 OFFCURVE",
"317 -212 CURVE SMOOTH",
"350 -212 OFFCURVE",
"384 -207 OFFCURVE",
"409 -192 CURVE SMOOTH",
"433 -177 OFFCURVE",
"449 -156 OFFCURVE",
"449 -121 CURVE SMOOTH",
"449 -72 OFFCURVE",
"416 -52 OFFCURVE",
"376 -52 CURVE SMOOTH",
"360 -52 OFFCURVE",
"344 -55 OFFCURVE",
"328 -59 CURVE",
"324 -55 LINE",
"333 -11 LINE",
"466 -4 OFFCURVE",
"536 72 OFFCURVE",
"563 189 CURVE",
"423 223 LINE",
"408 156 OFFCURVE",
"382 109 OFFCURVE",
"313 109 CURVE SMOOTH",
"232 109 OFFCURVE",
"201 176 OFFCURVE",
"201 288 CURVE SMOOTH",
"201 410 LINE SMOOTH",
"201 522 OFFCURVE",
"232 589 OFFCURVE",
"313 589 CURVE SMOOTH"
);
}
);
width = 600;
}
);
note = Ccedilla;
unicode = 00C7;
},
{
glyphname = Dcroat;
lastChange = "2019-02-04 10:45:10 +0000";
layers = (
{
layerId = "84CDBA37-3524-4FC2-9356-5581E3F2D06C";
paths = (
{
closed = 1;
nodes = (
"289 0 LINE SMOOTH",
"477 0 OFFCURVE",
"566 124 OFFCURVE",
"566 349 CURVE SMOOTH",
"566 574 OFFCURVE",
"477 698 OFFCURVE",
"289 698 CURVE SMOOTH",
"69 698 LINE",
"69 425 LINE",
"10 425 LINE",
"10 311 LINE",
"69 311 LINE",
"69 0 LINE"
);
},
{
closed = 1;
nodes = (
"217 316 LINE",
"327 316 LINE",
"327 420 LINE",
"217 420 LINE",
"217 580 LINE",
"279 580 LINE SMOOTH",
"368 580 OFFCURVE",
"408 521 OFFCURVE",
"408 413 CURVE SMOOTH",
"408 286 LINE SMOOTH",
"408 177 OFFCURVE",
"368 118 OFFCURVE",
"279 118 CURVE SMOOTH",
"217 118 LINE"
);
}
);
width = 600;
}
);
note = Dcroat;
unicode = 0110;
},
{
glyphname = Eogonek;
lastChange = "2019-02-04 10:45:10 +0000";
layers = (
{
layerId = "84CDBA37-3524-4FC2-9356-5581E3F2D06C";
paths = (
{
closed = 1;
nodes = (
"430 0 LINE",
"431 -4 LINE",
"356 -39 OFFCURVE",
"312 -71 OFFCURVE",
"312 -127 CURVE SMOOTH",
"312 -159 OFFCURVE",
"326 -181 OFFCURVE",
"349 -193 CURVE SMOOTH",
"372 -206 OFFCURVE",
"403 -212 OFFCURVE",
"436 -212 CURVE SMOOTH",
"500 -212 OFFCURVE",
"541 -193 OFFCURVE",
"558 -161 CURVE",
"505 -110 LINE",
"490 -126 OFFCURVE",
"474 -138 OFFCURVE",
"450 -138 CURVE SMOOTH",
"430 -138 OFFCURVE",
"412 -130 OFFCURVE",
"412 -105 CURVE SMOOTH",
"412 -93 OFFCURVE",
"416 -82 OFFCURVE",
"432 -66 CURVE SMOOTH",
"448 -50 OFFCURVE",
"477 -31 OFFCURVE",
"526 0 CURVE",
"526 123 LINE",
"230 123 LINE",
"230 292 LINE",
"516 292 LINE",
"516 415 LINE",
"230 415 LINE",
"230 575 LINE",
"526 575 LINE",
"526 698 LINE",
"80 698 LINE",
"80 0 LINE"
);
}
);
width = 600;
}
);
note = Eogonek;
unicode = 0118;
},
{
glyphname = uni018F;
lastChange = "2019-02-04 10:45:10 +0000";
layers = (
{
layerId = "84CDBA37-3524-4FC2-9356-5581E3F2D06C";
paths = (
{
closed = 1;
nodes = (
"487 -12 OFFCURVE",
"573 121 OFFCURVE",
"573 349 CURVE SMOOTH",
"573 577 OFFCURVE",
"487 710 OFFCURVE",
"298 710 CURVE SMOOTH",
"159 710 OFFCURVE",
"75 639 OFFCURVE",
"43 514 CURVE",
"173 465 LINE",
"190 538 OFFCURVE",
"222 590 OFFCURVE",
"298 590 CURVE SMOOTH",
"343 590 OFFCURVE",
"374 572 OFFCURVE",
"393 540 CURVE SMOOTH",
"412 508 OFFCURVE",
"420 463 OFFCURVE",
"420 410 CURVE SMOOTH",
"420 399 LINE",
"27 399 LINE",
"27 349 LINE SMOOTH",
"27 121 OFFCURVE",
"113 -12 OFFCURVE",
"300 -12 CURVE SMOOTH"
);
},
{
closed = 1;
nodes = (
"209 106 OFFCURVE",
"180 175 OFFCURVE",
"180 288 CURVE SMOOTH",
"180 291 LINE",
"420 291 LINE",
"420 288 LINE SMOOTH",
"420 175 OFFCURVE",
"391 106 OFFCURVE",
"300 106 CURVE SMOOTH"
);
}
);
width = 600;
}
);
note = uni018F;
unicode = 018F;
},
{
glyphname = Hbar;
lastChange = "2019-02-04 10:45:10 +0000";
layers = (
{
layerId = "84CDBA37-3524-4FC2-9356-5581E3F2D06C";
paths = (
{
closed = 1;
nodes = (
"539 0 LINE",
"539 507 LINE",
"594 507 LINE",
"594 620 LINE",
"539 620 LINE",
"539 698 LINE",
"388 698 LINE",
"388 613 LINE",
"212 613 LINE",
"212 698 LINE",
"61 698 LINE",
"61 620 LINE",
"6 620 LINE",
"6 507 LINE",
"61 507 LINE",
"61 0 LINE",
"212 0 LINE",
"212 292 LINE",
"388 292 LINE",
"388 0 LINE"
);
},
{
closed = 1;
nodes = (
"212 514 LINE",
"388 514 LINE",
"388 415 LINE",
"212 415 LINE"
);
}
);
width = 600;
}
);
note = Hbar;
unicode = 0126;
},
{
glyphname = Iogonek;
lastChange = "2019-02-04 10:45:10 +0000";
layers = (
{
layerId = "84CDBA37-3524-4FC2-9356-5581E3F2D06C";
paths = (
{
closed = 1;
nodes = (
"428 0 LINE",
"430 -4 LINE",
"355 -39 OFFCURVE",
"311 -71 OFFCURVE",
"311 -127 CURVE SMOOTH",
"311 -159 OFFCURVE",
"325 -181 OFFCURVE",
"348 -193 CURVE SMOOTH",
"371 -206 OFFCURVE",
"402 -212 OFFCURVE",
"435 -212 CURVE SMOOTH",
"499 -212 OFFCURVE",
"540 -193 OFFCURVE",
"557 -161 CURVE",
"504 -110 LINE",
"489 -126 OFFCURVE",
"473 -138 OFFCURVE",
"449 -138 CURVE SMOOTH",
"429 -138 OFFCURVE",
"411 -130 OFFCURVE",
"411 -105 CURVE SMOOTH",
"411 -93 OFFCURVE",
"415 -82 OFFCURVE",
"431 -66 CURVE SMOOTH",
"447 -50 OFFCURVE",
"476 -31 OFFCURVE",
"525 0 CURVE",
"525 111 LINE",
"375 111 LINE",
"375 587 LINE",
"525 587 LINE",
"525 698 LINE",
"75 698 LINE",
"75 587 LINE",
"225 587 LINE",
"225 111 LINE",
"75 111 LINE",
"75 0 LINE"
);
}
);
width = 600;
}
);
note = Iogonek;
unicode = 012E;
},
{
glyphname = IJ;
lastChange = "2019-02-04 10:45:10 +0000";
layers = (
{
layerId = "84CDBA37-3524-4FC2-9356-5581E3F2D06C";
paths = (
{
closed = 1;
nodes = (
"375 210 LINE SMOOTH",
"375 142 OFFCURVE",
"345 110 OFFCURVE",
"294 110 CURVE SMOOTH",
"234 110 OFFCURVE",
"209 153 OFFCURVE",
"198 213 CURVE",
"52 181 LINE",
"63 125 OFFCURVE",
"86 77 OFFCURVE",
"126 43 CURVE SMOOTH",
"166 9 OFFCURVE",
"221 -12 OFFCURVE",
"293 -12 CURVE SMOOTH",
"365 -12 OFFCURVE",
"423 8 OFFCURVE",
"463 44 CURVE SMOOTH",
"503 80 OFFCURVE",
"525 132 OFFCURVE",
"525 195 CURVE SMOOTH",
"525 698 LINE",
"375 698 LINE"
);
},
{
closed = 1;
nodes = (
"213 309 LINE",
"213 698 LINE",
"63 698 LINE",
"63 309 LINE"
);
}
);
width = 600;
}
);
note = IJ;
unicode = 0132;
},
{
glyphname = Lslash;
lastChange = "2019-02-04 10:45:10 +0000";
layers = (
{
layerId = "84CDBA37-3524-4FC2-9356-5581E3F2D06C";
paths = (
{
closed = 1;
nodes = (
"255 123 LINE",
"255 289 LINE",
"439 350 LINE",
"439 463 LINE",
"255 402 LINE",
"255 698 LINE",
"104 698 LINE",
"104 357 LINE",
"33 334 LINE",
"33 221 LINE",
"104 244 LINE",
"104 0 LINE",
"543 0 LINE",
"543 123 LINE"
);
}
);
width = 600;
}
);
note = Lslash;
unicode = 0141;
},
{
glyphname = Eng;
lastChange = "2019-02-04 10:45:10 +0000";
layers = (
{
layerId = "84CDBA37-3524-4FC2-9356-5581E3F2D06C";
paths = (
{
closed = 1;
nodes = (
"189 464 LINE",
"200 464 LINE",
"359 0 LINE",
"402 0 LINE",
"402 -90 LINE",
"189 -90 LINE",
"189 -200 LINE",
"382 -200 LINE SMOOTH",
"487 -200 OFFCURVE",
"539 -138 OFFCURVE",
"539 -51 CURVE SMOOTH",
"539 698 LINE",
"411 698 LINE",
"411 234 LINE",
"400 234 LINE",
"241 698 LINE",
"61 698 LINE",
"61 0 LINE",
"189 0 LINE"
);
}
);
width = 600;
}
);
note = Eng;
unicode = 014A;
},
{
glyphname = Oslash;
lastChange = "2019-02-04 10:45:10 +0000";
layers = (
{
layerId = "84CDBA37-3524-4FC2-9356-5581E3F2D06C";
paths = (
{
closed = 1;
nodes = (
"487 -12 OFFCURVE",
"573 121 OFFCURVE",
"573 349 CURVE SMOOTH",
"573 458 OFFCURVE",
"554 542 OFFCURVE",
"515 603 CURVE",
"581 710 LINE",
"487 764 LINE",
"434 679 LINE",
"397 700 OFFCURVE",
"353 710 OFFCURVE",
"300 710 CURVE SMOOTH",
"113 710 OFFCURVE",
"27 577 OFFCURVE",
"27 349 CURVE SMOOTH",
"27 240 OFFCURVE",
"46 156 OFFCURVE",
"85 95 CURVE",
"19 -12 LINE",
"113 -66 LINE",
"166 19 LINE",
"203 -2 OFFCURVE",
"247 -12 OFFCURVE",
"300 -12 CURVE SMOOTH"
);
},
{
closed = 1;
nodes = (
"187 522 OFFCURVE",
"215 589 OFFCURVE",
"300 589 CURVE SMOOTH",
"330 589 OFFCURVE",
"354 581 OFFCURVE",
"371 565 CURVE",
"189 249 LINE",
"188 256 OFFCURVE",
"187 262 OFFCURVE",
"187 268 CURVE SMOOTH",
"187 274 OFFCURVE",
"187 281 OFFCURVE",
"187 288 CURVE SMOOTH",
"187 410 LINE SMOOTH"
);
},
{
closed = 1;
nodes = (
"269 109 OFFCURVE",
"246 117 OFFCURVE",
"229 133 CURVE",
"411 449 LINE",
"412 442 OFFCURVE",
"413 435 OFFCURVE",
"413 430 CURVE SMOOTH",
"413 424 OFFCURVE",
"413 417 OFFCURVE",
"413 410 CURVE SMOOTH",
"413 288 LINE SMOOTH",
"413 176 OFFCURVE",
"385 109 OFFCURVE",
"300 109 CURVE SMOOTH"
);
}
);
width = 600;
}
);
note = Oslash;
unicode = 00D8;
},
{
glyphname = Ohorn;
lastChange = "2019-02-04 10:45:10 +0000";
layers = (
{
layerId = "84CDBA37-3524-4FC2-9356-5581E3F2D06C";
paths = (
{
closed = 1;
nodes = (
"469 813 LINE",
"469 698 LINE",
"389 698 LINE",
"363 706 OFFCURVE",
"333 710 OFFCURVE",
"300 710 CURVE SMOOTH",
"113 710 OFFCURVE",
"27 577 OFFCURVE",
"27 349 CURVE SMOOTH",
"27 121 OFFCURVE",
"113 -12 OFFCURVE",
"300 -12 CURVE SMOOTH",
"487 -12 OFFCURVE",
"573 121 OFFCURVE",
"573 349 CURVE SMOOTH",
"573 466 OFFCURVE",
"557 554 OFFCURVE",
"506 610 CURVE",
"575 614 OFFCURVE",
"593 647 OFFCURVE",
"593 710 CURVE SMOOTH",
"593 813 LINE"
);
},
{
closed = 1;
nodes = (
"215 109 OFFCURVE",
"187 176 OFFCURVE",
"187 288 CURVE SMOOTH",
"187 410 LINE SMOOTH",
"187 522 OFFCURVE",
"215 589 OFFCURVE",
"300 589 CURVE SMOOTH",
"385 589 OFFCURVE",
"413 522 OFFCURVE",
"413 410 CURVE SMOOTH",
"413 289 LINE SMOOTH",
"413 176 OFFCURVE",
"385 109 OFFCURVE",
"300 109 CURVE SMOOTH"
);
}
);
width = 600;
}
);
note = Ohorn;
unicode = 01A0;
},
{
glyphname = OE;
lastChange = "2019-02-04 10:45:10 +0000";
layers = (
{
layerId = "84CDBA37-3524-4FC2-9356-5581E3F2D06C";
paths = (
{
closed = 1;
nodes = (
"586 111 LINE",
"431 111 LINE",
"431 298 LINE",
"576 298 LINE",
"576 409 LINE",
"431 409 LINE",
"431 587 LINE",
"586 587 LINE",
"586 698 LINE",
"277 698 LINE SMOOTH",
"97 698 OFFCURVE",
"10 573 OFFCURVE",
"10 349 CURVE SMOOTH",
"10 125 OFFCURVE",
"97 0 OFFCURVE",
"277 0 CURVE SMOOTH",
"586 0 LINE"
);
},
{
closed = 1;
nodes = (
"196 111 OFFCURVE",
"156 171 OFFCURVE",
"156 290 CURVE SMOOTH",
"156 408 LINE SMOOTH",
"156 527 OFFCURVE",
"196 587 OFFCURVE",
"287 587 CURVE SMOOTH",
"293 587 LINE",
"293 111 LINE",
"287 111 LINE SMOOTH"
);
}
);
width = 600;
}
);
note = OE;
unicode = 0152;
},
{
glyphname = Scedilla;
lastChange = "2019-02-04 10:45:10 +0000";
layers = (
{
layerId = "84CDBA37-3524-4FC2-9356-5581E3F2D06C";
paths = (
{
closed = 1;
nodes = (
"339 -212 OFFCURVE",
"373 -207 OFFCURVE",
"398 -192 CURVE SMOOTH",
"422 -177 OFFCURVE",
"438 -156 OFFCURVE",
"438 -121 CURVE SMOOTH",
"438 -72 OFFCURVE",
"405 -52 OFFCURVE",
"365 -52 CURVE SMOOTH",
"349 -52 OFFCURVE",
"333 -55 OFFCURVE",
"317 -59 CURVE",
"313 -55 LINE",
"322 -11 LINE",
"398 -6 OFFCURVE",
"457 20 OFFCURVE",
"497 60 CURVE SMOOTH",
"536 99 OFFCURVE",
"556 153 OFFCURVE",
"556 214 CURVE SMOOTH",
"556 325 OFFCURVE",
"492 390 OFFCURVE",
"379 410 CURVE SMOOTH",
"306 423 LINE SMOOTH",
"238 435 OFFCURVE",
"211 456 OFFCURVE",
"211 504 CURVE SMOOTH",
"211 559 OFFCURVE",
"245 586 OFFCURVE",
"312 586 CURVE SMOOTH",
"376 586 OFFCURVE",
"426 562 OFFCURVE",
"463 521 CURVE",
"548 617 LINE",
"499 674 OFFCURVE",
"418 710 OFFCURVE",
"310 710 CURVE SMOOTH",
"151 710 OFFCURVE",
"59 632 OFFCURVE",
"59 497 CURVE SMOOTH",
"59 394 OFFCURVE",
"112 318 OFFCURVE",
"237 297 CURVE SMOOTH",
"310 285 LINE SMOOTH",
"378 274 OFFCURVE",
"404 251 OFFCURVE",
"404 202 CURVE SMOOTH",
"404 142 OFFCURVE",
"366 109 OFFCURVE",
"294 109 CURVE SMOOTH",
"231 109 OFFCURVE",
"169 135 OFFCURVE",
"118 191 CURVE",
"31 96 LINE",
"79 36 OFFCURVE",
"155 -3 OFFCURVE",
"255 -11 CURVE",
"242 -74 LINE",
"263 -76 LINE SMOOTH",
"294 -79 OFFCURVE",
"312 -85 OFFCURVE",
"324 -92 CURVE",
"335 -100 OFFCURVE",
"338 -108 OFFCURVE",
"338 -116 CURVE SMOOTH",
"338 -133 OFFCURVE",
"319 -141 OFFCURVE",
"294 -141 CURVE SMOOTH",
"263 -141 OFFCURVE",
"241 -128 OFFCURVE",
"228 -112 CURVE",
"182 -168 LINE",
"199 -188 OFFCURVE",
"237 -212 OFFCURVE",
"306 -212 CURVE SMOOTH"
);
}
);
width = 600;
}
);
note = Scedilla;
unicode = 015E;
},
{
glyphname = uni1E9E;
lastChange = "2019-02-04 10:45:10 +0000";
layers = (
{
layerId = "84CDBA37-3524-4FC2-9356-5581E3F2D06C";
paths = (
{
closed = 1;
nodes = (
"193 0 LINE",
"193 582 LINE",
"412 582 LINE",
"285 419 LINE",
"285 302 LINE",
"371 302 LINE SMOOTH",
"427 302 OFFCURVE",
"449 271 OFFCURVE",
"449 228 CURVE SMOOTH",
"449 192 LINE SMOOTH",
"449 168 OFFCURVE",
"446 147 OFFCURVE",
"435 131 CURVE SMOOTH",
"424 115 OFFCURVE",
"407 105 OFFCURVE",
"379 105 CURVE SMOOTH",
"348 105 OFFCURVE",
"319 117 OFFCURVE",
"292 141 CURVE",
"229 37 LINE",
"274 -2 OFFCURVE",
"330 -12 OFFCURVE",
"381 -12 CURVE SMOOTH",
"458 -12 OFFCURVE",
"513 13 OFFCURVE",
"549 54 CURVE SMOOTH",
"584 94 OFFCURVE",
"600 149 OFFCURVE",
"600 209 CURVE SMOOTH",
"600 281 OFFCURVE",
"576 328 OFFCURVE",
"544 359 CURVE SMOOTH",
"511 390 OFFCURVE",
"469 403 OFFCURVE",
"432 406 CURVE",
"432 412 LINE",
"556 569 LINE",
"556 698 LINE",
"46 698 LINE",
"46 0 LINE"
);
}
);
width = 600;
}
);
note = uni1E9E;
unicode = 1E9E;
},
{
glyphname = Tbar;
lastChange = "2019-02-04 10:45:10 +0000";
layers = (
{
layerId = "84CDBA37-3524-4FC2-9356-5581E3F2D06C";
paths = (
{
closed = 1;
nodes = (
"518 396 LINE",
"375 396 LINE",
"375 575 LINE",
"576 575 LINE",
"576 698 LINE",
"24 698 LINE",
"24 575 LINE",
"225 575 LINE",
"225 396 LINE",
"82 396 LINE",
"82 282 LINE",
"225 282 LINE",
"225 0 LINE",
"375 0 LINE",
"375 282 LINE",
"518 282 LINE"
);
}
);
width = 600;
}
);
note = Tbar;
unicode = 0166;
},
{
glyphname = Thorn;
lastChange = "2019-02-04 10:45:10 +0000";
layers = (
{
layerId = "84CDBA37-3524-4FC2-9356-5581E3F2D06C";
paths = (
{
closed = 1;
nodes = (
"227 133 LINE",
"341 133 LINE SMOOTH",
"410 133 OFFCURVE",
"464 155 OFFCURVE",
"500 194 CURVE SMOOTH",
"536 233 OFFCURVE",
"555 288 OFFCURVE",
"555 355 CURVE SMOOTH",
"555 422 OFFCURVE",
"536 477 OFFCURVE",
"500 516 CURVE SMOOTH",
"464 555 OFFCURVE",
"410 577 OFFCURVE",
"341 577 CURVE SMOOTH",
"227 577 LINE",
"227 698 LINE",
"76 698 LINE",
"76 0 LINE",
"227 0 LINE"
);
},
{
closed = 1;
nodes = (
"304 456 LINE SMOOTH",
"375 456 OFFCURVE",
"398 431 OFFCURVE",
"398 370 CURVE SMOOTH",
"398 340 LINE SMOOTH",
"398 279 OFFCURVE",
"375 254 OFFCURVE",
"304 254 CURVE SMOOTH",
"227 254 LINE",
"227 456 LINE"
);
}
);
width = 600;
}
);
note = Thorn;
unicode = 00DE;
},
{
glyphname = Uogonek;
lastChange = "2019-02-04 10:45:10 +0000";
layers = (
{
layerId = "84CDBA37-3524-4FC2-9356-5581E3F2D06C";
paths = (
{
closed = 1;
nodes = (
"55 276 LINE SMOOTH",
"55 181 OFFCURVE",
"65 110 OFFCURVE",
"101 62 CURVE SMOOTH",
"136 13 OFFCURVE",
"195 -12 OFFCURVE",
"294 -12 CURVE SMOOTH",
"314 -12 OFFCURVE",
"324 -12 OFFCURVE",
"335 -9 CURVE",
"337 -14 LINE",
"261 -47 OFFCURVE",
"218 -75 OFFCURVE",
"218 -128 CURVE SMOOTH",
"218 -159 OFFCURVE",
"232 -180 OFFCURVE",
"255 -193 CURVE SMOOTH",
"278 -206 OFFCURVE",
"309 -212 OFFCURVE",
"342 -212 CURVE SMOOTH",
"406 -212 OFFCURVE",
"447 -193 OFFCURVE",
"464 -161 CURVE",
"411 -110 LINE",
"396 -126 OFFCURVE",
"380 -138 OFFCURVE",
"356 -138 CURVE SMOOTH",
"337 -138 OFFCURVE",
"318 -130 OFFCURVE",
"318 -105 CURVE SMOOTH",
"318 -93 OFFCURVE",
"322 -85 OFFCURVE",
"338 -70 CURVE SMOOTH",
"354 -55 OFFCURVE",
"382 -36 OFFCURVE",
"430 -1 CURVE SMOOTH",
"485 38 OFFCURVE",
"513 75 OFFCURVE",
"529 119 CURVE SMOOTH",
"544 163 OFFCURVE",
"545 212 OFFCURVE",
"545 276 CURVE SMOOTH",
"545 698 LINE",
"395 698 LINE",
"395 256 LINE SMOOTH",
"395 212 OFFCURVE",
"393 174 OFFCURVE",
"381 149 CURVE SMOOTH",
"368 124 OFFCURVE",
"344 109 OFFCURVE",
"300 109 CURVE SMOOTH",
"256 109 OFFCURVE",
"232 124 OFFCURVE",
"220 149 CURVE SMOOTH",
"207 174 OFFCURVE",
"205 212 OFFCURVE",
"205 256 CURVE SMOOTH",
"205 698 LINE",
"55 698 LINE"
);
}
);
width = 600;
}
);
note = Uogonek;
unicode = 0172;
},
{
glyphname = Uhorn;
lastChange = "2019-02-04 10:45:10 +0000";
layers = (
{
layerId = "84CDBA37-3524-4FC2-9356-5581E3F2D06C";
paths = (
{
closed = 1;
nodes = (
"55 276 LINE SMOOTH",
"55 180 OFFCURVE",
"65 108 OFFCURVE",
"101 60 CURVE SMOOTH",
"137 12 OFFCURVE",
"199 -12 OFFCURVE",
"300 -12 CURVE SMOOTH",
"401 -12 OFFCURVE",
"463 12 OFFCURVE",
"499 60 CURVE SMOOTH",
"535 108 OFFCURVE",
"545 180 OFFCURVE",
"545 276 CURVE SMOOTH",
"545 614 LINE",
"588 626 OFFCURVE",
"600 658 OFFCURVE",
"600 710 CURVE SMOOTH",
"600 813 LINE",
"476 813 LINE",
"476 698 LINE",
"395 698 LINE",
"395 256 LINE SMOOTH",
"395 212 OFFCURVE",
"393 174 OFFCURVE",
"381 149 CURVE SMOOTH",
"368 124 OFFCURVE",
"344 109 OFFCURVE",
"300 109 CURVE SMOOTH",
"256 109 OFFCURVE",
"232 124 OFFCURVE",
"220 149 CURVE SMOOTH",
"207 174 OFFCURVE",
"205 212 OFFCURVE",
"205 256 CURVE SMOOTH",
"205 698 LINE",
"55 698 LINE"
);
}
);
width = 600;
}
);
note = Uhorn;
unicode = 01AF;
},
{
glyphname = mu;
lastChange = "2019-02-04 10:45:10 +0000";
layers = (
{
layerId = "84CDBA37-3524-4FC2-9356-5581E3F2D06C";
paths = (
{
closed = 1;
nodes = (
"213 -103 LINE",
"184 30 LINE",
"190 30 LINE",
"213 -3 OFFCURVE",
"236 -12 OFFCURVE",
"263 -12 CURVE SMOOTH",
"295 -12 OFFCURVE",
"320 1 OFFCURVE",
"340 21 CURVE SMOOTH",
"360 41 OFFCURVE",
"373 67 OFFCURVE",
"381 94 CURVE",
"387 94 LINE",
"387 0 LINE",
"535 0 LINE",
"535 516 LINE",
"387 516 LINE",
"387 177 LINE SMOOTH",
"387 152 OFFCURVE",
"376 133 OFFCURVE",
"360 121 CURVE SMOOTH",
"343 108 OFFCURVE",
"321 102 OFFCURVE",
"298 102 CURVE SMOOTH",
"241 102 OFFCURVE",
"213 139 OFFCURVE",
"213 212 CURVE SMOOTH",
"213 516 LINE",
"65 516 LINE",
"65 -200 LINE",
"213 -200 LINE"
);
}
);
width = 600;
}
);
note = mu;
unicode = 00B5;
},
{
glyphname = Delta;
lastChange = "2019-02-04 10:45:10 +0000";
layers = (
{
layerId = "84CDBA37-3524-4FC2-9356-5581E3F2D06C";
paths = (
{
closed = 1;
nodes = (
"564 0 LINE",
"564 127 LINE",
"406 698 LINE",
"194 698 LINE",
"36 127 LINE",
"36 0 LINE"
);
},
{
closed = 1;
nodes = (
"191 123 LINE",
"295 556 LINE",
"303 556 LINE",
"407 123 LINE"
);
}
);
width = 600;
}
);
note = Delta;
unicode = 2206;
},
{
glyphname = product;
lastChange = "2019-02-04 10:45:10 +0000";
layers = (
{
layerId = "84CDBA37-3524-4FC2-9356-5581E3F2D06C";
paths = (
{
closed = 1;
nodes = (
"208 0 LINE",
"208 575 LINE",
"392 575 LINE",
"392 0 LINE",
"540 0 LINE",
"540 698 LINE",
"60 698 LINE",
"60 0 LINE"
);
}
);
width = 600;
}
);
note = product;
unicode = 220F;
},
{
glyphname = summation;
lastChange = "2019-02-04 10:45:10 +0000";
layers = (
{
layerId = "84CDBA37-3524-4FC2-9356-5581E3F2D06C";
paths = (
{
closed = 1;
nodes = (
"223 -77 LINE",
"422 199 LINE",
"422 299 LINE",
"223 575 LINE",
"536 575 LINE",
"536 698 LINE",
"58 698 LINE",
"58 568 LINE",
"285 251 LINE",
"285 247 LINE",
"58 -70 LINE",
"58 -200 LINE",
"536 -200 LINE",
"536 -77 LINE"
);
}
);
width = 600;
}
);
note = summation;
unicode = 2211;
},
{
glyphname = Omega;
lastChange = "2019-02-04 10:45:10 +0000";
layers = (
{
layerId = "84CDBA37-3524-4FC2-9356-5581E3F2D06C";
paths = (
{
closed = 1;
nodes = (
"270 0 LINE",
"270 173 LINE",
"242 188 OFFCURVE",
"223 213 OFFCURVE",
"211 241 CURVE SMOOTH",
"199 269 OFFCURVE",
"194 302 OFFCURVE",
"194 333 CURVE SMOOTH",
"194 433 LINE SMOOTH",
"194 529 OFFCURVE",
"225 584 OFFCURVE",
"300 584 CURVE SMOOTH",
"375 584 OFFCURVE",
"406 529 OFFCURVE",
"406 433 CURVE SMOOTH",
"406 333 LINE SMOOTH",
"406 302 OFFCURVE",
"401 269 OFFCURVE",
"389 241 CURVE SMOOTH",
"377 213 OFFCURVE",
"358 188 OFFCURVE",
"330 173 CURVE",
"330 0 LINE",
"573 0 LINE",
"573 105 LINE",
"430 105 LINE",
"430 115 LINE",
"517 156 OFFCURVE",
"568 245 OFFCURVE",
"568 405 CURVE SMOOTH",
"568 598 OFFCURVE",
"477 710 OFFCURVE",
"300 710 CURVE SMOOTH",
"123 710 OFFCURVE",
"32 598 OFFCURVE",
"32 405 CURVE SMOOTH",
"32 245 OFFCURVE",
"83 156 OFFCURVE",
"170 115 CURVE",
"170 105 LINE",
"27 105 LINE",
"27 0 LINE"
);
}
);
width = 600;
}
);
note = Omega;
unicode = 2126;
},
{
glyphname = pi;
lastChange = "2019-02-04 10:45:10 +0000";
layers = (
{
layerId = "84CDBA37-3524-4FC2-9356-5581E3F2D06C";
paths = (
{
closed = 1;
nodes = (
"228 0 LINE",
"228 401 LINE",
"367 401 LINE",
"367 149 LINE SMOOTH",
"367 62 OFFCURVE",
"418 0 OFFCURVE",
"525 0 CURVE SMOOTH",
"575 0 LINE",
"575 115 LINE",
"515 115 LINE",
"515 401 LINE",
"575 401 LINE",
"575 516 LINE",
"20 516 LINE",
"20 401 LINE",
"80 401 LINE",
"80 0 LINE"
);
}
);
width = 600;
}
);
note = pi;
unicode = 03C0;
},
{
glyphname = uni0431;
lastChange = "2019-02-04 10:45:10 +0000";
layers = (
{
layerId = "84CDBA37-3524-4FC2-9356-5581E3F2D06C";
paths = (
{
closed = 1;
nodes = (
"378 -12 OFFCURVE",
"442 13 OFFCURVE",
"486 60 CURVE SMOOTH",
"529 107 OFFCURVE",
"553 174 OFFCURVE",
"553 258 CURVE SMOOTH",
"553 338 OFFCURVE",
"533 399 OFFCURVE",
"497 440 CURVE SMOOTH",
"461 480 OFFCURVE",
"411 502 OFFCURVE",
"351 502 CURVE SMOOTH",
"279 502 OFFCURVE",
"234 466 OFFCURVE",
"211 399 CURVE",
"204 399 LINE",
"207 471 OFFCURVE",
"217 522 OFFCURVE",
"243 555 CURVE SMOOTH",
"269 588 OFFCURVE",
"312 604 OFFCURVE",
"380 607 CURVE SMOOTH",
"520 612 LINE",
"520 746 LINE",
"365 739 LINE SMOOTH",
"249 734 OFFCURVE",
"170 698 OFFCURVE",
"120 623 CURVE SMOOTH",
"70 548 OFFCURVE",
"48 436 OFFCURVE",
"48 279 CURVE SMOOTH",
"48 91 OFFCURVE",
"145 -12 OFFCURVE",
"301 -12 CURVE SMOOTH"
);
},
{
closed = 1;
nodes = (
"240 98 OFFCURVE",
"202 141 OFFCURVE",
"202 217 CURVE SMOOTH",
"202 273 LINE SMOOTH",
"202 349 OFFCURVE",
"240 392 OFFCURVE",
"301 392 CURVE SMOOTH",
"364 392 OFFCURVE",
"400 357 OFFCURVE",
"400 289 CURVE SMOOTH",
"400 211 LINE SMOOTH",
"400 143 OFFCURVE",
"361 98 OFFCURVE",
"301 98 CURVE SMOOTH"
);
}
);
width = 600;
}
);
note = uni0431;
unicode = 0431;
},
{
glyphname = uni0432;
lastChange = "2019-02-04 10:45:10 +0000";
layers = (
{
layerId = "84CDBA37-3524-4FC2-9356-5581E3F2D06C";
paths = (
{
closed = 1;
nodes = (
"377 0 LINE SMOOTH",
"481 0 OFFCURVE",
"543 59 OFFCURVE",
"543 152 CURVE SMOOTH",
"543 220 OFFCURVE",
"497 259 OFFCURVE",
"414 266 CURVE",
"414 271 LINE",
"491 286 OFFCURVE",
"523 325 OFFCURVE",
"523 384 CURVE SMOOTH",
"523 464 OFFCURVE",
"471 516 OFFCURVE",
"375 516 CURVE SMOOTH",
"80 516 LINE",
"80 0 LINE"
);
},
{
closed = 1;
nodes = (
"224 214 LINE",
"351 214 LINE SMOOTH",
"378 214 OFFCURVE",
"395 200 OFFCURVE",
"395 171 CURVE SMOOTH",
"395 147 LINE SMOOTH",
"395 119 OFFCURVE",
"380 105 OFFCURVE",
"351 105 CURVE SMOOTH",
"224 105 LINE"
);
},
{
closed = 1;
nodes = (
"224 411 LINE",
"333 411 LINE SMOOTH",
"360 411 OFFCURVE",
"375 395 OFFCURVE",
"375 367 CURVE SMOOTH",
"375 346 LINE SMOOTH",
"375 318 OFFCURVE",
"360 302 OFFCURVE",
"333 302 CURVE SMOOTH",
"224 302 LINE"
);
}
);
width = 600;
}
);
note = uni0432;
unicode = 0432;
},
{
glyphname = uni0433;
lastChange = "2019-02-04 10:45:10 +0000";
layers = (
{
layerId = "84CDBA37-3524-4FC2-9356-5581E3F2D06C";
paths = (
{
closed = 1;
nodes = (
"270 0 LINE",
"270 401 LINE",
"512 401 LINE",
"512 516 LINE",
"122 516 LINE",
"122 0 LINE"
);
}
);
width = 600;
}
);
note = uni0433;
unicode = 0433;
},
{
glyphname = uni0434;
lastChange = "2019-02-04 10:45:10 +0000";
layers = (
{
layerId = "84CDBA37-3524-4FC2-9356-5581E3F2D06C";
paths = (
{
closed = 1;
nodes = (
"144 -140 LINE",
"144 0 LINE",
"449 0 LINE",
"449 -140 LINE",
"583 -140 LINE",
"583 115 LINE",
"503 115 LINE",
"503 516 LINE",
"126 516 LINE",
"126 358 LINE SMOOTH",
"126 247 OFFCURVE",
"105 167 OFFCURVE",
"70 115 CURVE",
"10 115 LINE",
"10 -140 LINE"
);
},
{
closed = 1;
nodes = (
"244 167 OFFCURVE",
"259 250 OFFCURVE",
"259 354 CURVE SMOOTH",
"259 401 LINE",
"360 401 LINE",
"360 115 LINE",
"217 115 LINE"
);
}
);
width = 600;
}
);
note = uni0434;
unicode = 0434;
},
{
glyphname = uni0436;
lastChange = "2019-02-04 10:45:10 +0000";
layers = (
{
layerId = "84CDBA37-3524-4FC2-9356-5581E3F2D06C";
paths = (
{
closed = 1;
nodes = (
"359 0 LINE",
"359 210 LINE",
"408 210 LINE",
"458 0 LINE",
"586 0 LINE",
"544 170 LINE SMOOTH",
"531 223 OFFCURVE",
"511 250 OFFCURVE",
"463 262 CURVE",
"463 269 LINE",
"502 281 OFFCURVE",
"523 304 OFFCURVE",
"535 351 CURVE SMOOTH",
"578 516 LINE",
"457 516 LINE",
"404 313 LINE",
"359 313 LINE",
"359 516 LINE",
"241 516 LINE",
"241 313 LINE",
"196 313 LINE",
"144 516 LINE",
"22 516 LINE",
"65 351 LINE SMOOTH",
"77 304 OFFCURVE",
"98 281 OFFCURVE",
"137 269 CURVE",
"137 262 LINE",
"89 250 OFFCURVE",
"69 223 OFFCURVE",
"56 170 CURVE SMOOTH",
"14 0 LINE",
"141 0 LINE",
"192 210 LINE",
"241 210 LINE",
"241 0 LINE"
);
}
);
width = 600;
}
);
note = uni0436;
unicode = 0436;
},
{
glyphname = uni0437;
lastChange = "2019-02-04 10:45:10 +0000";
layers = (
{
layerId = "84CDBA37-3524-4FC2-9356-5581E3F2D06C";
paths = (
{
closed = 1;
nodes = (
"450 -12 OFFCURVE",
"536 51 OFFCURVE",
"536 144 CURVE SMOOTH",
"536 212 OFFCURVE",
"487 256 OFFCURVE",
"419 267 CURVE",
"419 272 LINE",
"483 284 OFFCURVE",
"526 324 OFFCURVE",
"526 388 CURVE SMOOTH",
"526 428 OFFCURVE",
"506 463 OFFCURVE",
"467 488 CURVE SMOOTH",
"427 513 OFFCURVE",
"371 528 OFFCURVE",
"299 528 CURVE SMOOTH",
"187 528 OFFCURVE",
"120 494 OFFCURVE",
"65 435 CURVE",
"147 359 LINE",
"186 399 OFFCURVE",
"226 418 OFFCURVE",
"286 418 CURVE SMOOTH",
"347 418 OFFCURVE",
"377 394 OFFCURVE",
"377 363 CURVE SMOOTH",
"377 357 LINE SMOOTH",
"377 326 OFFCURVE",
"361 307 OFFCURVE",
"318 307 CURVE SMOOTH",
"210 307 LINE",
"210 209 LINE",
"331 209 LINE SMOOTH",
"368 209 OFFCURVE",
"387 194 OFFCURVE",
"387 163 CURVE SMOOTH",
"387 157 LINE SMOOTH",
"387 121 OFFCURVE",
"354 98 OFFCURVE",
"293 98 CURVE SMOOTH",
"220 98 OFFCURVE",
"176 119 OFFCURVE",
"136 163 CURVE",
"51 84 LINE",
"95 25 OFFCURVE",
"181 -12 OFFCURVE",
"289 -12 CURVE SMOOTH"
);
}
);
width = 600;
}
);
note = uni0437;
unicode = 0437;
},
{
glyphname = uni0438;
lastChange = "2019-02-04 10:45:10 +0000";
layers = (
{
layerId = "84CDBA37-3524-4FC2-9356-5581E3F2D06C";
paths = (
{
closed = 1;
nodes = (
"207 0 LINE",
"394 318 LINE",
"400 318 LINE",
"388 166 LINE",
"388 0 LINE",
"532 0 LINE",
"532 516 LINE",
"393 516 LINE",
"206 198 LINE",
"200 198 LINE",
"212 350 LINE",
"212 516 LINE",
"68 516 LINE",
"68 0 LINE"
);
}
);
width = 600;
}
);
note = uni0438;
unicode = 0438;
},
{
glyphname = uni043A;
lastChange = "2019-02-04 10:45:10 +0000";
layers = (
{
layerId = "84CDBA37-3524-4FC2-9356-5581E3F2D06C";
paths = (
{
closed = 1;
nodes = (
"219 0 LINE",
"219 205 LINE",
"295 205 LINE",
"363 75 LINE SMOOTH",
"391 20 OFFCURVE",
"429 0 OFFCURVE",
"485 0 CURVE SMOOTH",
"554 0 LINE",
"554 115 LINE",
"499 115 LINE",
"460 192 LINE SMOOTH",
"435 241 OFFCURVE",
"414 258 OFFCURVE",
"375 266 CURVE",
"375 272 LINE",
"408 279 OFFCURVE",
"433 295 OFFCURVE",
"456 338 CURVE SMOOTH",
"556 516 LINE",
"399 516 LINE",
"295 318 LINE",
"219 318 LINE",
"219 516 LINE",
"71 516 LINE",
"71 0 LINE"
);
}
);
width = 600;
}
);
note = uni043A;
unicode = 043A;
},
{
glyphname = uni043B;
lastChange = "2019-02-04 10:45:10 +0000";
layers = (
{
layerId = "84CDBA37-3524-4FC2-9356-5581E3F2D06C";
paths = (
{
closed = 1;
nodes = (
"63 -6 LINE SMOOTH",
"127 -6 OFFCURVE",
"166 7 OFFCURVE",
"205 46 CURVE SMOOTH",
"224 65 OFFCURVE",
"240 95 OFFCURVE",
"252 140 CURVE SMOOTH",
"264 185 OFFCURVE",
"271 247 OFFCURVE",
"271 331 CURVE SMOOTH",
"271 401 LINE",
"384 401 LINE",
"384 0 LINE",
"532 0 LINE",
"532 516 LINE",
"138 516 LINE",
"138 335 LINE SMOOTH",
"138 211 OFFCURVE",
"121 151 OFFCURVE",
"92 115 CURVE",
"22 115 LINE",
"22 -6 LINE"
);
}
);
width = 600;
}
);
note = uni043B;
unicode = 043B;
},
{
glyphname = uni043C;
lastChange = "2019-02-04 10:45:10 +0000";
layers = (
{
layerId = "84CDBA37-3524-4FC2-9356-5581E3F2D06C";
paths = (
{
closed = 1;
nodes = (
"170 0 LINE",
"170 247 LINE",
"165 338 LINE",
"173 338 LINE",
"300 71 LINE",
"427 338 LINE",
"435 338 LINE",
"430 247 LINE",
"430 0 LINE",
"550 0 LINE",
"550 516 LINE",
"414 516 LINE",
"311 299 LINE",
"303 299 LINE",
"200 516 LINE",
"50 516 LINE",
"50 0 LINE"
);
}
);
width = 600;
}
);
note = uni043C;
unicode = 043C;
},
{
glyphname = uni043D;
lastChange = "2019-02-04 10:45:10 +0000";
layers = (
{
layerId = "84CDBA37-3524-4FC2-9356-5581E3F2D06C";
paths = (
{
closed = 1;
nodes = (
"216 0 LINE",
"216 204 LINE",
"384 204 LINE",
"384 0 LINE",
"532 0 LINE",
"532 516 LINE",
"384 516 LINE",
"384 319 LINE",
"216 319 LINE",
"216 516 LINE",
"68 516 LINE",
"68 0 LINE"
);
}
);
width = 600;
}
);
note = uni043D;
unicode = 043D;
},
{
glyphname = uni043F;
lastChange = "2019-02-04 10:45:10 +0000";
layers = (
{
layerId = "84CDBA37-3524-4FC2-9356-5581E3F2D06C";
paths = (
{
closed = 1;
nodes = (
"216 0 LINE",
"216 401 LINE",
"384 401 LINE",
"384 0 LINE",
"532 0 LINE",
"532 516 LINE",
"68 516 LINE",
"68 0 LINE"
);
}
);
width = 600;
}
);
note = uni043F;
unicode = 043F;
},
{
glyphname = uni0442;
lastChange = "2019-02-04 10:45:10 +0000";
layers = (
{
layerId = "84CDBA37-3524-4FC2-9356-5581E3F2D06C";
paths = (
{
closed = 1;
nodes = (
"373 0 LINE",
"373 401 LINE",
"543 401 LINE",
"543 516 LINE",
"57 516 LINE",
"57 401 LINE",
"227 401 LINE",
"227 0 LINE"
);
}
);
width = 600;
}
);
note = uni0442;
unicode = 0442;
},
{
glyphname = uni0444;
lastChange = "2019-02-04 10:45:10 +0000";
layers = (
{
layerId = "84CDBA37-3524-4FC2-9356-5581E3F2D06C";
paths = (
{
closed = 1;
nodes = (
"183 98 OFFCURVE",
"171 105 OFFCURVE",
"162 120 CURVE SMOOTH",
"153 135 OFFCURVE",
"149 161 OFFCURVE",
"149 198 CURVE SMOOTH",
"149 318 LINE SMOOTH",
"149 355 OFFCURVE",
"153 381 OFFCURVE",
"162 396 CURVE SMOOTH",
"171 411 OFFCURVE",
"183 418 OFFCURVE",
"200 418 CURVE SMOOTH",
"229 418 OFFCURVE",
"242 401 OFFCURVE",
"242 349 CURVE SMOOTH",
"242 167 LINE SMOOTH",
"242 115 OFFCURVE",
"229 98 OFFCURVE",
"200 98 CURVE SMOOTH"
);
},
{
closed = 1;
nodes = (
"360 -200 LINE",
"360 65 LINE",
"367 65 LINE",
"387 5 OFFCURVE",
"416 -12 OFFCURVE",
"456 -12 CURVE SMOOTH",
"495 -12 OFFCURVE",
"525 5 OFFCURVE",
"545 48 CURVE SMOOTH",
"565 91 OFFCURVE",
"575 158 OFFCURVE",
"575 258 CURVE SMOOTH",
"575 358 OFFCURVE",
"565 425 OFFCURVE",
"545 468 CURVE SMOOTH",
"525 511 OFFCURVE",
"495 528 OFFCURVE",
"456 528 CURVE SMOOTH",
"416 528 OFFCURVE",
"387 511 OFFCURVE",
"367 451 CURVE",
"360 451 LINE",
"360 710 LINE",
"240 710 LINE",
"240 451 LINE",
"233 451 LINE",
"213 511 OFFCURVE",
"184 528 OFFCURVE",
"144 528 CURVE SMOOTH",
"105 528 OFFCURVE",
"75 511 OFFCURVE",
"55 468 CURVE SMOOTH",
"35 425 OFFCURVE",
"25 358 OFFCURVE",
"25 258 CURVE SMOOTH",
"25 158 OFFCURVE",
"35 91 OFFCURVE",
"55 48 CURVE SMOOTH",
"75 5 OFFCURVE",
"105 -12 OFFCURVE",
"144 -12 CURVE SMOOTH",
"184 -12 OFFCURVE",
"213 5 OFFCURVE",
"233 65 CURVE",
"240 65 LINE",
"240 -200 LINE"
);
},
{
closed = 1;
nodes = (
"371 98 OFFCURVE",
"358 115 OFFCURVE",
"358 167 CURVE SMOOTH",
"358 349 LINE SMOOTH",
"358 401 OFFCURVE",
"371 418 OFFCURVE",
"400 418 CURVE SMOOTH",
"417 418 OFFCURVE",
"429 411 OFFCURVE",
"438 396 CURVE SMOOTH",
"447 381 OFFCURVE",
"451 355 OFFCURVE",
"451 318 CURVE SMOOTH",
"451 198 LINE SMOOTH",
"451 161 OFFCURVE",
"447 135 OFFCURVE",
"438 120 CURVE SMOOTH",
"429 105 OFFCURVE",
"417 98 OFFCURVE",
"400 98 CURVE SMOOTH"
);
}
);
width = 600;
}
);
note = uni0444;
unicode = 0444;
},
{
glyphname = uni0446;
lastChange = "2019-02-04 10:45:10 +0000";
layers = (
{
layerId = "84CDBA37-3524-4FC2-9356-5581E3F2D06C";
paths = (
{
closed = 1;
nodes = (
"583 -140 LINE",
"583 115 LINE",
"503 115 LINE",
"503 516 LINE",
"355 516 LINE",
"355 115 LINE",
"203 115 LINE",
"203 516 LINE",
"55 516 LINE",
"55 0 LINE",
"449 0 LINE",
"449 -140 LINE"
);
}
);
width = 600;
}
);
note = uni0446;
unicode = 0446;
},
{
glyphname = uni0447;
lastChange = "2019-02-04 10:45:10 +0000";
layers = (
{
layerId = "84CDBA37-3524-4FC2-9356-5581E3F2D06C";
paths = (
{
closed = 1;
nodes = (
"522 0 LINE",
"522 516 LINE",
"374 516 LINE",
"374 323 LINE SMOOTH",
"374 287 OFFCURVE",
"345 266 OFFCURVE",
"285 266 CURVE SMOOTH",
"226 266 OFFCURVE",
"204 288 OFFCURVE",
"204 340 CURVE SMOOTH",
"204 516 LINE",
"56 516 LINE",
"56 333 LINE SMOOTH",
"56 206 OFFCURVE",
"107 146 OFFCURVE",
"226 146 CURVE SMOOTH",
"293 146 OFFCURVE",
"337 172 OFFCURVE",
"369 215 CURVE",
"374 215 LINE",
"374 0 LINE"
);
}
);
width = 600;
}
);
note = uni0447;
unicode = 0447;
},
{
glyphname = uni0448;
lastChange = "2019-02-04 10:45:10 +0000";
layers = (
{
layerId = "84CDBA37-3524-4FC2-9356-5581E3F2D06C";
paths = (
{
closed = 1;
nodes = (
"569 0 LINE",
"569 516 LINE",
"450 516 LINE",
"450 108 LINE",
"359 108 LINE",
"359 516 LINE",
"240 516 LINE",
"240 108 LINE",
"149 108 LINE",
"149 516 LINE",
"30 516 LINE",
"30 0 LINE"
);
}
);
width = 600;
}
);
note = uni0448;
unicode = 0448;
},
{
glyphname = uni0449;
lastChange = "2019-02-04 10:45:10 +0000";
layers = (
{
layerId = "84CDBA37-3524-4FC2-9356-5581E3F2D06C";
paths = (
{
closed = 1;
nodes = (
"597 -140 LINE",
"597 108 LINE",
"534 108 LINE",
"534 516 LINE",
"416 516 LINE",
"416 108 LINE",
"339 108 LINE",
"339 516 LINE",
"221 516 LINE",
"221 108 LINE",
"144 108 LINE",
"144 516 LINE",
"26 516 LINE",
"26 0 LINE",
"491 0 LINE",
"491 -140 LINE"
);
}
);
width = 600;
}
);
note = uni0449;
unicode = 0449;
},
{
glyphname = uni044A;
lastChange = "2019-02-04 10:45:10 +0000";
layers = (
{
layerId = "84CDBA37-3524-4FC2-9356-5581E3F2D06C";
paths = (
{
closed = 1;
nodes = (
"385 0 LINE SMOOTH",
"438 0 OFFCURVE",
"484 16 OFFCURVE",
"517 48 CURVE SMOOTH",
"550 79 OFFCURVE",
"570 125 OFFCURVE",
"570 185 CURVE SMOOTH",
"570 245 OFFCURVE",
"550 290 OFFCURVE",
"518 322 CURVE SMOOTH",
"485 353 OFFCURVE",
"440 369 OFFCURVE",
"389 369 CURVE SMOOTH",
"278 369 LINE",
"278 516 LINE",
"15 516 LINE",
"15 401 LINE",
"130 401 LINE",
"130 0 LINE"
);
},
{
closed = 1;
nodes = (
"278 261 LINE",
"357 261 LINE SMOOTH",
"396 261 OFFCURVE",
"421 235 OFFCURVE",
"421 196 CURVE SMOOTH",
"421 173 LINE SMOOTH",
"421 134 OFFCURVE",
"396 108 OFFCURVE",
"357 108 CURVE SMOOTH",
"278 108 LINE"
);
}
);
width = 600;
}
);
note = uni044A;
unicode = 044A;
},
{
glyphname = uni044B;
lastChange = "2019-02-04 10:45:10 +0000";
layers = (
{
layerId = "84CDBA37-3524-4FC2-9356-5581E3F2D06C";
paths = (
{
closed = 1;
nodes = (
"208 0 LINE SMOOTH",
"261 0 OFFCURVE",
"307 16 OFFCURVE",
"340 48 CURVE SMOOTH",
"373 79 OFFCURVE",
"393 125 OFFCURVE",
"393 185 CURVE SMOOTH",
"393 245 OFFCURVE",
"373 290 OFFCURVE",
"341 322 CURVE SMOOTH",
"308 353 OFFCURVE",
"263 369 OFFCURVE",
"212 369 CURVE SMOOTH",
"154 369 LINE",
"154 516 LINE",
"30 516 LINE",
"30 0 LINE"
);
},
{
closed = 1;
nodes = (
"154 268 LINE",
"207 268 LINE SMOOTH",
"246 268 OFFCURVE",
"268 246 OFFCURVE",
"268 197 CURVE SMOOTH",
"268 172 LINE SMOOTH",
"268 123 OFFCURVE",
"246 101 OFFCURVE",
"207 101 CURVE SMOOTH",
"154 101 LINE"
);
},
{
closed = 1;
nodes = (
"569 0 LINE",
"569 516 LINE",
"445 516 LINE",
"445 0 LINE"
);
}
);
width = 600;
}
);
note = uni044B;
unicode = 044B;
},
